/* XPM */
static char *result[] = {
/* columns rows colors chars-per-pixel */
"64 64 4 1 ",
"  c #7FC9FD",
". c #80CAFE",
"X c #80CBFE",
"o c #80CBFF",
/* pixels */
"oooooooooooooooooooooooooooooooooooooooooooooooooooooooooooooooo",
"oooooooooooooooooooooooooooooooooooooooooooooooooooooooooooooooo",
"oooooooooooooooooooooooooooooooooooooooooooooooooooooooooooooooo",
"oooooooooooooooooooooooooooooooooooooooooooooooooooooooooooooooo",
"oooooooooooooooooooooooooooooooooooooooooooooooooooooooooooooooo",
"oooooooooooooooooooooooooooooooooooooooooooooooooooooooooooooooo",
"oooooooooooooooooooooooooooooooooooooooooooooooooooooooooooooooo",
"oooooooooooXooooooooXooooooooXooooooXooooooooXXoooXXXXoooooooXXo",
"ooooooooooooooooooooooooooooooooooooooooooooooooooooXooooooooooo",
"oooooooooooooooooooooooooooooooooooooooooooooooooooooooooooooooo",
"oooooooooooooooooooooooooooooooooooooooooooooooooooooooooooooooo",
"ooooooooooooooooooXoooooooooooooooXoooooooooXoooooXoooooooooXooo",
"ooooooooooooooooooooooooooooooooooooooooXooooooooXXoooooXooooooo",
"oooooooooooooooooooooooooooooooooooooooooooXoooooXXooooooooXoooo",
"oooooooooooooooooooooooooooooooooooooooooooooooooooooooooooooooo",
"oooooooooooooooooooooooooooooooooooooooooooooooooooooooooooooooo",
"ooooooooooooooooooooooooooooooooooooooooooooXoooooooooooooooXooo",
"ooooooooooooooooooooooooooooooooooooooooooooooooooXooooooooooooo",
"oooooooooooooooooooooooooooooooooooooooooXoXoooooooooooooXoXoooo",
"ooooooooooooooooXoooooooooooooooXooooooooooXoooooooXXooooooXoooo",
"ooooooooooooooooooooooooooooooooooooooooooooooXoooooooooooooooXo",
"oooooooooooooooooooooooooooooooooooooooooooooooXoooooooooooooooX",
"ooooooooooooXoXXooooooooooooXooXoooooooooooXoooXoooooooooooXoooX",
"oooooooooooooooooooooooooooooooooooooooooooooooooooooooooooooooo",
"oooooooooooooooooooooooooooooooooooooooooooooooooooooooooooooooo",
"oooooooooooooooooooooooooooooooooooooooooooooooooooooooooooooooo",
"oooooooooooooooooooooooooooooooooooooooooooooooooooooooooooooooo",
"oooooooooooooooooooooooooooooooooooooooooooooooooooooooooooooooo",
"oooooooooooooooooooooooooooooooooooooooooooooooooooooooooooooooo",
"ooooooooooooooooooooooooooooooooooooooooXoooooooXoooooooXooooooo",
"oooooooooooooooooooooooooooooooooooooooooooooooooooooooooooooooo",
"ooooooooooooooooooooooooooooooooooooooooooooooooXooooooooooooooo",
"oooooooooooooooooooooooooooooooooooooooooooooooooooooooooooooooo",
"oooooooooooooooooooooooooooooooooooooooooooooooooooooooooooooooo",
"oooooooooooooooooooooooooooooooooooooooooooooooooooooooooooooooo",
"oooooooooooooooooooooooooooooooooooooooooooooooooooooooooooooooo",
"oooooooooooooooooooooooooooooooooooooooooooooooooooooooooooooooo",
"oooooooooooooooooooooooooooooooooooooooooooooooooooooooooooooooo",
"oooooooooooooooooooooooooooooooooooooooooooooooooooooooooooooooo",
"ooooooooooooooXooXoXooooooooXooooXoXoooooooooooooooooooooooooooo",
"ooooooooooooooooXoXoooooooooooooXoXoooooooooooooXXoooooooooooooo",
"oooooooooooooooooooooooooooooooooooooooooooooooooooooooooooooooo",
"oooooooooooooooooooooooooooooooooooooooooooooooooooooooooooooooo",
"oooooooooooooooooooooooooooooooooooooooooooooooooooooooooooooooo",
"ooooooooooooooooooXooooooXooooooooXoooooooXoooooXoooooooooXooooo",
"oooooooooooooooooooooooooooooooooooooooooooooooooooooooooooooooo",
"oooooooooooooooooooooooooooooooooooooooooooooooooooooooooooooooo",
"oooooooooooooooooooooooooooooooooooooooooooooooooooooooooooooooo",
"ooooooooooooooooXoXoXooooooXooooXoXoXooooXoooXooooXooooooXoooXoo",
"ooooooooooooooooooooooooooooooXoooooooooooooooXooooXooooooooooXo",
"oooooooooooooooXoooooooooooooooXoooooooooooooooooooooooooooooooo",
"oooooooooooooooooooooooooooooooooooooooooooooooooooooooooooooooo",
"ooooooooooooooooooXoooooooooooooooXooooooooooooooooooooooooooooo",
"ooooooooXooooooXXooooooooooooooXXoooooooooXXoooXXoXXooooooXXoooX",
"ooooXooooooooXXXXooooooooXooooXXXoooooooXXXoooooXXooooooXXXooooo",
"oooooooooooooXooooooooooXoooooooooooooooXoooooooooooooooXooooooo",
"oooooooooooooooooooooooooooooooooooooooooooooooooooooooooooooooo",
"ooooooooooooooooXoXoooooooooooooXoXoooooooooXooXooXoooooooooXooX",
"ooooXooooooooooooooooooooooooooooooooooooooooooooooooooooooooooo",
"ooooooooooooooooooooooooooooooXooooooooooooooooooooooooooooooooo",
"oooooooooooooooooooooooooooooooooooooooooooooooooooooooooooooooo",
"oooooooooooooooooooooooooooooooooooooooooooooooooooooooooooooooo",
"................................................................",
"                                                                "
};
