/* XPM */
static char *result[] = {
/* columns rows colors chars-per-pixel */
"84 26 82 1 ",
"  c #E9A20E",
". c #EAA511",
"X c #EBA916",
"o c #ECAB1A",
"O c #EEB01E",
"+ c #EBAC25",
"@ c #EBAE2B",
"# c #EFB323",
"$ c #EEB32C",
"% c #F0B524",
"& c #F0B729",
"* c #F2BB2B",
"= c #E3AB39",
"- c #EDB234",
"; c #E6B03C",
": c #E8B43D",
"> c #EDBC3F",
", c #F2BE33",
"< c #F1BF3B",
"1 c #F4C235",
"2 c #F4C33A",
"3 c #F7C93C",
"4 c #F8CB3E",
"5 c #ECBC41",
"6 c #EFBA4B",
"7 c #F1BF45",
"8 c #F1BF4C",
"9 c #F0BE51",
"0 c #EFC142",
"q c #F1C444",
"w c #F5CA44",
"e c #F9CE42",
"r c #F3C44C",
"t c #F5CC49",
"y c #F8CE4A",
"u c #FAD145",
"i c #F9D24A",
"p c #F6CC52",
"a c #F2C55A",
"s c #F6CD5C",
"d c #FAD354",
"f c #F9D25B",
"g c #F3C864",
"h c #F4CC6D",
"j c #F9D464",
"k c #F7D16C",
"l c #F9D76D",
"z c #FAD86A",
"x c #F3CB76",
"c c #F3CE7F",
"v c #F8D574",
"b c #FADA74",
"n c #F6D47D",
"m c #FADC7B",
"M c #F3CF82",
"N c #F6D581",
"B c #FADD85",
"V c #F5D38B",
"C c #FADE8E",
"Z c #F5D693",
"A c #F7D891",
"S c #F9DE92",
"D c #F7DC9E",
"F c #F9DF9B",
"G c #FAE08E",
"H c #FAE091",
"J c #FAE198",
"K c #F7DBA2",
"L c #F8DEA0",
"P c #FAE2A3",
"I c #FAE4AD",
"U c #FAE6B6",
"Y c #FBE8B6",
"T c #FAE7B9",
"R c #FBE9BC",
"E c #F9E7C1",
"W c #FAE9C4",
"Q c #FAECCB",
"! c #FBEFD5",
"~ c #FCF2DC",
"^ c #FDF5E5",
"/ c None",
/* pixels */
"////////////////////////////////////////////////////////////////////////////////////",
"/////  o+++++++@#$$$@@@@-@@@@@@$@@@@@@@@@@@@+@@@@+@@@@+@@@@@@@@@@@-@@------@. //////",
"///  oxTEEWWWWWWWWQQWWQQQQWQQWQQQQWWWWQQQWWWWWQWQWWWWWWWWWWQWQWQQQQQQQ!QQ!!QK6./////",
"/// .n^^^^^^^^^^^^^~^^^^^^^^^^^^^^^^^^^^^^^^^^^^^^^^^^^^^^^^^^^^^^^^^^^^^^^^^!6 ////",
"//  $W~~~~~~^~~~~~~~~~~~~~~~~~~~~~~~^~~~~~~~~^~~~~!~~~^~~~~~^~~~~~~~~~~~~~~~~^M ////",
"//  9!!!!!!!!!!!!~!!!!!~!!!!!!!!!!!!!!!!!!!!!!!!!!!!!!!!!!!!!!!!!!!!!!!!!!!!!!V ////",
"//. aQQQQQQQQQWQQQQQQQQQQQQQQQQQQQQQQQQQQQQQQQQQ!QQ!!QQQQQ!QQ!QQQ!QQ!Q!QQ!Q!!!Z.////",
"//  6RWRRRWRRWWWWRWWRRWRWWWRWWWWWWWWWWWEWWWWWWWWEEWWEEWWWEWWWWWWWWWWWWWWWWWWWWV.////",
"//  qYYYYYYYYYYYYYYYYYYRUYYUUUUUYYYYYYYYTTTYYYRRTTYYRRYYTTRRTTTTYTTTTTTTTIDVhr$ ////",
"// .qPIIIIIIIIIIIIIIIIPYIIIIIIIIIIIIIIIIIIKUIIUKIIUIUKUIIIIIIIUIUIUPKZngr-#OXoo ////",
"//..,kSPPPPPPPJPPPPJPJPPPPPPPPPPPPPPPPPPPPPPPPLPLPPPLPPPKPPPPPDZmhi3,&+OoOOOOOO ////",
"// X*,3dmGJJJJJJJJJGJJJJJJJJJJHGFJJFJJFJJFJFJJFFFFJFFFFSFVNksr>*%%%%%%%%&#####O ////",
"// X11113ejmGGGGGGGGGGGGGGGGGGGGCCSCCCSCSSCCSCCCCCBnzfsw1*1*&*******%%%%&&&*%%O ////",
"// X34443444udzmmGGGmGmGGmmGGGmGBBBBBBBBBBNmbvjsptw111111111,,1****111111**1*1* ////",
"// X344u4444444uidzzbbmmmmmmmmmmbbbbljjfdyte3313111313111111111111111111111111&.////",
"// Xuuuuuuuuuuuuu44uuuidddddddiiiyueee4444443444443334433434413341441131311122*.////",
"// Xeiiiiiiiiiiiiuiiuuuuuuuuuwuuuuuwuwut4uww4wuwe44e44w44w4343w4433333442333331.////",
"// oeiiiyyiiyitiyyitttuttttwwuttwwwtwwwwwwwww4wtewwww43wq3w3q3q23qq3q22q2q22221.////",
"// Xttytttttttttttttttttttqqwtwqwwtwww0wwwwwwqw0qqq2qqw00q30q0q2q22q22022020201.////",
"// owqqrq0q60qqrq00q0qq00rq60q0r00q000r0000q0000qq77000000002000>q5550505552>>2.////",
"// oq5555555555555550555555555555555555555555555>>>5555555555555555555:55>>>:>,.////",
"// oq:::5;=5::::::::::::55=5=5=55;;5::5;::::5;;;:::::;:::::;::::::::;::5:::::;>.////",
"///.2========================================================================:, ////",
"///.o2:==================================================================;;;:2X ////",
"//// X&1,<,112<1211212<112<21112>11111<11<11<,11<1<1<1<1>111112<111212222221%X./////",
"////////////////////////////////////////////////////////////////////////////////////"
};
