/* XPM */
static char *result[] = {
/* columns rows colors chars-per-pixel */
"64 64 128 2 ",
"   c #2D3746",
".  c #2D3847",
"X  c #324257",
"o  c #3A5470",
"O  c #3F6284",
"+  c #436A90",
"@  c #47739E",
"#  c #4B7BA9",
"$  c #4F84B7",
"%  c #528ABF",
"&  c #3C82DC",
"*  c #3D82DC",
"=  c #3D83DC",
"-  c #3D82DD",
";  c #3C83DD",
":  c #3D84DD",
">  c #3E85DD",
",  c #3D85DE",
"<  c #3E85DE",
"1  c #3F85DE",
"2  c #5390C7",
"3  c #5595CF",
"4  c #4086DD",
"5  c #4087DD",
"6  c #4086DE",
"7  c #4087DE",
"8  c #4087DF",
"9  c #4188DE",
"0  c #4189DF",
"q  c #4288DF",
"w  c #4289DF",
"e  c #4389DF",
"r  c #438ADF",
"t  c #448ADF",
"y  c #448BDF",
"u  c #4288E0",
"i  c #4289E0",
"p  c #428AE0",
"a  c #438BE0",
"s  c #438BE1",
"d  c #448AE0",
"f  c #458BE0",
"g  c #448CE0",
"h  c #458DE0",
"j  c #458CE1",
"k  c #458DE1",
"l  c #468CE1",
"z  c #478DE1",
"x  c #458EE1",
"c  c #478EE0",
"v  c #478DE2",
"b  c #468EE2",
"n  c #488EE0",
"m  c #488EE1",
"M  c #488EE2",
"N  c #488FE2",
"B  c #488EE3",
"V  c #488FE3",
"C  c #4A8FE3",
"Z  c #4790E1",
"A  c #4990E2",
"S  c #4890E3",
"D  c #4990E3",
"F  c #4A91E2",
"G  c #4A91E3",
"H  c #4B91E3",
"J  c #4992E2",
"K  c #4892E3",
"L  c #4992E3",
"P  c #4A92E2",
"I  c #4A93E2",
"U  c #4A92E3",
"Y  c #4B93E3",
"T  c #4B94E2",
"R  c #4992E5",
"E  c #4B93E5",
"W  c #4B94E5",
"Q  c #5099E7",
"!  c #539BE8",
"~  c #5AA4EB",
"^  c #5BA7EC",
"/  c #5FA8EB",
"(  c #5EA9ED",
")  c #5FA9ED",
"_  c #5EAAED",
"`  c #5FAAED",
"'  c #5FA9EE",
"]  c #5EAAEE",
"[  c #5FAAEE",
"{  c #5FABEE",
"}  c #5FAAEF",
"|  c #60AAEE",
" . c #60ABEE",
".. c #61ACEF",
"X. c #61ADEF",
"o. c #62ADEF",
"O. c #63AEF0",
"+. c #63AFF0",
"@. c #64AFF0",
"#. c #64B0F0",
"$. c #65B2F1",
"%. c #67B3F2",
"&. c #69B5F3",
"*. c #6CB7F3",
"=. c #6BB7F4",
"-. c #6BB8F4",
";. c #6EBBF5",
":. c #70BCF5",
">. c #72C0F7",
",. c #75C2F8",
"<. c #77C3F8",
"1. c #77C5F9",
"2. c #7AC8FB",
"3. c #7BCAFC",
"4. c #7CCCFC",
"5. c #7DCCFC",
"6. c #7ECDFD",
"7. c #7DCFFD",
"8. c #7ECEFD",
"9. c #80D0FE",
"0. c #81D1FF",
"q. c #82D1FF",
"w. c #83D1FF",
"e. c #81D2FF",
"r. c #82D2FF",
"t. c #83D2FF",
"y. c #82D3FF",
"u. c None",
/* pixels */
"u.u.u.u.u.u.u.u.u.u.u.u.u.u.u.u.u.u.u.u.u.u.u.u.u.u.u.u.u.u.u.u.u.u.' } [ [ [ [ [ [ [ u.u.u.u.u.u.u.u.u.u.u.u.u.u.u.u.u.u.u.u.u.",
"u.u.u.u.u.u.u.u.u.u.u.u.u.u.u.u.u.u.u.u.u.u.u.u.u.u.u.u.u.u.u.| [ [ [ [ [ [ [ [ [ [ [ [ [ ] u.u.u.u.u.u.u.u.u.u.u.u.u.u.u.u.u.u.",
"u.u.u.u.u.u.u.u.u.u.u.u.y.w.r.r.r.r.r.r.y.u.u.u.u.u.u.u.] [ [ [ [ [ [ [ [ [ [ [ [ [ [ [ [ [ [ [ u.u.u.u.u.u.u.u.u.u.u.u.u.u.u.u.",
"u.u.u.u.u.u.u.u.u.e.r.r.r.r.r.r.r.r.r.r.r.r.q.u.u.u.{ [ [ [ [ [ [ [ [ [ [ [ [ [ [ [ [ [ [ [ [ [ [ u.u.u.u.u.u.u.u.u.u.u.u.u.u.u.",
"u.u.u.u.u.u.u.u.r.r.r.r.r.r.r.r.r.r.r.r.r.r.r.e.>. .[ [ [ [ [ [ [ [ [ [ [ [ [ [ [ [ [ [ [ [ [ [ [ [ ) u.u.u.u.u.u.u.u.u.u.u.u.u.",
"u.u.u.u.u.u.r.r.r.r.r.r.r.r.r.r.r.r.r.r.r.r.9.=.[ [ [ [ [ [ [ [ [ [ [ [ [ [ [ [ [ [ [ [ [ [ [ [ [ [ [ u.u.u.u.u.u.u.u.u.u.u.u.u.",
"u.u.u.u.u.r.r.r.r.r.r.r.r.r.r.r.r.r.r.r.r.5.@.[ [ [ [ [ [ [ [ [ [ [ [ [ [ [ [ [ [ [ [ [ [ [ [ [ [ [ [ [ u.u.u.u.u.u.u.u.u.u.u.u.",
"u.u.u.u.u.r.r.r.r.r.r.r.r.r.r.r.r.r.r.r.3.o.[ [ [ [ [ [ [ [ [ [ [ [ [ [ [ [ [ [ [ [ [ [ [ [ [ [ [ [ [ [ [ u.u.u.u.u.u.u.u.u.u.u.",
"u.u.u.u.u.r.r.r.r.r.r.r.r.r.r.r.r.r.r.4.X.[ [ [ [ [ [ [ [ [ [ [ [ [ [ [ [ [ [ [ [ [ [ [ [ [ [ [ [ [ [ [ [ { u.u.u.u.u.u.u.u.u.u.",
"u.u.u.u.u.u.r.r.r.r.r.r.r.r.r.r.r.r.6.O.[ [ [ [ [ [ [ [ [ [ [ [ [ [ [ [ [ [ [ [ [ [ [ [ [ [ [ [ [ [ [ [ [ [ u.u.u.u.u.u.u.u.u.u.",
"u.u.u.u.u.u.u.u.u.t.r.r.r.r.r.r.r.0.%.[ [ [ [ [ [ [ [ [ [ [ [ [ [ [ [ [ [ [ [ [ [ [ [ [ [ [ [ [ [ [ [ [ [ [ u.u.u.u.u.u.u.u.u.u.",
"u.u.u.u.u.u.u.u.u.u.u.r.r.r.r.r.r.;.[ [ [ [ [ [ [ [ [ [ [ [ [ [ [ [ [ [ [ [ [ [ [ [ [ [ [ [ [ [ [ [ [ [ [ [ [ u.u.u.u.u.u.u.u.u.",
"u.u.u.u.u.u.u.u.u.u.u.e.r.r.r.r.2.| [ [ [ [ [ [ [ [ [ [ [ [ [ [ [ [ [ [ [ [ [ [ [ [ [ + X O / [ [ [ [ [ [ [ [ u.u.u.u.u.u.u.u.u.",
"u.u.u.u.u.u.u.u.u.u.u.u.r.r.r.e.$.[ [ [ [ [ [ [ [ [ [ [ [ [ [ [ [ [ [ [ [ [ [ [ [ [ 2       $ [ [ [ [ [ [ [ [ u.u.u.u.u.u.u.u.u.",
"u.u.u.u.u.u.u.u.u.u.u.u.r.r.r.,.[ [ [ [ [ [ [ [ [ [ [ [ [ [ [ [ [ [ [ [ [ [ [ [ [ [ 3 .     % [ [ [ [ [ [ [ [ | u.u.u.u.u.u.u.u.",
"u.u.u.u.u.u.u.u.u.u.u.u.u.r.e.#.[ [ [ [ [ [ [ [ [ [ [ [ [ [ [ [ [ [ [ [ [ [ [ [ [ [ [ # o @ [ [ [ [ [ [ [ [ [ [ [ u.u.u.u.u.u.u.",
"u.u.u.u.u.u.u.u.u.u.u.u.u.r.1.[ [ [ [ [ [ [ [ [ [ [ [ [ [ [ [ [ [ [ [ [ [ [ [ [ [ [ [ [ [ [ [ [ [ [ [ [ [ [ [ [ [ [ u.u.u.u.u.u.",
"u.u.u.u.u.u.u.u.u.u.u.u.u.r.&.[ [ [ [ [ [ [ [ [ [ [ [ [ [ [ [ [ [ [ [ [ [ [ [ [ [ [ [ [ [ [ [ [ [ [ [ [ [ [ [ [ [ [ ` u.u.u.u.u.",
"u.u.u.u.u.u.u.u.u.u.u.u.u.8.| [ [ [ [ [ [ [ [ [ [ [ [ [ [ [ [ [ [ [ [ [ [ [ [ [ [ [ [ [ [ [ [ [ [ [ [ [ [ [ [ [ [ [ [ u.u.u.u.u.",
"u.u.u.u.u.u.u.u.u.u.u.u.u.,.[ [ [ [ [ [ [ [ [ [ [ [ [ [ [ [ [ [ [ [ [ [ [ [ [ [ [ [ [ [ [ [ [ [ [ [ [ [ [ [ [ [ [ [ [ u.u.u.u.u.",
"u.u.u.u.u.u.u.u.u.u.u.u.u.-.[ [ [ [ [ [ [ [ [ [ [ [ [ [ [ [ [ [ [ [ [ [ [ [ [ [ [ [ [ [ [ [ [ [ [ [ [ [ [ [ [ [ [ [ [ u.u.u.u.u.",
"u.u.u.u.u.u.u.u.u.u.u.u.u.O.[ [ [ [ [ [ [ [ [ [ [ [ [ [ [ [ [ [ [ [ [ [ [ [ [ [ [ [ [ [ [ [ [ [ [ [ [ [ [ [ [ [ [ [ [ u.u.u.u.u.",
"u.u.u.u.u.u.u.u.u.u.u.u.u.[ [ [ [ [ [ [ [ [ [ [ [ [ [ [ [ [ [ [ [ [ [ [ [ [ [ [ [ [ [ [ [ [ [ [ [ [ [ [ [ [ [ [ [ [ } u.u.u.u.u.",
"u.u.u.u.u.u.u.u.u.u.u.u.<.[ [ [ [ [ [ [ [ [ [ [ [ [ [ [ [ [ [ [ [ [ [ [ [ [ [ [ [ [ [ [ [ [ [ [ [ [ [ [ [ [ [ [ [ [ u.u.u.u.u.u.",
"u.u.u.u.u.u.u.u.u.u.u.u.:.[ [ [ [ [ [ [ [ [ [ [ [ [ [ [ [ [ [ [ [ [ [ [ [ [ [ [ [ [ [ [ [ [ [ [ [ [ [ [ [ [ [ [ [ u.u.u.u.u.u.u.",
"u.u.u.u.u.u.u.u.u.u.u.u.*.~ ~ ~ ~ ~ ~ ~ ~ ~ ~ ~ ~ ~ ~ ~ ~ ~ ~ ~ ~ ~ ~ ~ ~ ~ ( +.+.+.+.+.+.+.+.+...[ [ [ [ [ _ u.u.u.u.u.u.u.u.u.",
"u.u.u.u.u.u.u.u.u.u.u.u.! & & & & & & & & & & & & & & & & & & & & & > c ^ 7.r.r.r.r.r.r.r.r.r.r.u.u.u.u.u.u.u.u.u.u.u.u.u.u.u.u.",
"u.u.u.u.u.u.u.u.u.u.u.u.Q & & & & & & & & & & & & & & & & & & & : N u.u.u.r.r.r.r.r.r.r.r.r.r.r.u.u.u.u.u.u.u.u.u.u.u.u.u.u.u.u.",
"u.u.u.u.u.u.u.u.u.u.u.u.E & & & & & & & & & & & & & & & & & & 5 u.u.u.u.u.r.r.r.r.r.r.r.r.r.r.r.u.u.u.u.u.u.u.u.u.u.u.u.u.u.u.u.",
"u.u.u.u.u.u.u.u.u.u.u.u.U & & & & & & & & & & & & & & & & & i u.u.u.u.u.u.r.r.r.r.r.r.r.r.r.r.q.u.u.u.u.u.u.u.u.u.u.u.u.u.u.u.u.",
"u.u.u.u.u.u.u.u.u.u.u.u.u.& & & & & & & & & & & & & & & & 8 u.u.u.u.u.u.u.r.r.r.r.r.r.r.r.r.r.u.u.u.u.u.u.u.u.u.u.u.u.u.u.u.u.u.",
"u.u.u.u.u.u.u.u.u.u.u.u.u.& & & & & & & & & & & & & & & & u.u.u.u.u.u.u.u.r.r.r.r.r.r.r.r.r.r.u.u.u.u.u.u.u.u.u.u.u.u.u.u.u.u.u.",
"u.u.u.u.u.u.u.u.u.u.u.u.u.7 & & & & & & & & & & & & & & y u.u.u.u.u.u.u.u.r.r.r.r.r.r.r.r.r.u.u.u.u.u.u.u.u.u.u.u.u.u.u.u.u.u.u.",
"u.u.u.u.u.u.u.u.u.u.u.u.u.h & & & & & & & & & & & & & & u.u.u.u.u.u.u.u.u.r.r.r.r.r.r.r.r.u.u.u.u.u.u.u.u.u.u.u.u.u.u.u.u.u.u.u.",
"u.u.u.u.u.u.u.u.u.u.u.u.u.F & & & & & & & & & & & & & > u.u.u.u.u.u.u.u.u.r.r.r.r.r.r.u.u.u.u.u.u.u.u.u.u.u.u.u.u.u.u.u.u.u.u.u.",
"u.u.u.u.u.u.u.u.u.u.u.u.u.u.= & & & & & & & & & & & & k u.u.u.u.u.u.u.u.u.r.r.r.y.u.u.u.u.u.u.u.u.u.u.u.u.u.u.u.u.u.u.u.u.u.u.u.",
"u.u.u.u.u.u.u.u.u.u.u.u.u.u.g & & & & & & & & & & & & V u.u.u.u.u.u.u.u.u.u.u.u.u.u.u.u.u.u.u.u.u.u.u.u.u.u.u.u.u.u.u.u.u.u.u.u.",
"u.u.u.u.u.u.u.u.u.u.u.u.u.u.u.& & & & & & & & & & & & C u.u.u.u.u.u.u.u.u.u.u.u.u.u.u.u.u.u.u.u.u.u.u.u.u.u.u.u.u.u.u.u.u.u.u.u.",
"u.u.u.u.u.u.u.u.u.u.u.u.u.u.u.w & & & & & & & & & & & C u.u.u.u.u.u.u.u.u.u.u.u.u.u.u.u.u.u.u.u.u.u.u.u.u.u.u.u.u.u.u.u.u.u.u.u.",
"u.u.u.u.u.u.u.u.u.u.u.u.u.u.u.T & & & & & & & & & & & B u.u.u.u.u.u.u.u.u.u.u.u.u.u.u.u.u.u.u.u.u.u.u.u.u.u.u.u.u.u.u.u.u.u.u.u.",
"u.u.u.u.u.u.u.u.u.u.u.u.u.u.u.u.a & & & & & & & & & & l u.u.u.u.u.u.u.u.u.u.u.u.u.u.u.u.u.u.u.G j d q q i M u.u.u.u.u.u.u.u.u.u.",
"u.u.u.u.u.u.u.u.u.u.u.u.u.u.u.u.u.- & & & & & & & & & 1 u.u.u.u.u.u.u.u.u.u.u.u.u.u.u.u.u.f * & & & & & & & H u.u.u.u.u.u.u.u.u.",
"u.u.u.u.u.u.u.u.u.u.u.u.u.u.u.u.u.D & & & & & & & & & & u.u.u.u.u.u.u.u.u.u.u.u.u.u.u.S ; & & & & & & & & & G u.u.u.u.u.u.u.u.u.",
"u.u.u.u.u.u.u.u.u.u.u.u.u.u.u.u.u.u.s & & & & & & & & & d u.u.u.u.u.u.u.u.u.u.u.u.u.j & & & & & & & & & & & D u.u.u.u.u.u.u.u.u.",
"u.u.u.u.u.u.u.u.u.u.u.u.u.u.u.u.u.u.u.9 & & & & & & & & & u.u.u.u.u.u.u.u.u.u.u.u.x & & & & & & & & & & & & L u.u.u.u.u.u.u.u.u.",
"u.u.u.u.u.u.u.u.u.u.u.u.u.u.u.u.u.u.u.u.6 & & & & & & & & > u.u.u.u.u.u.u.u.u.u.Y & & & & & & & & & & & & & H u.u.u.u.u.u.u.u.u.",
"u.u.u.u.u.u.u.u.u.u.u.u.u.u.u.u.u.u.u.u.u.5 & & & & & & & & i u.u.u.u.u.u.u.u.u.< & & & & & & & & & & & & * u.u.u.u.u.u.u.u.u.u.",
"u.u.u.u.u.u.u.u.u.u.u.u.u.u.u.u.u.u.u.u.u.u.q & & & & & & & & 5 u.u.u.u.u.u.u.A & & & & & & & & & & & & & d u.u.u.u.u.u.u.u.u.u.",
"u.u.u.u.u.u.u.u.u.u.u.u.u.u.u.u.u.u.u.u.u.u.u.b & & & & & & & & = n u.u.u.u.u.u & & & & & & & & & & & & & H u.u.u.u.u.u.u.u.u.u.",
"u.u.u.u.u.u.u.u.u.u.u.u.u.u.u.u.u.u.u.u.u.u.u.u.W 7 & & & & & & & & > z u.u.u.; & & & & & & & & & & & & g u.u.u.u.u.u.u.u.u.u.u.",
"u.u.u.u.u.u.u.u.u.u.u.u.u.u.u.u.u.u.u.u.u.u.u.u.u.u.Z , & & & & & & & & & & , & & & & & & & & & & & & 9 u.u.u.u.u.u.u.u.u.u.u.u.",
"u.u.u.u.u.u.u.u.u.u.u.u.u.u.u.u.u.u.u.u.u.u.u.u.u.u.u.u.m 1 & & & & & & & & & & & & & & & & & & & & w u.u.u.u.u.u.u.u.u.u.u.u.u.",
"u.u.u.u.u.u.u.u.u.u.u.u.u.u.u.u.u.u.u.u.u.u.u.u.u.u.u.u.u.u.R h < & & & & & & & & & & & & & & & & & p u.u.u.u.u.u.u.u.u.u.u.u.u.",
"u.u.u.u.u.u.u.u.u.u.u.u.u.u.u.u.u.u.u.u.u.u.u.u.u.u.u.u.u.u.u.u.u.u.J c d r 4 & & & & & & & & & & & & w u.u.u.u.u.u.u.u.u.u.u.u.",
"u.u.u.u.u.u.u.u.u.u.u.u.u.u.u.u.u.u.u.u.u.u.u.u.u.u.u.u.u.u.u.u.u.u.u.u.u.u.u.& & & & & & & & & & & & & k u.u.u.u.u.u.u.u.u.u.u.",
"u.u.u.u.u.u.u.u.u.u.u.u.u.u.u.u.u.u.u.u.u.u.u.u.u.u.u.u.u.u.u.u.u.u.u.u.u.u.u.0 & & & & & & & & & & & & & u.u.u.u.u.u.u.u.u.u.u.",
"u.u.u.u.u.u.u.u.u.u.u.u.u.u.u.u.u.u.u.u.u.u.u.u.u.u.u.u.u.u.u.u.u.u.u.u.u.u.u.G & & & & & & & & & & & & & g u.u.u.u.u.u.u.u.u.u.",
"u.u.u.u.u.u.u.u.u.u.u.u.u.u.u.u.u.u.u.u.u.u.u.u.u.u.u.u.u.u.u.u.u.u.u.u.u.u.u.u.> & & & & & & & & & & & & ; u.u.u.u.u.u.u.u.u.u.",
"u.u.u.u.u.u.u.u.u.u.u.u.u.u.u.u.u.u.u.u.u.u.u.u.u.u.u.u.u.u.u.u.u.u.u.u.u.u.u.u.A & & & & & & & & & & & & & I u.u.u.u.u.u.u.u.u.",
"u.u.u.u.u.u.u.u.u.u.u.u.u.u.u.u.u.u.u.u.u.u.u.u.u.u.u.u.u.u.u.u.u.u.u.u.u.u.u.u.u.t & & & & & & & & & & & & K u.u.u.u.u.u.u.u.u.",
"u.u.u.u.u.u.u.u.u.u.u.u.u.u.u.u.u.u.u.u.u.u.u.u.u.u.u.u.u.u.u.u.u.u.u.u.u.u.u.u.u.u.a & & & & & & & & & & & G u.u.u.u.u.u.u.u.u.",
"u.u.u.u.u.u.u.u.u.u.u.u.u.u.u.u.u.u.u.u.u.u.u.u.u.u.u.u.u.u.u.u.u.u.u.u.u.u.u.u.u.u.u.v & & & & & & & & & & D u.u.u.u.u.u.u.u.u.",
"u.u.u.u.u.u.u.u.u.u.u.u.u.u.u.u.u.u.u.u.u.u.u.u.u.u.u.u.u.u.u.u.u.u.u.u.u.u.u.u.u.u.u.u.P 0 & & & & & & & & G u.u.u.u.u.u.u.u.u.",
"u.u.u.u.u.u.u.u.u.u.u.u.u.u.u.u.u.u.u.u.u.u.u.u.u.u.u.u.u.u.u.u.u.u.u.u.u.u.u.u.u.u.u.u.u.u.u.N e > ; & ; g u.u.u.u.u.u.u.u.u.u."
};
