/* XPM */
static char *result[] = {
/* columns rows colors chars-per-pixel */
"64 64 222 2 ",
"   c #7C4535",
".  c #36464E",
"X  c #394B54",
"o  c #384C57",
"O  c #3B515E",
"+  c #3C5464",
"@  c #3E596B",
"#  c #3F5C70",
"$  c #48555B",
"%  c #444E56",
"&  c #685354",
"*  c #4C5962",
"=  c #415E73",
"-  c #545F64",
";  c #59646A",
":  c #42637A",
">  c #5F6B71",
",  c #666666",
"<  c #66696B",
"1  c #696E71",
"2  c #7E7E7E",
"3  c #747576",
"4  c #6F6E72",
"5  c #AE4526",
"6  c #D94518",
"7  c #D44C24",
"8  c #C75536",
"9  c #CD512C",
"0  c #B95F4D",
"q  c #B86755",
"w  c #AD6C68",
"e  c #A87873",
"r  c #C35C45",
"t  c #C16245",
"y  c #7CB143",
"u  c #7BB14D",
"i  c #7BAB55",
"p  c #7F916E",
"a  c #75B177",
"s  c #FF9F00",
"d  c #FFA306",
"f  c #FFAC13",
"g  c #FDBE2D",
"h  c #E8B83A",
"j  c #F4BF33",
"k  c #DFB23E",
"l  c #FFC538",
"z  c #B59C5B",
"x  c #AF985F",
"c  c #82B44B",
"v  c #8BB55B",
"b  c #88857A",
"n  c #918F75",
"m  c #A69465",
"M  c #A68976",
"N  c #BBB477",
"B  c #BDA056",
"V  c #D2AB47",
"C  c #C4A352",
"Z  c #D3B250",
"A  c #E4BD4C",
"S  c #C5BC74",
"D  c #CEBB65",
"F  c #98C172",
"G  c #A7CD7A",
"H  c #ADD37F",
"J  c #92C05D",
"K  c #FEDD5B",
"L  c #FDD755",
"P  c #F9CC4A",
"I  c #D7C876",
"U  c #F9D969",
"Y  c #E9D36B",
"T  c #FEEA6E",
"R  c #FEE366",
"E  c #FFEE75",
"W  c #F6EC7D",
"Q  c #FFE05F",
"!  c #466A84",
"~  c #4B7799",
"^  c #48708F",
"/  c #4D7DA3",
"(  c #577EA1",
")  c #6B7780",
"_  c #9A7E8A",
"`  c #A946BB",
"'  c #A94BBD",
"]  c #E55385",
"[  c #EC5D8E",
"{  c #E85688",
"}  c #ED608F",
"|  c #EF6291",
" . c #E36999",
".. c #CA78AC",
"X. c #CD75AA",
"o. c #A252C1",
"O. c #9765CB",
"+. c #8A78D5",
"@. c #B871CC",
"#. c #995FC9",
"$. c #26A599",
"%. c #29A69C",
"&. c #2DA89C",
"*. c #34A79D",
"=. c #2DA7A4",
"-. c #37AAA8",
";. c #39A9B6",
":. c #7E8286",
">. c #749597",
",. c #54A099",
"<. c #72B390",
"1. c #5083AC",
"2. c #538CB8",
"3. c #4F81A9",
"4. c #6C8FAD",
"5. c #48B3A9",
"6. c #53B7AE",
"7. c #5DBBB2",
"8. c #57B9B0",
"9. c #4AAEBA",
"0. c #63BEB5",
"q. c #6FAFA8",
"w. c #6AC0B8",
"e. c #75C5BE",
"r. c #5895C7",
"t. c #5C9ED3",
"y. c #7D93D3",
"u. c #46ACC9",
"i. c #4DAED3",
"p. c #5AA6DB",
"a. c #51A9C6",
"s. c #79B6D8",
"d. c #71ACD1",
"f. c #7893E4",
"g. c #7C8EE1",
"h. c #5FA7E3",
"j. c #5CB1EA",
"k. c #62ADEC",
"l. c #67AAE7",
"z. c #7BABEE",
"x. c #74A7EA",
"c. c #6BB5ED",
"v. c #68B3E9",
"b. c #75B6E2",
"n. c #6BADF2",
"m. c #74AEF0",
"M. c #78ADF0",
"N. c #64B3F5",
"B. c #6AB2F3",
"V. c #6EB8F6",
"C. c #77BDF6",
"Z. c #808080",
"A. c #878A8B",
"S. c #879998",
"D. c #969A9D",
"F. c #999999",
"G. c #979494",
"H. c #968E96",
"J. c #A28C86",
"K. c #B7BA86",
"L. c #ABBA9A",
"P. c #8E9AA9",
"I. c #B683BA",
"U. c #94B8B7",
"Y. c #8EAFB7",
"T. c #A8A9AA",
"R. c #B6B7B9",
"E. c #A2BAA8",
"W. c #8CA09D",
"Q. c #C3BF82",
"!. c #9BCB9C",
"~. c #9FC38A",
"^. c #ABD282",
"/. c #A9CB8C",
"(. c #8AC4B8",
"). c #98CAA0",
"_. c #B6D3B2",
"`. c #CCD090",
"'. c #ECE684",
"]. c #C6D9A4",
"[. c #DEE292",
"{. c #8E91D6",
"}. c #A88BC4",
"|. c #BC97DC",
" X c #B499DE",
".X c #A989CF",
"XX c #86B7C6",
"oX c #81B9D5",
"OX c #A89DE2",
"+X c #8DA6EA",
"@X c #84A8EC",
"#X c #9BA1E5",
"$X c #93A4E7",
"%X c #84BBE9",
"&X c #A0A0E4",
"*X c #A5ACD5",
"=X c #C494D9",
"-X c #CA92D8",
";X c #C788D3",
":X c #D7AADF",
">X c #85C8C5",
",X c #95C5CB",
"<X c #8FC7D1",
"1X c #A4C7CF",
"2X c #8AC6F8",
"3X c #99CDF8",
"4X c #A6D3F9",
"5X c #B5DBFA",
"6X c #BFE0FB",
"7X c #CCCCCC",
"8X c #C2C4C5",
"9X c #C6CCD0",
"0X c #E7CFEC",
"qX c #C7E3FC",
"wX c #D5EBFC",
"eX c #F1E2F3",
"rX c #EAF4FE",
"tX c #FEFEFF",
"yX c #F5FAFE",
"uX c #EFE0F2",
"iX c #F8E9D0",
"pX c None",
/* pixels */
"pXpXpXpXpXpXpXpXpXpXpXpXpXpXpXpXpXpXpXpXpXpXpXpXpXpXpXN.N.N.N.N.N.N.N.N.N.pXpXpXpXpXpXpXpXpXpXpXpXpXpXpXpXpXpXpXpXpXpXpXpXpXpXpX",
"pXpXpXpXpXpXpXpXpXpXpXpXpXpXpXpXpXpXpXpXpXpXN.N.N.N.N.N.N.N.N.N.N.N.N.N.N.N.N.N.N.N.pXpXpXpXpXpXpXpXpXpXpXpXpXpXpXpXpXpXpXpXpXpX",
"pXpXpXpXpXpXpXpXpXpXpXpXpXpXpXpXpXpXpXpXN.N.N.N.N.N.N.N.N.N.N.N.{.N.N.N.N.N.N.N.N.N.N.N.pXpXpXpXpXpXpXpXpXpXpXpXpXpXpXpXpXpXpXpX",
"pXpXpXpXpXpXpXpXpXpXpXpXpXpXpXpXpXpXN.N.N.N.N.N.N.N.N.N.N.N.v... .N.N.N.N.N.N.N.N.N.N.N.N.N.pXpXpXpXpXpXpXpXpXpXpXpXpXpXpXpXpXpX",
"pXpXpXpXpXpXpXpXpXpXpXpXpXpXpXpXN.N.N.N.N.N.N.N.N.N.N.N.N.N.I.} | n.N.N.N.N.N.N.N.N.N.N.N.N.N.N.pXpXpXpXpXpXpXpXpXpXpXpXpXpXpXpX",
"pXpXpXpXpXpXpXpXpXpXpXpXpXpXN.N.N.N.N.N.N.N.N.B. .X.I..Xx.}.| { | c.N.N.N.N.N.N.N.N.N.N.N.N.N.N.N.N.pXpXpXpXpXpXpXpXpXpXpXpXpXpX",
"pXpXpXpXpXpXpXpXpXpXpXpXpXN.N.N.N.N.N.N.N.N.N.N.I.| [ | | | } ] | n.B.N.N.N.N.N.N.N.N.N.N.N.N.N.N.N.N.pXpXpXpXpXpXpXpXpXpXpXpXpX",
"pXpXpXpXpXpXpXpXpXpXpXpXN.N.N.N.N.N.N.N.N.N.N.N.n. .{ ] } | ] | | }.m.N.N.N.N.N.N.N.N.N.N.N.N.N.N.N.N.N.pXpXpXpXpXpXpXpXpXpXpXpX",
"pXpXpXpXpXpXpXpXpXpXN.N.N.N.N.N.N.N.N.N.N.N.N.N.N.{.| | [ } } | | | | ..@X4XwXV.N.N.N.N.N.N.N.N.N.N.N.N.N.N.pXpXpXpXpXpXpXpXpXpX",
"pXpXpXpXpXpXpXpXpXN.N.N.N.N.N.N.N.N.N.N.N.N.N.N.N.N. .| | | | } ] ] { } ..rXtX2XN.N.N.N.N.N.N.N.N.N.N.N.N.N.N.pXpXpXpXpXpXpXpXpX",
"pXpXpXpXpXpXpXpXN.N.N.N.N.N.N.N.N.N.N.V.qX4XN.N.N.I.| } ] [ } | | X.I.x.N.C.3XN.N.N.N.N.f.g.{.f.N.N.N.N.N.N.N.N.pXpXpXpXpXpXpXpX",
"pXpXpXpXpXpXpXpXN.N.N.N.N.N.N.N.N.N.N.2XtXrXN.N.}.| ] ] | | ] } I.N.N.N.N.N.N.N.N.N.+.o.` ` o.` O.n.N.N.N.N.N.N.pXpXpXpXpXpXpXpX",
"pXpXpXpXpXpXpXN.N.N.N.N.N.N.N.N.N.N.N.N.3X2XN.N.I.....I.}. .} ] I.N.N.N.N.N.N.N.f.o.` ` ` ` ` ` o.O.N.N.N.N.N.N.N.pXpXpXpXpXpXpX",
"pXpXpXpXpXpXN.N.N.N.N.N.N.N.N.N.N.N.N.N.N.N.N.N.N.N.N.N.N.{.| { I.N.N.N.N.N.N.g.` ` ` ` ` ` ` ` ` ` n.N.N.N.N.N.V.=XpXpXpXpXpXpX",
"pXpXpXpXpXN.N.N.N.N.N.N.N.N.N.N.N.N.N.N.N.N.N.N.N.N.N.N.N.N...} I.N.N.N.N.N.c.` ` @.' ` ` ` ` ` ` ` +.g.n.N.N.N.#XOXN.pXpXpXpXpX",
"pXpXpXpXpXN.N.N.N.N.N.N.N.N.N.B.R.K./.XXN.N.N.N.N.N.N.N.N.N.N.X.{.N.N.N.N.N.{.` ;XeX:X' ` ` ` ` ` ` ` ` o.N.N.m.=Xm.N.pXpXpXpXpX",
"pXpXpXpXN.N.N.XXV.N.N.N.N.N.XXW E E E K Y Y.N.N.N.N.N.N.N.N.N.N.N.N.N.N.N.N.o.` 0XeXeX` ` ` ` ` ` ` ` ` #.n.n. X$XN.M.=XpXpXpXpX",
"pXpXpXpXN.N.N.L <XN.N.N.N.,XE T T E T E E L `.N.N.4XqXN.N.N.N.N.N.N.N.N.N.n.o.` eXeXeX` ` ` ` ` ` ` o.o.@X+X XOXN.N. X XpXpXpXpX",
"pXpXpXN.N.B.U.K _.N.N.N.<XW R T E R E E T E U E.N.rXtX2XN.N.N.N.N.N.N.N.N.N.o.o.uXeX0X` ` ` ` ` ` ` o.+XOXOX+XN.N.OX|.B.N.pXpXpX",
"pXpXpXN.N.B.U.U [.N.N.oXT K l P L E T T E E T I V.2X4XB.N.N.N.N.N.N.N.N.N.N.#.` :X0X@.` ` ` ` ` ` o.o.n.N.N.N.N.$X=XM.N.N.pXpXpX",
"pXpXN.N.N.N.s.L E A `.'.L d s s d g R E E E E L N.N.2X3XN.N.N.N.N.N.N.N.N.N.f.o.` ` ` ` ` ` ` o.` o.@.+XV.N.M.OX=XM.N.N.B.OXpXpX",
"pXpXN.N.N.N.N.P E f g R l s s s s d d L E E E R oXN.6XwXN.N.N.N.N.N.N.N.N.N.N.+.` ` ` ` ` ` ` #.g.x.OX-X-X=X-X XM.N.B.OX-X XpXpX",
"pXpXN.N.N.N.U.Q E A P T P d s s s s s d P E U U L.N.N.B.N.N.N.N.N.N.N.N.N.N.N.N.{.` ` ` ` ` o.z.n.N.N.B.+X$Xz.n.B.M.|. XM.N.pXpX",
"pXN.N.N.N.U.U W <XN.b.E L d s s s s d d d T iXM I N.5X3XN.N.N.N.N.N.N.N.N.N.N.n.+.` ` o.` o.O.=X$Xn.N.N.N.N.N.N.$X=X$XN.N.N.N.pX",
"pXN.N.N.N./.].%XN.N.N._.E f s s s l L L Q E R R T D B.N.N.N.N.N.N.N.N.N.N.N.N.N.N.g.#X#X.X+.n.@X=X|.+Xm.N.B.+X|. Xz.N.N.N.N.N.pX",
"pXN.N.N.N.N.B.B.N.N.V.c.'.l s s g E E E E E E E E `.N.N.N.N.N.N.N.N.N.N.N.N.N.N.N.N.k.|.M.=Xm.N.B.#X|.-X-X=XOXz.B.N.N.N.N.N.N.pX",
"pXN.N.N.N.N.N.N.N.N.N.N.b.'.g l T E E E E E E ].<XV.N.N.N.N.N.N.N.N.N.N.N.N.N.N.N.N.N.=Xm.@X=Xz.N.N.N.N.B.N.N.N.N.N.N.N.N.N.N.pX",
"pXN.N.N.N.N.N.N.N.N.N.N.N.c._.W E E E E E W ,XN.N.N.N.N.N.N.N.N.N.V.N.N.N.N.N.N.N.N.m.-XV.N.z.=XOXB.N.N.N.N.N.N.N.N.N.N.N.N.N.pX",
"N.N.N.N.N.N.N.N.N.N.N.N.N.N.N.N.<X_.].].1Xc.N.N.N.N.N.N.N.N.N.N.2XtX6XN.N.N.N.N.N.N.#X|.N.N.N.n.OX=X X#X$X#XOX X|.=X=X|.OXB.N.N.",
"N.N.N.N.N.N.i.j.N.N.j.;.N.N.N.N.N.N.N.N.N.B.N.N.N.N.N.N.N.N.N.N.2XtXqXN.N.k.h.N.N.N. X#XN.N.N.N.N.N.z.@X+X+X@Xm.B.N.N.N.B.@XB.N.",
"N.N.N.N.N.u.=.N.N.N.=.=.N.N.N.N.N.N.N.N.N.N.C.B.N.N.N.N.N.N.N.N.N.C.N.N.h.+ 2.N.N.N. X+XN.N.N.N.N.c.N.N.N.c.N.N.B.N.N.N.N.N.N.N.",
"N.N.N.N.u.$.;.N.N.i.&.%.N.N.N.N.N.N.N.N.N.4XtX6XN.N.N.N.N.N.N.N.N.N.N.N.# + k.N.N.N.m. XB.N.N.N.S s.N.N.B.(.N.N.N.v.N.N.N.N.N.N.",
"N.N.N.=.-.%.-.N.N.;.-.$.u.N.N.N.N.N.N.N.N.3XtX4XN.N.N.N.N.N.N.N.N.N.N.1.. r.h.~ N.N.N.c.@XN.N.E.N Y.c.N.(.(.N.N.v.<.N.N.N.N.N.N.",
"N.N.N.&.8.$.;.N.N.;.7.$.=.N.N.N.N.N.N.k.N.N.N.N.N.N.N.N.N.N.wXyXC.N.k.O ^ N.~ . j.N.N.N.N.N.N.D b.A s.c.H e.N.N.<.q.N.N.N.N.N.N.",
"N.N.N.;.w.&.N.N.N.9.0.$.u.N.N.N.;.=.-.;.;.N.N.N.N.N.N.N.N.N.rXyXC.N.2.+ k.j.+ : N.N.N.N.N.N.b.E.K.U.N.>XH ).N.N.a q.N.N.N.N.N.N.",
"N.N.N.u.w.;.N.N.j.-.7.;.N.N.N.u.$.-.$.;.j.N.N.N.N.N.N.N.N.N.B.B.N.N.! 2.N.^ + l.N.N.B.N.Z oXU.S Y.N.N.(.H H b.N.y a N.N.N.N.N.N.",
"pXN.N.-.e.&.j.N.;.5.7.;.N.N.i.5.7.%.=.k.N.N.N.N.N.N.N.N.N.N.h.n.N.N.+ N.! + h.N.N.U.U.D g s.L.N N.N.v.>X^.^./.v.i y 0.N.N.N.N.pX",
"pXN.i.$.>X$.j.N.;.6.w.$.;.=.8.0.;.j.v.N.N.N.N.N.N.N.N.N.N.r.. r.N.h.@ / # k.N.N.N.Z c.U.j D K.A Y.c.j.v.).H H !.<.y y w.N.N.N.pX",
"pXN.i.$.e.-.N.N.u.5.w.=.-.8.e.$.j.N.q q N.N.N.N.N.N.N.2.k.= . r.N.r.@ @ h.N.N.N.N.j U.N.N L.D oXXXXXN.d.v.!.H H /.u y c v.N.c.H ",
"pXN.N.u.7.6.i.V.;.5.0.i.9.<X-.p.n.r e w N.N.N.N.k.= r.! = O . p.k.2.. / N.N.N.N.s.A s.c.oXN /.U.XXK.N.q.v.v.!.H H H y y <.V.!.H ",
"pXN.N.N.9.e.$.u.$.6.0.;.>X5.i.B.r 6 0 k.N.N.N.n.( X h.h.o . . ! 1.2.. ~ 3.k.N.N.XXh A s.N D S.G.l z :.>.u 4.d.).H H G y u (.H pX",
"pXpXN.N.-.>X%.i.$.6.8.*.>X$.9.N.x.7 8 w N._ N.q & ! l.N.k.@ . . r.1.. o ~ k.p.B.N.s.A >.C B B C Z Z.Z.) c u i p ~.H H c F H ^.pX",
"pXpXN.N.-.w.5.d.9.7.5.w.-.-.q N.H.w 6 P.n.0 w 7 % o ~ N.N.r.. o k.~ + k.c.3.2.N.d.:.C n h C n m V z n _ _ i y y u G ^.J ^.^.pXpX",
"pXpXY.P.S.*.w.,.S.w.&.e.*.P.6 w 7 l.w 0 _ 0 6 q % # k.N.N.N.! ! N.@ 1.h.l.3.r.4.) 2 m z z x b V h m Z.Z.) 3 p p y J H G ^.>XpXpX",
"pXpXD.F.F.q.8.*.&.7.&.7.,.F.q 6 6 w w 6 y.6 H._ , ! k.k.N.N.r.# r.+ k.2./ t.; 1 _ 2 n V b C k C b ) _ ) Z.Z.Z.Z.p v H G b pXpXpX",
"pXpXpXF.F.>.$.6.$.5.-.&.,.M 7 q G.7 7 6 9 9 0 5 # . t.O N.h.r.# # p.N.r.+ ) . ; :.2 m C b k m 2 :.p Z.Z.Z.Z.Z.Z.) n F A.:.pXpXpX",
"pXpXpXD.F.F.,.*.$.=.&.$.D.F.J.F.M M H.6 6 7 _ 4.o 5 * O N./ : o t.k./ k.. . * 2 2 _ n V V p ) _ Z.Z.Z.Z.Z.Z.) _ A.Z.Z.Z.:.pXpXpX",
"pXpXpXpXF.F.F.S.>.<.>.>.F.F.F.F.e q 8 6 6 6 9 _ e 6   / N.h.. 2.N.k.o 4.$ - ) _ p ) b g x e ) A.Z.Z.Z.Z.Z.Z.Z.) p _ Z.Z.pXpXpXpX",
"pXpXpXpXD.F.F.F.F.F.F.F.F.F.F.F.J.9 9 6 6 8 7 6 6 8 & 1.N.N.@ ~ O + 3.$ % ; :.e Z.Z._ n Z.Z.Z.Z.Z.Z.Z.Z.Z.Z.Z.Z.Z.Z.e :.pXpXpXpX",
"pXpXpXpXpXD.F.F.F.F.F.F.F.F.F.F.F.t 6 6 6 J.n.l.k.l.4 ! N.2.. . : t.d., . > 3 * 2 ) 2 Z.Z.Z.Z.Z.Z.Z.Z.Z.Z.Z.Z.Z.Z.Z.A.pXpXpXpXpX",
"pXpXpXpXpXpXF.F.F.F.F.F.F.F.F.F.F.F.M q 5 G.XXN.N.N.r.* k.: = t.N.N.4.4 . 1 $ ; b ) Z.Z.Z.Z.Z.Z.p _ Z.Z.Z.Z.Z.Z.Z.Z.pXpXpXpXpXpX",
"pXpXpXpXpXpXpXF.F.F.F.F.F.F.F.F.F.F.F.F.T.D.D.N.N.N.N.+ l.X l.h.! N.>.$ . X * Z.Z.Z.Z.Z.Z.Z.Z.Z.) b Z.Z.Z.Z.Z.) Z.pXpXpXpXpXpXpX",
"pXpXpXpXpXpXpXD.F.F.F.F.F.F.F.F.F.F.F.F.F.F.F.d.N.N.N.: 2.^ B.r.. t.* . ; 1 ) Z.Z.Z.Z.Z.Z.Z.Z.Z.) A.Z.Z.Z.Z.2 b :.pXpXpXpXpXpXpX",
"pXpXpXpXpXpXpXpXF.F.F.F.F.F.F.F.F.F.F.F.F.F.F.y.N.N.N.: ~ 2.oXd.. O . 1 3 _ Z.Z.Z.Z.Z.Z.Z.Z.Z.Z.2 _ Z.Z.Z.Z.:.:.pXpXpXpXpXpXpXpX",
"pXpXpXpXpXpXpXpXpXD.F.F.F.F.F.F.F.F.F.A.A.Z.H.Y.N.%X*X; 1 1X7XA.. % T.7X_.T.S.e Z.Z.Z.Z.Z.Z.:.:.2 ) _ Z.Z._ :.pXpXpXpXpXpXpXpXpX",
"pXpXpXpXpXpXpXpXpXpXF.F.F.F.F.F.A.3 , , , , , 3 R.9X9X> 1 7XH.% :.8X7X7X7X9X9X8XT.Z.Z.Z.) ) p e 2 p ) Z.Z.A.pXpXpXpXpXpXpXpXpXpX",
"pXpXpXpXpXpXpXpXpXpXpXD.F.F.G.4 , , , , , , , , p 7X9X; > D.$ R.7X7X7X7X7X7X7X7X7X8XJ.b _ 2 2 :.Z.Z.Z.Z.:.pXpXpXpXpXpXpXpXpXpXpX",
"pXpXpXpXpXpXpXpXpXpXpXpXpX) , , , , , , , , , , , R.7X- * * T.7X7X7X7X7X7X7X7X7X7X7X8XF.) p 2 :.Z.Z.:.pXpXpXpXpXpXpXpXpXpXpXpXpX",
"pXpXpXpXpXpXpXpXpXpXpXpXpXpX4 , , , , , , , , , , T.9X1 . * 7X7X7X7X7X7X7X7X7X7X7X7X7X7XT._ ) b Z.:.pXpXpXpXpXpXpXpXpXpXpXpXpXpX",
"pXpXpXpXpXpXpXpXpXpXpXpXpXpXpX3 , , , , , , , , , T.9XR.> :.7X7X7X7X7X7X7X7X7X7X7X7X7X7X7XH.Z.:.pXpXpXpXpXpXpXpXpXpXpXpXpXpXpXpX",
"pXpXpXpXpXpXpXpXpXpXpXpXpXpXpXpXpX2 , , , , , , , 8X7X7X7X7X7X7X7X7X7X7X7X7X7X7X7X7X7X7X7X8XA.pXpXpXpXpXpXpXpXpXpXpXpXpXpXpXpXpX",
"pXpXpXpXpXpXpXpXpXpXpXpXpXpXpXpXpXpXpXA.4 , , , ) 7X7X7X7X7X7X7X7X7X7X7X7X7X7X7X7X7X7X1XR.pXpXpXpXpXpXpXpXpXpXpXpXpXpXpXpXpXpXpX",
"pXpXpXpXpXpXpXpXpXpXpXpXpXpXpXpXpXpXpXpXpXpXA.3 T.7X7X7X7X7X7X7X7X7X7X7X7X7X7X7X8XR.pXpXpXpXpXpXpXpXpXpXpXpXpXpXpXpXpXpXpXpXpXpX",
"pXpXpXpXpXpXpXpXpXpXpXpXpXpXpXpXpXpXpXpXpXpXpXpXpXpX7X7X9X7X7X7X7X7X9X9X9X7XpXpXpXpXpXpXpXpXpXpXpXpXpXpXpXpXpXpXpXpXpXpXpXpXpXpX"
};
