/* XPM */
static char *result[] = {
/* columns rows colors chars-per-pixel */
"64 64 191 2 ",
"   c #000000",
".  c #090704",
"X  c #0C0905",
"o  c #040B0B",
"O  c #0D0B0A",
"+  c #130D05",
"@  c #120F0D",
"#  c #1A1107",
"$  c #15110F",
"%  c #1C140A",
"&  c #171006",
"*  c #0B0F12",
"=  c #0B1D1D",
"-  c #0A1315",
";  c #1B1613",
":  c #1C1714",
">  c #221609",
",  c #251A0A",
"<  c #2D1F0C",
"1  c #241D1A",
"2  c #33230E",
"3  c #39260F",
"4  c #3A280F",
"5  c #28201B",
"6  c #3D2A10",
"7  c #352710",
"8  c #0D2323",
"9  c #0E2828",
"0  c #182B2F",
"q  c #133132",
"w  c #183D3D",
"e  c #2D2521",
"r  c #352B26",
"t  c #302825",
"y  c #3E332C",
"u  c #393026",
"i  c #222F39",
"p  c #432E12",
"a  c #473114",
"s  c #4B3314",
"d  c #4B391D",
"f  c #513615",
"g  c #563A17",
"h  c #573D19",
"j  c #40342E",
"k  c #4B3D35",
"l  c #463A35",
"z  c #4C312C",
"x  c #63451B",
"c  c #65491D",
"v  c #6C4A1D",
"b  c #6B471C",
"n  c #724D1E",
"m  c #76501F",
"M  c #4E4038",
"N  c #53443C",
"B  c #58453E",
"V  c #5E503E",
"C  c #7B5522",
"Z  c #7D5B24",
"A  c #193F40",
"S  c #1A4344",
"D  c #1F4D4E",
"F  c #1F5656",
"G  c #344857",
"H  c #235B5C",
"J  c #225556",
"K  c #246464",
"L  c #266B6B",
"P  c #2A696A",
"I  c #2D7878",
"U  c #5C4A42",
"Y  c #5A504C",
"T  c #624E45",
"R  c #6A564C",
"E  c #735D53",
"W  c #70554E",
"Q  c #7A6257",
"!  c #7C6458",
"~  c #776156",
"^  c #74634D",
"/  c #4C697F",
"(  c #835B24",
")  c #8B5F25",
"_  c #905F26",
"`  c #8A6429",
"'  c #9B6B2A",
"]  c #946629",
"[  c #9B702D",
"{  c #A36C2B",
"}  c #AC742D",
"|  c #A3762F",
" . c #B1782F",
".. c #AB7C32",
"X. c #BB7E31",
"o. c #B67930",
"O. c #C07F33",
"+. c #866C5F",
"@. c #80655A",
"#. c #8A765A",
"$. c #886D61",
"%. c #8C7265",
"&. c #937568",
"*. c #997D6E",
"=. c #927964",
"-. c #9C7F71",
";. c #B78535",
":. c #C18033",
">. c #C38D39",
",. c #CB8B35",
"<. c #D18F37",
"1. c #CB933B",
"2. c #D59238",
"3. c #DB963A",
"4. c #D59B3E",
"5. c #DD993C",
"6. c #E0993B",
"7. c #E6A03F",
"8. c #9C826C",
"9. c #A38274",
"0. c #AC8B7B",
"q. c #B29475",
"w. c #BEA37E",
"e. c #CE9A48",
"r. c #DEA141",
"t. c #EEAA44",
"y. c #ECA642",
"u. c #F2AE45",
"i. c #F4B047",
"p. c #F7B348",
"a. c #F7B753",
"s. c #E58376",
"d. c #F1BD70",
"f. c #F8C16C",
"g. c #F8C77F",
"h. c #53748C",
"j. c #2E8282",
"k. c #398C8D",
"l. c #3F9C9E",
"z. c #359393",
"x. c #3EADAD",
"c. c #3BA4A4",
"v. c #6B95B3",
"b. c #43A6A9",
"n. c #4ABCBE",
"m. c #48B7B9",
"M. c #77A5C7",
"N. c #4CC2C4",
"B. c #52CBCE",
"V. c #50C7CA",
"C. c #B59281",
"Z. c #BD9A89",
"A. c #B89685",
"S. c #AC978F",
"D. c #BAA59C",
"F. c #C09A89",
"G. c #ED9B8B",
"H. c #C4A18E",
"J. c #D5AE9A",
"K. c #DCAE9A",
"L. c #D0A593",
"P. c #DCB29D",
"I. c #DEBE93",
"U. c #D2AF8F",
"Y. c #F2AA97",
"T. c #E2B39F",
"R. c #DFB6A1",
"E. c #E4BAA4",
"W. c #ECBEA9",
"Q. c #E8B9A4",
"!. c #F6B7A2",
"~. c #F9CD8E",
"^. c #F8C984",
"/. c #EBC99C",
"(. c #F9CE93",
"). c #F9D19A",
"_. c #EEC1AB",
"`. c #F3C4AE",
"'. c #FBC3AC",
"]. c #F9D5A5",
"[. c #F7D3A4",
"{. c #F6C9B2",
"}. c #FCCDB5",
"|. c #F6C7B1",
" X c #FFD0B8",
".X c #8FC6EF",
"XX c #FDD9C7",
"oX c #FCDFD2",
"OX c #EDD3C8",
"+X c #FCE0D4",
"@X c None",
/* pixels */
"@X@X@X@X@X@X@X@X@X@X@X@X@X@X@X@X@X@X@X@X@X@X@X@X@X@X@X@X@X@X@X@X@X@X@X              @X@X@X@X@X@X@X@X@X@X@X@X@X@X@X@X@X@X@X@X@X@X",
"@X@X@X@X@X@X@X@X@X@X@X@X@X@X@X@X@X@X@X@X@X@X@X@X@X@X@X@X@X@X@X                              @X@X@X@X@X@X@X@X@X@X@X@X@X@X@X@X@X@X",
"@X@X@X@X@X@X@X@X@X@X@X@X@X@X@X@X@X@X@X@X@X@X@X@X  @X@X@X@X@X      , c | 4.4.1.1.;.` d O     ; @X@X@X@X@X@X@X@X@X@X@X@X@X@X@X@X@X",
"@X@X@X@X@X@X@X@X@X@X@X@X@X@X@X@X@X@X@X@X@X                    s 4.p.p.p.p.p.p.p.p.p.p.i.e.#.I.d.    @X@X@X@X@X@X@X@X@X@X@X@X@X@X",
"@X@X@X@X@X@X@X@X@X@X@X@X@X@X@X@X@X@X@X@X      p b x >     . ] p.p.p.p.p.p.p.p.p.p.p.p.p.p.a.~./.;     @X@X@X@X@X@X@X@X@X@X@X@X@X",
"@X@X@X@X@X@X@X@X@X@X@X@X@X@X@X@X@X@X@X    , X.6.5.5.6.[ x 4.p.p.p.p.p.p.p.p.p.p.p.p.p.p.p.p.p.g.I.y       @X@X@X@X@X@X@X@X@X@X@X",
"@X@X@X@X@X@X@X@X@X@X@X@X@X@X@X@X@X@X    # ,.6.6.6.6.u.p.p.p.p.p.p.p.p.p.p.p.p.p.p.p.p.p.p.p.p.p.^.[.#.      @X@X@X@X@X@X@X@X@X@X",
"@X@X@X@X@X@X@X@X@X@X@X@X@X@X@X@X@X@X    } 5.6.6.6.6.p.p.p.p.p.p.p.p.p.p.p.p.p.p.p.p.p.p.p.p.p.p.p.(.[.q.    @X@X@X@X@X@X@X@X@X@X",
"@X@X@X@X@X@X@X@X@X@X@X@X@X@X@X@X@X    p 5.6.6.6.5.u.p.p.p.p.p.p.p.p.p.p.p.p.p.p.p.p.p.p.p.p.p.p.p.p.).].8.    @X@X@X@X@X@X@X@X@X",
"@X@X@X@X@X@X@X@X@X@X@X@X@X@X@X@X@X    } 6.6.6.6.6.p.p.p.p.p.p.i.p.p.p.p.p.p.p.p.p.p.p.p.p.p.p.p.p.p.f.].].^     @X@X@X@X@X@X@X@X",
"@X@X@X@X@X@X@X@X@X@X@X@X@X@X@X@X@X  . 5.6.6.6.5.y.p.p.p.p.p.`   h 4.p.p.p.p.p.p.p.p.p.p.p.p.p.p.p.p.p.~.]./.&   @X@X@X@X@X@X@X@X",
"@X@X@X@X@X@X@X@X@X@X@X@X@X@X@X@X@X  3 6.6.6.6.6.u.p.p.p.p.p.2       x r.p.p.p.p.p.p.p.p.p.p.p.p.p.p.p.f.].].8.    @X@X@X@X@X@X@X",
"@X@X@X@X@X@X@X@X@X@X@X@X@X@X@X@X@X  x 6.6.6.6.6.t.p.p.p.p.i..   e     . c >.p.p.p.p.p.p.p.p.p.p.p.p.p.p.).]./.    @X@X@X@X@X@X@X",
"@X@X@X@X@X@X@X@X@X@X@X@X@X@X@X@X@X  v 6.6.6.6.6.y.p.p.p.i.1.  ; T.C.B       , Z 4.p.p.p.p.p.p.i.p.p.p.p.g.].].:   @X@X@X@X@X@X@X",
"@X@X@X@X@X@X@X@X@X@X@X@X@X@X@X@X    n 6.6.6.6.6.6.p.p.p.i.c   R T.`. XR.R O       % 6 c ` ;.;...;.t.p.p.f.].].k   @X@X@X@X@X@X@X",
"@X@X@X@X@X@X@X@X@X@X@X@X@X@X@X@X    n 6.6.6.6.6.6.u.p.p.;.    F.Q. X X X X_.9.M O               . . ] p.a.].].u   @X@X@X@X@X@X@X",
"@X@X@X@X@X@X@X@X@X@X@X@X@X          x 6.6.6.6.6.5.6.p.] X   T T.}. X X X X X X X{.Z.*.E N @   > 7   . 1.p.).].@   @X@X@X@X@X@X@X",
"@X@X@X@X@X@X@X@X@X@X@X        X ,   p 6.6.6.<.b a b 2     U T._. X X X X X X X X X X X X}.R   b ;.g   ( p.~./.    @X@X@X@X@X@X@X",
"@X@X@X@X@X@X@X@X@X@X      g _ O.]   + 6.6.2.>         ; +.T.T.}.E.! U %.{. X X X X X|.%.U r   h X.3   [ p.~.w.    @X@X@X@X@X@X@X",
"@X@X@X@X@X@X@X@X@X    < { :.O.:.X.    ,.6.n   ; +.R &.K.T.T.Q.P.O       5 }. X X X}.1         a f   + 4.p.(.V     @X@X@X@X@X@X@X",
"@X@X@X@X@X@X@X@X    6 O.:.:.:.:.:.,   ' 6.6   +.T.T.T.T.T.K.`.K.$ k %.r 5 {. X X X{.1 r &.y   6 C 7 4.p.p.q.    @X@X@X@X@X@X@X@X",
"@X@X@X@X@X@X@X    > o.O.:.:.:.:.:.s   v 6.2   9.T.T.T.T.T.E.|.}. X X X X X X X X X X X X X9.  s p.p.p.p.i.2     @X@X@X@X@X@X@X@X",
"@X@X@X@X@X@X@X    { :.:.:.:.:.:.:.n   a 6.f   B T.F.T.T.T.T.}.!.G.Y.|. X X X X X X X X}.Y.W   x p.p.p.r.a     @X@X@X@X@X@X@X@X@X",
"@X@X@X@X@X@X@X  , :.:.:.:.:.:.:.O.]   # 6.}     @   @.T.T.T.}.G.s.s.G. X X X X X X X X'.s.z   C p.p.[ O     @X@X@X@X@X@X@X@X@X@X",
"@X@X@X@X@X@X@X  f O.O.O.:.:.:.:.O.{     <.6.(       @ K.T.T.}.}.!.Y.}. X X X X X X X X X!.j   h c %       @X@X@X@X@X@X@X@X@X@X@X",
"@X@X@X@X@X@X    x O.:.O.:.:.:.:.O.}     2.6.5.2. .+   +.T.T.}. X X X X X{.$.F.}.0.*. X X}.:           @X@X@X@X@X@X@X@X@X@X@X@X@X",
"@X@X@X@X@X@X@X  < O.:.:.:.:.O.O.O.}   X 6.6.6.6.6.C   1 T.T.{. X X X X XF.    O     {. XA.      @X@X@X@X@X@X@X@X@X@X@X@X@X@X@X@X",
"@X@X@X@X@X@X@X    } :.:.:.:.:.O.O.b   3 6.6.6.6.6.3.+   T T.|. X X X X X}.! .   $ 9. X Xy     @X@X@X@X@X@X@X@X@X@X@X@X@X@X@X@X@X",
"@X@X@X@X@X@X@X    > o.:.:.:.O.O.{ +   ' 6.6.6.6.6.6.]     E W. X X X X X X X}.E. X X XH.      @X@X@X@X@X@X@X@X@X@X@X@X@X@X@X@X@X",
"@X@X@X@X@X@X@X@X    + b  .:.O.] #   2 5.6.6.6.6.6.6.6.(     Q }. X X X X X X X X X XR.;           @X@X@X@X@X@X@X@X@X@X@X@X@X@X@X",
"@X@X@X@X@X@X@X@X@X        < %     < 2.6.6.6.6.6.6.6.6.6.x     5 C.}. X X X X X X XA.1   < v 6 +         @X@X@X@X@X@X@X@X@X@X@X@X",
"@X@X@X@X@X@X@X@X@X            X n 2.6.6.6.6.6.6.6.6.6.6.a         e E 8.H.J.C.$.j     a 2.6.6.5. .s       @X@X@X@X@X@X@X@X@X@X@X",
"@X@X@X@X@X@X@X@X@X@X      s X.5.6.6.6.6.6.6.6.6.6.6.6.}   + C.E $                   a 5.6.6.6.6.6.6.X.,     @X@X@X@X@X@X@X@X@X@X",
"@X@X@X@X@X@X@X@X@X@X@X      2 o.6.6.6.6.6.6.6.6.6.6.,.#   %.T.T.R.&.E k e ; y T M   . ] 6.6.6.6.6.6.<.} ,     @X@X@X@X@X@X@X@X@X",
"@X@X@X@X@X@X@X@X@X@X@X@X@X      g } 3.6.6.6.5.6.6.5.6   k T.T.T.E.K.}. X X X}. X X~     ) 6.2.( 2 .             @X@X@X@X@X@X@X@X",
"@X@X@X@X@X@X@X@X@X@X@X@X@X@X@X      X 3 a g C 5.5.g   @ L.T.T.T.K.E.|. X X X X X X X$.    6 .                 @X@X@X@X@X@X@X@X@X",
"@X@X@X@X@X@X@X@X@X@X@X@X@X@X@X@X              ] +   . 9.T.T.T.Q k e U A. X X XJ.C.0.W.*.        @X@X@X@X@X@X@X@X@X@X@X@X@X@X@X@X",
"@X@X@X@X@X@X@X@X@X@X@X@X@X@X@X@X@X@X@X@X@X@X@X    ; F.E.T.T.B           %.{.N         $.0.O     @X@X@X@X@X@X@X@X@X@X@X@X@X@X@X@X",
"@X@X@X@X@X@X@X@X@X@X@X@X@X@X@X@X@X@X@X@X@X@X    r Q.}.T.P.@..   h.M./   . :   * G i .   `.E.l       @X@X@X@X@X@X@X@X@X@X@X@X@X@X",
"@X@X@X@X@X@X@X@X@X@X@X@X@X@X@X@X@X@X@X@X      N |.}.}.-.e       M..Xv.        h..X.Xi   F. X X&..         @X@X@X@X@X@X@X@X@X@X@X",
"@X@X@X@X@X@X@X@X@X@X@X@X@X@X@X@X@X@X@X      E E.C.R ;           = G * . E Q   0 M.h.    5 y M U l                 @X@X@X@X@X@X@X",
"@X@X@X@X@X@X@X@X@X@X@X@X@X@X@X            o O                         k }.}.1                                       @X@X@X@X@X@X",
"@X@X@X@X@X@X@X@X@X@X@X@X@X@X                        @X@X@X    &.-.! J. X X XE.Q : r 1     @X@X@X@X@X@X@X@X    @X@X@X@X@X@X@X@X@X",
"@X@X@X@X@X@X@X@X@X@X@X@X@X@X          @X@X@X@X@X@X@X@X@X@X    L.Q.Q. X X X X X XXX+Xl   @X@X@X@X@X@X@X@X@X@X@X@X@X@X@X@X@X@X@X@X",
"@X@X@X@X@X@X@X@X@X@X@X@X@X@X@X@X    @X@X@X@X@X@X@X@X@X@X    1 Q.K.W. X X X X X XoXoXe   @X@X@X@X@X@X@X@X@X@X@X@X@X@X@X@X@X@X@X@X",
"@X@X@X@X@X@X@X@X@X@X@X@X@X@X@X@X@X@X@X@X@X@X@X@X@X@X@X@X    9.K.Q.{. X X X X X XoXoXO   @X@X@X@X@X@X@X@X@X@X@X@X@X@X@X@X@X@X@X@X",
"@X@X@X@X@X@X@X@X@X@X@X  @X@X@X@X@X@X@X@X@X@X@X@X@X@X@X    k K.Q.Q. X X X X X X XoXD.    @X@X@X@X@X@X@X@X@X@X@X@X@X@X@X@X@X@X@X@X",
"@X@X@X@X@X@X@X@X@X@X@X      @X@X@X@X@X@X@X@X@X@X@X@X      $ 0.E.W. X X X X X X XoXY     @X@X@X@X@X@X@X@X@X@X@X@X@X@X@X@X@X@X@X@X",
"@X@X@X@X@X@X@X@X@X@X@X        @X@X@X@X@X@X@X@X@X@X@X    =     T E. X X X X}.}.XXOX.   @X@X@X@X@X@X@X@X@X@X@X@X@X@X@X@X@X@X@X@X@X",
"@X@X@X@X@X@X@X@X@X@X@X  o 8       @X@X@X@X@X@X@X@X.   8 n.K     o N %.Z.W.P.H.S.E     @X@X@X@X@X@X@X@X@X@X@X@X@X@X@X@X@X@X@X@X@X",
"@X@X@X@X@X@X@X@X@X@X@X    c.I =       @X@X@X@X@X@X  . j.n.V.c.S                     @X@X@X@X@X@X@X@X@X@X@X@X@X@X@X@X@X@X@X@X@X@X",
"@X@X@X@X@X@X@X@X@X@X@X    j.x.x.L o   @X@X@X@X.     L x.n.B.B.B.m.L D q -   .       @X@X@X@X@X@X@X@X@X@X@X@X@X@X@X@X@X@X@X@X@X@X",
"@X@X@X@X@X@X@X@X@X@X@X    q x.x.x.j.    @X      . K x.x.N.V.B.B.B.B.B.B.B.N.q     @X@X@X@X@X@X@X@X@X@X@X@X@X@X@X@X@X@X@X@X@X@X@X",
"@X@X@X@X@X@X@X@X@X@X@X@X    K j.L I -         9 z.x.x.x.N.B.B.B.B.B.B.B.B.S     @X@X@X@X@X@X@X@X@X@X@X@X@X@X@X@X@X@X@X@X@X@X@X@X",
"@X@X@X@X@X@X@X@X@X@X@X@X@X              = K z.x.x.x.x.x.V.B.B.B.B.B.l.H k.@X  @X@X@X@X@X@X@X@X@X@X@X@X@X@X@X@X@X@X@X@X@X@X@X@X@X",
"@X@X@X@X@X@X@X@X@X@X@X@X@X    = A 9 .   K x.x.x.x.x.x.m.B.B.B.b.I 8       @X@X@X@X@X@X@X@X@X@X@X@X@X@X@X@X@X@X@X@X@X@X@X@X@X@X@X",
"@X@X@X@X@X@X@X@X@X@X@X@X    J B.B.B.q   S L K K H F J H J q O           @X@X@X@X@X@X@X@X@X@X@X@X@X@X@X@X@X@X@X@X@X@X@X@X@X@X@X@X",
"@X@X@X@X@X@X@X@X@X@X@X    q V.B.B.b.                              @X@X@X@X@X@X@X@X@X@X@X@X@X@X@X@X@X@X@X@X@X@X@X@X@X@X@X@X@X@X@X",
"@X@X@X@X@X@X@X@X@X@X@X    k.B.B.l.8                   @X@X@X@X@X@X@X@X@X@X@X@X@X@X@X@X@X@X@X@X@X@X@X@X@X@X@X@X@X@X@X@X@X@X@X@X@X",
"@X@X@X@X@X@X@X@X@X@X@X    n.b.w       @X@X@X@X@X@X@X@X@X@X@X@X@X@X@X@X@X@X@X@X@X@X@X@X@X@X@X@X@X@X@X@X@X@X@X@X@X@X@X@X@X@X@X@X@X",
"@X@X@X@X@X@X@X@X@X@X@X  o S         @X@X@X@X@X@X@X@X@X@X@X@X@X@X@X@X@X@X@X@X@X@X@X@X@X@X@X@X@X@X@X@X@X@X@X@X@X@X@X@X@X@X@X@X@X@X",
"@X@X@X@X@X@X@X@X@X@X@X          @X@X@X@X@X@X@X@X@X@X@X@X@X@X@X@X@X@X@X@X@X@X@X@X@X@X@X@X@X@X@X@X@X@X@X@X@X@X@X@X@X@X@X@X@X@X@X@X",
"@X@X@X@X@X@X@X@X@X@X@X      @X@X@X@X@X@X@X@X@X@X@X@X@X@X@X@X@X@X@X@X@X@X@X@X@X@X@X@X@X@X@X@X@X@X@X@X@X@X@X@X@X@X@X@X@X@X@X@X@X@X",
"@X@X@X@X@X@X@X@X@X@X@X    @X@X@X@X@X@X@X@X@X@X@X@X@X@X@X@X@X@X@X@X@X@X@X@X@X@X@X@X@X@X@X@X@X@X@X@X@X@X@X@X@X@X@X@X@X@X@X@X@X@X@X"
};
