/* XPM */
static char *_788d68019d149fee543867bb6e86035ViwagIuxqfxaKoec[] = {
/* columns rows colors chars-per-pixel */
"64 64 167 2 ",
"   c None",
".  c #3B2E62",
"X  c #3D3265",
"o  c #3D356A",
"O  c #3F396C",
"+  c #3F3C70",
"@  c #413466",
"#  c #423768",
"$  c #453B6B",
"%  c #4A3D6D",
"&  c #573F6E",
"*  c #583F6F",
"=  c #433E70",
"-  c #4B406F",
";  c #444172",
":  c #4D4472",
">  c #4F4976",
",  c #4B4C7C",
"<  c #44497C",
"1  c #504774",
"2  c #5E4070",
"3  c #524976",
"4  c #584A77",
"5  c #544D79",
"6  c #594E7A",
"7  c #57517D",
"8  c #5C547E",
"9  c #714676",
"0  c #894F7D",
"q  c #93507F",
"w  c #444D80",
"e  c #465184",
"r  c #4D5584",
"t  c #4C5B8C",
"y  c #5E5781",
"u  c #5D5B84",
"i  c #525A88",
"p  c #4A5E91",
"a  c #635C84",
"s  c #695E86",
"d  c #615F88",
"f  c #4E6799",
"g  c #526796",
"h  c #536897",
"j  c #526B9C",
"k  c #676086",
"l  c #64638A",
"z  c #6A648B",
"x  c #67698E",
"c  c #69698E",
"v  c #736B8E",
"b  c #70678B",
"n  c #6B6C91",
"m  c #746D91",
"M  c #6F7195",
"N  c #747195",
"B  c #7A7394",
"V  c #737699",
"C  c #7F7798",
"Z  c #757A9C",
"A  c #7E7999",
"S  c #5373A3",
"D  c #5277A8",
"F  c #557BAB",
"G  c #787EA0",
"H  c #A75684",
"J  c #B75B88",
"K  c #807997",
"L  c #847D9B",
"P  c #C7628D",
"I  c #D16591",
"U  c #EC709A",
"Y  c #5681B2",
"T  c #5887B7",
"R  c #5A8DBD",
"E  c #7C84A4",
"W  c #7F88A7",
"Q  c #7F8AA8",
"!  c #778FB5",
"~  c #5C94C5",
"^  c #5F9CCB",
"/  c #61A5D4",
"(  c #63ABDA",
")  c #65B0DF",
"_  c #66B3E2",
"`  c #67B8E7",
"'  c #68BBE9",
"]  c #6AC0EE",
"[  c #6BC4F2",
"{  c #6DC9F7",
"}  c #8A85A1",
"|  c #8F8AA5",
" . c #838DAA",
".. c #8C8CA9",
"X. c #948DA7",
"o. c #8691AE",
"O. c #9791AA",
"+. c #9A94AC",
"@. c #9D98AE",
"#. c #8996B1",
"$. c #8D9BB5",
"%. c #8F9FB8",
"&. c #9E9AB2",
"*. c #A39DB3",
"=. c #93A3BB",
"-. c #96A9BF",
";. c #A6A2B6",
":. c #AAA6B9",
">. c #AEAABC",
",. c #A8A4B7",
"<. c #B0ACBE",
"1. c #9AADC3",
"2. c #9DB2C7",
"3. c #9EB2C8",
"4. c #B3AFC2",
"5. c #A1B6CA",
"6. c #A4BACD",
"7. c #AEBBCC",
"8. c #B5B2C1",
"9. c #B9B6C4",
"0. c #BDBAC7",
"q. c #BFBCC9",
"w. c #A7BFD1",
"e. c #C2BFCC",
"r. c #AAC3D4",
"t. c #AEC9D8",
"y. c #B2CDDC",
"u. c #B5D1DF",
"i. c #BAD0DD",
"p. c #B6D3E0",
"a. c #B8D6E2",
"s. c #BCDBE6",
"d. c #BEDEE9",
"f. c #C5C3CE",
"g. c #C7C7D1",
"h. c #C9C6D1",
"j. c #CBCAD3",
"k. c #D0CFD6",
"l. c #C5D1DD",
"z. c #D4D3DA",
"x. c #DADADE",
"c. c #D9D7E1",
"v. c #DCDDE1",
"b. c #D0D5E0",
"n. c #C2E2EC",
"m. c #C5E7F0",
"M. c #C6E8F1",
"N. c #CAEEF5",
"B. c #CCF0F7",
"V. c #CEF3F9",
"C. c #D1F6FB",
"Z. c #D4FBFF",
"A. c #DCFCFF",
"S. c #E4E5E6",
"D. c #E6E7E8",
"F. c #E5E7E9",
"G. c #E6E7E8",
"H. c #E6E8E8",
"J. c #E9E8EE",
"K. c #E5FDFF",
"L. c #EFFEFF",
"P. c #EAFBFD",
"I. c #E3F4F8",
"U. c #F1F1F5",
"Y. c #F6F6F8",
"T. c #F5FEFF",
"R. c #FEFEFE",
/* pixels */
"                                                                                                                                ",
"                                                1 - # . @ % 1 %                                                                 ",
"                                          % # B 4.c.U.R.Y.J.h.&.8 $                                                             ",
"                                      % $ *.U.T.K.A.A.Z.Z.Z.K.K.T.c.m %                                                         ",
"                                    - s J.K.Z.Z.Z.Z.Z.Z.Z.Z.Z.Z.Z.A.L.q.%                                                       ",
"                                  % m P.Z.Z.Z.Z.Z.Z.Z.Z.Z.Z.Z.Z.Z.Z.Z.A.v.:                                                     ",
"                                  6 I.Z.Z.Z.Z.Z.Z.Z.Z.Z.Z.Z.Z.Z.Z.Z.Z.Z.A.b.%                                                   ",
"                                % l.Z.Z.Z.Z.Z.Z.Z.Z.Z.Z.Z.Z.Z.Z.Z.Z.Z.Z.Z.Z.&.m                                                 ",
"                                v Z.Z.Z.Z.Z.Z.Z.Z.Z.Z.Z.Z.Z.Z.Z.Z.Z.Z.Z.Z.Z.C.- h.                                              ",
"                              : 7.Z.Z.Z.Z.Z.Z.Z.Z.Z.Z.Z.Z.Z.Z.Z.Z.Z.Z.Z.Z.Z.A...} H.                                            ",
"                              @ B.Z.Z.Z.Z.Z.Z.Z.Z.Z.Z.Z.Z.Z.Z.Z.Z.Z.Z.Z.Z.Z.Z.i.8 D.                                            ",
"                              5 Z.Z.Z.Z.y.s.Z.Z.Z.Z.Z.Z.Z.Z.Z.Z.Z.Z.M.w.Z.Z.Z.C.@ v.D.                                          ",
"                              c Z.Z.Z.Z.$.: 5  .y.Z.Z.Z.Z.Z.Z.n.$.u $ V Z.Z.Z.Z.8 f.D.      $ X : @ #                           ",
"                              V Z.Z.Z.Z.n.N.y. .3 7 Z.Z.Z.Z.Z - E r.N.s.Z.Z.Z.Z.z <.D.    # 5.V.Z.Z.t.5 #                       ",
"              % @ @ $         n Z.Z.Z.Z.4 @ 8 o.y.M.Z.Z.Z.Z.N.u.$.s # . C.Z.Z.Z.n >.H.  @ p.Z.Z.Z.Z.Z.V.z 8                     ",
"          X 3 5.N.n.1.$       u Z.Z.Z.Z.4 I P q & l Z.Z.Z.Z. .% 0 J U @ C.Z.Z.Z.z 0.H.s V Z.Z.Z.a.$.t.Z.B.: >.                  ",
"        # x C.Z.Z.Z.Z.n.:     # Z.Z.Z.Z. .2 J H 2 $.Z.Z.Z.Z.r.% H J 9 z Z.Z.Z.Z.5 j.D.5 6.Z.Z.s.% C 5 k n.-.m D.                ",
"        ; N.6. .$.n.Z.Z.r.8   X n.Z.Z.Z.Z.2.N V 6.Z.Z.Z.Z.Z.Z.y.Z n =.V.Z.Z.Z.V.@ S.D.@ N.Z.Z. .| D.D.O.% #.8 D.                ",
"      @ 3 @ 8 X.K 3 B.Z.Z.1 f.3 2.Z.Z.Z.Z.Z.Z.Z.Z.Z.Z.Z.Z.Z.Z.Z.Z.Z.Z.Z.Z.Z.Z.y.a D.z.$ Z.Z.Z.Z *.D.D.H.9.8 &.D.D.              ",
"            D.D.H.v 2.Z.Z.Z *.+.l Z.Z.Z.Z.Z.Z.Z.Z.Z.Z.Z.Z.Z.Z.Z.Z.Z.Z.Z.Z.Z.Z. .} D.q.5 Z.Z.Z. .O.D.D.      D.D.D.              ",
"          H.H.D.H.b #.Z.Z.W +.z.X m.Z.Z.Z.Z.Z.Z.Z.n.Z Z E Z t.Z.Z.Z.Z.Z.Z.Z.Z.- f.D.*.c Z.Z.Z.-.C H.          D.                ",
"                  $ 5.Z.Z.c >.D.8 $.Z.Z.Z.Z.Z.Z.Z.N.1.1.-.-.n.Z.Z.Z.Z.Z.Z.Z.r.8 D.D.B E Z.Z.Z.r.k H.                            ",
"                  $ C.Z.V.$ x.H.,.# B.Z.Z.Z.Z.Z.Z.Z.Z.Z.Z.Z.Z.Z.Z.Z.Z.Z.Z.Z.a ;.D.D.5 =.Z.Z.Z.n.: D.D.                          ",
"                $ $.Z.Z.6.a D.D.  @ o.Z.Z.Z.Z.Z.Z.Z.Z.Z.Z.Z.Z.Z.Z.Z.Z.Z.Z.r.3 D.D.D.$ t.Z.Z.Z.Z.@ S.D.                          ",
"                $ B.Z.Z.V &.H.D.    @ n.Z.Z.Z.Z.Z.Z.Z.Z.Z.Z.Z.Z.Z.Z.Z.Z.C.5 <.H.D.  X V.Z.Z.Z.Z.: k.D.                          ",
"              $ =.Z.Z.Z.% z.D.D.      l Z.Z.Z.Z.Z.Z.Z.Z.Z.Z.Z.Z.Z.Z.Z.Z.o.v H.H.D.  u Z.Z.Z.Z.Z.8 f.D.                          ",
"              @ N.Z.Z.M.% H.H.        % $.Z.Z.Z.Z.Z.Z.Z.Z.Z.Z.Z.Z.Z.Z.r.- x.D.D.  @ t.Z.Z.Z.Z.Z.u q.D.                          ",
"              u Z.Z.Z.B.@ x.H.          . m.Z.Z.Z.Z.Z.Z.Z.Z.Z.Z.Z.Z.Z.1 b 9.9.K @ =.Z.Z.Z.Z.Z.Z.8 f.D.                          ",
"              E Z.Z.Z.Z.E 8 q.      $ # 1.Z.Z.Z.Z.Z.Z.Z.Z.Z.Z.Z.Z.Z.Z.p. .k u E p.Z.Z.Z.Z.Z.Z.Z.@ v.D.                          ",
"              E Z.Z.Z.Z.Z.=.5 X . > #.B.Z.Z.Z.Z.Z.Z.Z.Z.Z.Z.Z.Z.Z.Z.Z.Z.Z.Z.Z.Z.Z.Z.Z.Z.Z.Z.Z.r.8 D.D.                          ",
"              c Z.Z.Z.Z.Z.Z.Z.V.C.Z.Z.Z.Z.Z.Z.Z.Z.Z.Z.Z.Z.Z.Z.Z.Z.Z.Z.Z.Z.Z.Z.Z.Z.Z.Z.Z.Z.Z.Z.d *.D.D.                          ",
"              # B.Z.Z.Z.Z.Z.Z.Z.Z.Z.Z.Z.Z.Z.Z.Z.Z.Z.Z.Z.Z.Z.Z.Z.Z.Z.Z.Z.Z.Z.Z.Z.Z.Z.Z.Z.Z.Z.E 8 D.D.D.                          ",
"              $ Z Z.Z.Z.Z.Z.Z.Z.Z.Z.Z.Z.Z.Z.Z.Z.Z.Z.Z.Z.Z.Z.Z.Z.Z.Z.Z.Z.Z.Z.Z.Z.Z.Z.Z.Z.M.Z ; % :.H.                            ",
"                #  .Z.Z.Z.Z.Z.Z.Z.Z.Z.Z.Z.Z.Z.Z.Z.Z.Z.Z.Z.Z.Z.Z.Z.Z.Z.Z.Z.Z.x x #.-.$.V % j [ ( = >.                            ",
"                  4 l a.Z.Z.Z.Z.Z.Z.Z.Z.Z.Z.Z.Z.Z.n.$.c l Z 6.Z.Z.Z.Z.Z.Z.Z.y.o t S F R ] { { { / %                             ",
"                    B . x 1.N.C.Z.Z.Z.Z.Z.Z.Z.Z.1.% K <.9.@.a : r.Z.Z.Z.Z.Z.Z.6.% ` { { { { { { { j }                           ",
"                    X R ~ i X u 6.Z.Z.Z.Z.Z.Z.=.3 j.H.D.D.D.D.9.1 W Z.Z.Z.Z.Z.Z.o.r { { { { { { { ` # c.                        ",
"                  o / { { { [ S  .C.Z.Z.Z.Z.s.% k.D.D.D.H.      x.8 V Z.Z.Z.Z.Z.Z.7 F ] { { { { { { g O.H.                      ",
"                X ( { { { { { Y o.Z.Z.Z.Z.Z.n @.D.D.D.              a  .Z.Z.Z.Z.Z.u.. # R { { { { { ( E D.                      ",
"              X ^ { { { { { { F o.Z.Z.Z.Z.B.$ v.D.H.                  - r.Z.Z.Z.Z.Z.n m 7 j { { { { { ! x.                      ",
"            o f { { { { { { ) ; E Z.Z.Z.Z.y.8 H.D.                      3 V.Z.Z.Z.Z.p.- x.7 T { { { { i 8.D.                    ",
"            X ' { { { { { ( $ v m Z.Z.Z.Z.2.m H.D.                      - 1.Z.Z.Z.Z.Z.7 <.f.$ ' { { { S O.D.                    ",
"            f { { { { { ` ; >.g.3 Z.Z.Z.Z.5.m H.D.                        7 Z.Z.Z.Z.Z.o.L H.# F { { { R C H.                    ",
"          o / { { { { { t | H.S.X N.Z.Z.Z.y.8 H.H.                        X n.Z.Z.Z.Z.u.5 H.  O { { { { i.H.                    ",
"          . { { { { { ^ 3 S.D.D.5 1.Z.Z.Z.C.$ z.D.                        $ 6.Z.Z.Z.Z.C.@ H.D.o / { { ( y F.F.                  ",
"          ; { { { { { t :.D.D.    u Z.Z.Z.Z. .K H.          X X           X #.Z.Z.Z.Z.Z.$ v.H.X D { { _ : D.H.                  ",
"          p { { { { _ % S.H.D.    @ t.Z.Z.Z.N.1 +.          7 5 @.           .Z.Z.Z.Z.Z.- z.H.  < { { ' % D.D.                  ",
"          t { { { { T B D.D.        5 C.Z.Z.Z.n.7 7     # $ s.u 8.D.         .Z.Z.Z.Z.Z.@ v.H.  X [ { [ X D.H.                  ",
"          p { { { { h ;.D.D.        $ W Z.Z.Z.Z.Z.5.V x o.N.B.@ x.D.      # =.Z.Z.Z.Z.n.$ D.D.  o ^ { { = z.H.                  ",
"          w { { { { r e.D.H.          - o.Z.Z.Z.Z.Z.Z.Z.Z.Z.E B D.H.      ; r.Z.Z.Z.Z.5.z D.D.  X S { { r 8.H.                  ",
"          o { { { { , g.D.              6 l n.Z.Z.Z.Z.Z.B.Z 5 x.D.D.      X B.Z.Z.Z.Z.M *.D.D.    + { { Y N D.                  ",
"          o _ { { { , f.D.                } $ c $.2.-.Z @ B x.D.D.D.      l Z.Z.Z.Z.N.$ x.D.D.    X ( { ] = 9.                  ",
"          X Y { { { h ,.D.                  x.>.} v K @.z.D.D.D.D.      $ 6.Z.Z.Z.A.o.B D.D.        e { { / $ m                 ",
"            $ { { { R c D.                      D.D.D.D.D.D.D.D.        7 Z.Z.Z.Z.n.$ z.D.D.        o j { { ` S O X             ",
"            o R { { [ # h.                          g.H.D.            # s.Z.Z.Z.Z.k | H.D.D.          7 = S Y F r #             ",
"              O ' { { R 5 z.                      X @               # t.Z.Z.Z.Z.W k S.H.D.              0.X.C } >.S.D.H.        ",
"              X r [ { { D 1                       . y.3 $ X   $ @ l s.Z.Z.Z.Z.E 8 x.D.D.D.                D.D.D.H.H.D.D.        ",
"                : t [ { { ~ = # O O o             # 1.Z.r. . .-.a.Z.Z.Z.Z.m.c a x.D.D.D.                        D.D.            ",
"                  y , ( { { { / ~ ^ e               @ 2.Z.Z.Z.Z.Z.Z.Z.N.$.% X.S.D.D.D.                                          ",
"                    O.$ t ^ ` [ ( f : x.D.            5 8 $.6.i.r.-.n $ B h.D.D.D.D.                                            ",
"                      v.;.d % X > } c.H.D.              9.L c 8 z C ,.x.D.D.D.D.D.                                              ",
"                          D.D.D.D.D.H.H.D.                D.D.D.D.D.D.D.D.D.D.                                                  ",
"                              D.D.D.D.D.                      H.D.D.D.H.                                                        ",
"                                                                                                                                "
};
