/* XPM */
static char *result[] = {
/* columns rows colors chars-per-pixel */
"64 64 165 2 ",
"   c #3B2E62",
".  c #3D3265",
"X  c #3D356A",
"o  c #3F396C",
"O  c #3F3C70",
"+  c #413466",
"@  c #423768",
"#  c #453B6B",
"$  c #4A3D6D",
"%  c #573F6E",
"&  c #583F6F",
"*  c #433E70",
"=  c #4B406F",
"-  c #444172",
";  c #4D4472",
":  c #4F4976",
">  c #4B4C7C",
",  c #44497C",
"<  c #504774",
"1  c #5E4070",
"2  c #524976",
"3  c #584A77",
"4  c #544D79",
"5  c #594E7A",
"6  c #57517D",
"7  c #5C547E",
"8  c #714676",
"9  c #894F7D",
"0  c #93507F",
"q  c #444D80",
"w  c #465184",
"e  c #4D5584",
"r  c #4C5B8C",
"t  c #5E5781",
"y  c #5D5B84",
"u  c #525A88",
"i  c #4A5E91",
"p  c #635C84",
"a  c #695E86",
"s  c #615F88",
"d  c #4E6799",
"f  c #526796",
"g  c #536897",
"h  c #526B9C",
"j  c #676086",
"k  c #64638A",
"l  c #6A648B",
"z  c #67698E",
"x  c #69698E",
"c  c #70678B",
"v  c #736B8E",
"b  c #6B6C91",
"n  c #746D91",
"m  c #6F7195",
"M  c #747195",
"N  c #7A7394",
"B  c #737699",
"V  c #7F7798",
"C  c #757A9C",
"Z  c #7E7999",
"A  c #5373A3",
"S  c #5277A8",
"D  c #557BAB",
"F  c #787EA0",
"G  c #A75684",
"H  c #B05986",
"J  c #BA5D89",
"K  c #807997",
"L  c #847D9B",
"P  c #C7628D",
"I  c #D16591",
"U  c #EC709A",
"Y  c #5681B2",
"T  c #5887B7",
"R  c #5A8DBD",
"E  c #7C84A4",
"W  c #7F88A7",
"Q  c #7F8AA8",
"!  c #778FB5",
"~  c #5C94C5",
"^  c #5F9CCB",
"/  c #61A5D4",
"(  c #63ABDA",
")  c #65B0DF",
"_  c #66B3E2",
"`  c #67B8E7",
"'  c #68BBE9",
"]  c #6AC0EE",
"[  c #6BC4F2",
"{  c #6DC9F7",
"}  c #8A85A1",
"|  c #8F8AA5",
" . c #838DAA",
".. c #8C8CA9",
"X. c #948DA7",
"o. c #8691AE",
"O. c #9791AA",
"+. c #9A94AC",
"@. c #9D98AE",
"#. c #8996B1",
"$. c #8D9BB5",
"%. c #8F9FB8",
"&. c #9E9AB2",
"*. c #A39DB3",
"=. c #93A3BB",
"-. c #96A9BF",
";. c #A6A2B6",
":. c #A8A4B7",
">. c #AAA6B9",
",. c #AEAABC",
"<. c #B0ACBE",
"1. c #9AADC3",
"2. c #9DB2C7",
"3. c #9EB2C8",
"4. c #B3AFC2",
"5. c #A1B6CA",
"6. c #A4BACD",
"7. c #AEBBCC",
"8. c #B5B2C1",
"9. c #B9B6C4",
"0. c #BDBAC7",
"q. c #BFBCC9",
"w. c #A7BFD1",
"e. c #C2BFCC",
"r. c #AAC3D4",
"t. c #AEC9D8",
"y. c #B2CDDC",
"u. c #B5D1DF",
"i. c #BAD0DD",
"p. c #B6D3E0",
"a. c #B8D6E2",
"s. c #BCDBE6",
"d. c #BEDEE9",
"f. c #C5C3CE",
"g. c #C7C7D1",
"h. c #C9C6D1",
"j. c #CBCAD3",
"k. c #D0CFD6",
"l. c #C5D1DD",
"z. c #D4D3DA",
"x. c #DADADE",
"c. c #D9D7E1",
"v. c #DCDDE1",
"b. c #D0D5E0",
"n. c #C2E2EC",
"m. c #C5E7F0",
"M. c #C6E8F1",
"N. c #CAEEF5",
"B. c #CCF0F7",
"V. c #CEF3F9",
"C. c #D1F6FB",
"Z. c #D4FBFF",
"A. c #DCFCFF",
"S. c #E4E5E6",
"D. c #E6E7E8",
"F. c #E6E8E8",
"G. c #E9E8EE",
"H. c #E5FDFF",
"J. c #ECFCFE",
"K. c #E3F4F8",
"L. c #F1F1F5",
"P. c #F6F6F8",
"I. c #F5FEFF",
"U. c #FEFEFE",
"Y. c None",
/* pixels */
"Y.Y.Y.Y.Y.Y.Y.Y.Y.Y.Y.Y.Y.Y.Y.Y.Y.Y.Y.Y.Y.Y.Y.Y.Y.Y.Y.Y.Y.Y.Y.Y.Y.Y.Y.Y.Y.Y.Y.Y.Y.Y.Y.Y.Y.Y.Y.Y.Y.Y.Y.Y.Y.Y.Y.Y.Y.Y.Y.Y.Y.Y.Y.Y.",
"Y.Y.Y.Y.Y.Y.Y.Y.Y.Y.Y.Y.Y.Y.Y.Y.Y.Y.Y.Y.Y.Y.Y.Y.Y.Y.Y.Y.Y.Y.Y.Y.$ < # +   @ = < Y.Y.Y.Y.Y.Y.Y.Y.Y.Y.Y.Y.Y.Y.Y.Y.Y.Y.Y.Y.Y.Y.Y.Y.",
"Y.Y.Y.Y.Y.Y.Y.Y.Y.Y.Y.Y.Y.Y.Y.Y.Y.Y.Y.Y.Y.Y.Y.Y.Y.Y.Y.Y.Y.Y.# 7 *.h.G.P.U.L.c.4.N @ $ Y.Y.Y.Y.Y.Y.Y.Y.Y.Y.Y.Y.Y.Y.Y.Y.Y.Y.Y.Y.Y.",
"Y.Y.Y.Y.Y.Y.Y.Y.Y.Y.Y.Y.Y.Y.Y.Y.Y.Y.Y.Y.Y.Y.Y.Y.Y.Y.Y.Y.$ n c.I.H.H.Z.Z.Z.A.A.H.J.L.*.@ $ Y.Y.Y.Y.Y.Y.Y.Y.Y.Y.Y.Y.Y.Y.Y.Y.Y.Y.Y.",
"Y.Y.Y.Y.Y.Y.Y.Y.Y.Y.Y.Y.Y.Y.Y.Y.Y.Y.Y.Y.Y.Y.Y.Y.Y.Y.Y.$ q.J.A.Z.Z.Z.Z.Z.Z.Z.Z.Z.Z.A.H.G.a $ Y.Y.Y.Y.Y.Y.Y.Y.Y.Y.Y.Y.Y.Y.Y.Y.Y.Y.",
"Y.Y.Y.Y.Y.Y.Y.Y.Y.Y.Y.Y.Y.Y.Y.Y.Y.Y.Y.Y.Y.Y.Y.Y.Y.Y.; v.A.Z.Z.Z.Z.Z.Z.Z.Z.Z.Z.Z.Z.Z.Z.Z.J.n = Y.Y.Y.Y.Y.Y.Y.Y.Y.Y.Y.Y.Y.Y.Y.Y.Y.",
"Y.Y.Y.Y.Y.Y.Y.Y.Y.Y.Y.Y.Y.Y.Y.Y.Y.Y.Y.Y.Y.Y.Y.Y.Y.$ b.A.Z.Z.Z.Z.Z.Z.Z.Z.Z.Z.Z.Z.Z.Z.Z.Z.Z.K.5 Y.Y.Y.Y.Y.Y.Y.Y.Y.Y.Y.Y.Y.Y.Y.Y.Y.",
"Y.Y.Y.Y.Y.Y.Y.Y.Y.Y.Y.Y.Y.Y.Y.Y.Y.Y.Y.Y.Y.Y.Y.Y.v &.Z.Z.Z.Z.Z.Z.Z.Z.Z.Z.Z.Z.Z.Z.Z.Z.Z.Z.Z.Z.l.# Y.Y.Y.Y.Y.Y.Y.Y.Y.Y.Y.Y.Y.Y.Y.Y.",
"Y.Y.Y.Y.Y.Y.Y.Y.Y.Y.Y.Y.Y.Y.Y.Y.Y.Y.Y.Y.Y.Y.Y.h.= C.Z.Z.Z.Z.Z.Z.Z.Z.Z.Z.Z.Z.Z.Z.Z.Z.Z.Z.Z.Z.Z.v Y.Y.Y.Y.Y.Y.Y.Y.Y.Y.Y.Y.Y.Y.Y.Y.",
"Y.Y.Y.Y.Y.Y.Y.Y.Y.Y.Y.Y.Y.Y.Y.Y.Y.Y.Y.Y.Y.Y.F.} X.Z.Z.Z.Z.Z.Z.Z.Z.Z.Z.Z.Z.Z.Z.Z.Z.Z.Z.Z.Z.Z.Z.7.; Y.Y.Y.Y.Y.Y.Y.Y.Y.Y.Y.Y.Y.Y.Y.",
"Y.Y.Y.Y.Y.Y.Y.Y.Y.Y.Y.Y.Y.Y.Y.Y.Y.Y.Y.Y.Y.Y.D.5 i.Z.Z.Z.Z.Z.Z.Z.Z.Z.Z.Z.Z.Z.Z.Z.Z.Z.Z.Z.Z.Z.Z.V.@ Y.Y.Y.Y.Y.Y.Y.Y.Y.Y.Y.Y.Y.Y.Y.",
"Y.Y.Y.Y.Y.Y.Y.Y.Y.Y.Y.Y.Y.Y.Y.Y.Y.Y.Y.Y.Y.D.v.@ C.Z.Z.Z.w.N.Z.Z.Z.Z.Z.Z.Z.Z.Z.Z.Z.Z.d.t.Z.Z.Z.Z.4 Y.Y.Y.Y.Y.Y.Y.Y.Y.Y.Y.Y.Y.Y.Y.",
"Y.Y.Y.Y.Y.Y.Y.Y.Y.Y.Y.Y.Y.@ @ ; . # Y.Y.Y.F.f.7 Z.Z.Z.Z.C # y $.n.Z.Z.Z.Z.Z.Z.u.o.4 ; #.Z.Z.Z.Z.x Y.Y.Y.Y.Y.Y.Y.Y.Y.Y.Y.Y.Y.Y.Y.",
"Y.Y.Y.Y.Y.Y.Y.Y.Y.Y.Y.@ 2 t.Z.Z.V.5.@ Y.Y.F.<.x Z.Z.Z.Z.s.B.r.F ; B Z.Z.Z.Z.6 2 Q y.N.n.Z.Z.Z.Z.B Y.Y.Y.Y.Y.Y.Y.Y.Y.Y.Y.Y.Y.Y.Y.",
"Y.Y.Y.Y.Y.Y.Y.Y.Y.Y.7 x V.Z.Z.Z.Z.Z.i.@ Y.F.,.x Z.Z.Z.C.  + p $.p.N.Z.Z.Z.Z.M.t.o.t . 3 Z.Z.Z.Z.b Y.Y.Y.Y.@ @ . # Y.Y.Y.Y.Y.Y.Y.",
"Y.Y.Y.Y.Y.Y.Y.Y.Y.,.; N.Z.t.$.a.Z.Z.Z.B a F.q.k Z.Z.Z.C.. U J 9 # ..Z.Z.Z.Z.l % G J I 2 Z.Z.Z.Z.y Y.Y.Y.$ 1.n.N.5.2 @ Y.Y.Y.Y.Y.",
"Y.Y.Y.Y.Y.Y.Y.Y.D.n -.n.j 4 K $ d.Z.Z.6.2 D.k.4 Z.Z.Z.Z.l 8 J G $ r.Z.Z.Z.Z.$.1 H H 1  .Z.Z.Z.Z.@ Y.Y.; n.Z.Z.Z.Z.C.z @ Y.Y.Y.Y.",
"Y.Y.Y.Y.Y.Y.Y.Y.S.7 #.$ O.S.S.|  .Z.Z.N.@ S.S.@ V.Z.Z.Z.V.=.n C y.Z.Z.Z.Z.Z.Z.5.B M 3.Z.Z.Z.Z.n.. Y.7 w.Z.Z.M.$.o.5.B.# Y.Y.Y.Y.",
"Y.Y.Y.Y.Y.Y.Y.D.D.*.7 9.F.D.D.*.C Z.Z.Z.# z.S.7 y.Z.Z.Z.Z.Z.Z.Z.Z.Z.Z.Z.Z.Z.Z.Z.Z.Z.Z.Z.Z.Z.Z.3.2 h.; Z.Z.V.2 K X.7 @ : @ Y.Y.Y.",
"Y.Y.Y.Y.Y.Y.Y.D.D.D.Y.Y.Y.F.D.O. .Z.Z.Z.4 q.S.X. .Z.Z.Z.Z.Z.Z.Z.Z.Z.Z.Z.Z.Z.Z.Z.Z.Z.Z.Z.Z.Z.Z.k O.*.C Z.Z.1.v F.F.F.Y.Y.Y.Y.Y.Y.",
"Y.Y.Y.Y.Y.Y.Y.Y.D.Y.Y.Y.Y.Y.S.V -.Z.Z.Z.b *.S.f.; Z.Z.Z.Z.Z.Z.Z.Z.t.C E C E n.Z.Z.Z.Z.Z.Z.Z.M.. x.O.W Z.Z.#.c F.D.D.F.Y.Y.Y.Y.Y.",
"Y.Y.Y.Y.Y.Y.Y.Y.Y.Y.Y.Y.Y.Y.S.a r.Z.Z.Z.W N D.S.7 r.Z.Z.Z.Z.Z.Z.Z.n.-.-.-.1.N.Z.Z.Z.Z.Z.Z.Z.#.7 S.<.x Z.Z.5.# Y.Y.Y.Y.Y.Y.Y.Y.Y.",
"Y.Y.Y.Y.Y.Y.Y.Y.Y.Y.Y.Y.Y.F.S.< n.Z.Z.Z.=.2 D.D.;.y Z.Z.Z.Z.Z.Z.Z.Z.Z.Z.Z.Z.Z.Z.Z.Z.Z.Z.Z.B.@ :.F.x.# V.Z.V.# Y.Y.Y.Y.Y.Y.Y.Y.Y.",
"Y.Y.Y.Y.Y.Y.Y.Y.Y.Y.Y.Y.Y.D.S.+ Z.Z.Z.Z.t.# D.D.S.2 r.Z.Z.Z.Z.Z.Z.Z.Z.Z.Z.Z.Z.Z.Z.Z.Z.Z.Z.o.@ Y.F.S.a 6.Z.Z.$.# Y.Y.Y.Y.Y.Y.Y.Y.",
"Y.Y.Y.Y.Y.Y.Y.Y.Y.Y.Y.Y.Y.D.k.; Z.Z.Z.Z.V.. Y.D.D.<.4 C.Z.Z.Z.Z.Z.Z.Z.Z.Z.Z.Z.Z.Z.Z.Z.Z.n.+ Y.Y.S.S.&.B Z.Z.B.# Y.Y.Y.Y.Y.Y.Y.Y.",
"Y.Y.Y.Y.Y.Y.Y.Y.Y.Y.Y.Y.Y.D.h.6 Z.Z.Z.Z.Z.y Y.D.D.D.v o.Z.Z.Z.Z.Z.Z.Z.Z.Z.Z.Z.Z.Z.Z.Z.Z.k Y.Y.Y.F.S.x.$ Z.Z.Z.=.# Y.Y.Y.Y.Y.Y.Y.",
"Y.Y.Y.Y.Y.Y.Y.Y.Y.Y.Y.Y.Y.D.q.p Z.Z.Z.Z.Z.t.@ Y.D.D.x.; r.Z.Z.Z.Z.Z.Z.Z.Z.Z.Z.Z.Z.Z.Z.#.$ Y.Y.Y.Y.D.S.$ m.Z.Z.N.@ Y.Y.Y.Y.Y.Y.Y.",
"Y.Y.Y.Y.Y.Y.Y.Y.Y.Y.Y.Y.Y.D.f.6 Z.Z.Z.Z.Z.Z.%.@ K 9.8.c : Z.Z.Z.Z.Z.Z.Z.Z.Z.Z.Z.Z.Z.M.  Y.Y.Y.Y.Y.D.x.@ N.Z.Z.Z.y Y.Y.Y.Y.Y.Y.Y.",
"Y.Y.Y.Y.Y.Y.Y.Y.Y.Y.Y.Y.Y.D.v.+ C.Z.Z.Z.Z.Z.Z.p.E p j Q a.Z.Z.Z.Z.Z.Z.Z.Z.Z.Z.Z.Z.Z.Z.1.@ # Y.Y.Y.q.7 E Z.Z.Z.Z.W Y.Y.Y.Y.Y.Y.Y.",
"Y.Y.Y.Y.Y.Y.Y.Y.Y.Y.Y.Y.Y.D.F.7 r.Z.Z.Z.Z.Z.Z.Z.Z.Z.Z.Z.Z.Z.Z.Z.Z.Z.Z.Z.Z.Z.Z.Z.Z.Z.Z.Z.B.#.:   . 4 =.Z.Z.Z.Z.Z.E Y.Y.Y.Y.Y.Y.Y.",
"Y.Y.Y.Y.Y.Y.Y.Y.Y.Y.Y.Y.Y.D.D.*.p Z.Z.Z.Z.Z.Z.Z.Z.Z.Z.Z.Z.Z.Z.Z.Z.Z.Z.Z.Z.Z.Z.Z.Z.Z.Z.Z.Z.Z.Z.C.V.Z.Z.Z.Z.Z.Z.Z.z Y.Y.Y.Y.Y.Y.Y.",
"Y.Y.Y.Y.Y.Y.Y.Y.Y.Y.Y.Y.Y.D.D.D.7 W Z.Z.Z.Z.Z.Z.Z.Z.Z.Z.Z.Z.Z.Z.Z.Z.Z.Z.Z.Z.Z.Z.Z.Z.Z.Z.Z.Z.Z.Z.Z.Z.Z.Z.Z.Z.Z.V.@ Y.Y.Y.Y.Y.Y.Y.",
"Y.Y.Y.Y.Y.Y.Y.Y.Y.Y.Y.Y.Y.Y.D.>.# ; B N.Z.Z.Z.Z.Z.Z.Z.Z.Z.Z.Z.Z.Z.Z.Z.Z.Z.Z.Z.Z.Z.Z.Z.Z.Z.Z.Z.Z.Z.Z.Z.Z.Z.Z.Z.C @ Y.Y.Y.Y.Y.Y.Y.",
"Y.Y.Y.Y.Y.Y.Y.Y.Y.Y.Y.Y.Y.Y.<.* ) ] h $ B %.-.#.z z Z.Z.Z.Z.Z.Z.Z.Z.Z.Z.Z.Z.Z.Z.Z.Z.Z.Z.Z.Z.Z.Z.Z.Z.Z.Z.Z.Z.o.@ Y.Y.Y.Y.Y.Y.Y.Y.",
"Y.Y.Y.Y.Y.Y.Y.Y.Y.Y.Y.Y.Y.Y.# / { { { ' R D A r . y.Z.Z.Z.Z.Z.Z.Z.6.C l x $.M.Z.Z.Z.Z.Z.Z.Z.Z.Z.Z.Z.Z.Z.a.j 4 Y.Y.Y.Y.Y.Y.Y.Y.Y.",
"Y.Y.Y.Y.Y.Y.Y.Y.Y.Y.Y.Y.Y.} g { { { { { { { ` * w.Z.Z.Z.Z.Z.Z.r.; p @.8.,.V $ 1.Z.Z.Z.Z.Z.Z.Z.Z.Z.B.2.x   N Y.Y.Y.Y.Y.Y.Y.Y.Y.Y.",
"Y.Y.Y.Y.Y.Y.Y.Y.Y.Y.Y.Y.x.@ ' { { { { { { { u o.Z.Z.Z.Z.Z.Z.W = 9.D.F.F.F.F.j.2 =.Z.Z.Z.Z.Z.Z.5.y . u ~ T X Y.Y.Y.Y.Y.Y.Y.Y.Y.Y.",
"Y.Y.Y.Y.Y.Y.Y.Y.Y.Y.Y.D.O.f { { { { { { ] S 6 C.Z.Z.Z.Z.Z.B p x.Y.Y.Y.F.F.S.D.k.$ a.Z.Z.Z.Z.Z. .A [ { { { / X Y.Y.Y.Y.Y.Y.Y.Y.Y.",
"Y.Y.Y.Y.Y.Y.Y.Y.Y.Y.Y.D.E ( { { { { { R #   u.Z.Z.Z.Z.Z.o.7 Y.Y.Y.Y.Y.Y.Y.D.D.D.@.n Z.Z.Z.Z.Z.o.D { { { { { ( . Y.Y.Y.Y.Y.Y.Y.Y.",
"Y.Y.Y.Y.Y.Y.Y.Y.Y.Y.Y.x.! { { { { { h 4 v b Z.Z.Z.Z.Z.r.= Y.Y.Y.Y.Y.Y.Y.Y.Y.D.D.v.@ N.Z.Z.Z.Z.o.D { { { { { { ^ . Y.Y.Y.Y.Y.Y.Y.",
"Y.Y.Y.Y.Y.Y.Y.Y.Y.Y.F.8.u { { { { T 6 x.= p.Z.Z.Z.Z.C.2 Y.Y.Y.Y.Y.Y.Y.Y.Y.Y.Y.D.D.p t.Z.Z.Z.Z.W - _ { { { { { { d . Y.Y.Y.Y.Y.Y.",
"Y.Y.Y.Y.Y.Y.Y.Y.Y.Y.D.O.A { { { [ # e.4.6 Z.Z.Z.Z.Z.2.# Y.Y.Y.Y.Y.Y.Y.Y.Y.Y.Y.D.D.n 3.Z.Z.Z.Z.b n # ( { { { { { ' X Y.Y.Y.Y.Y.Y.",
"Y.Y.Y.Y.Y.Y.Y.Y.Y.Y.S.C ~ { { { D @ F.L o.Z.Z.Z.Z.Z.7 Y.Y.Y.Y.Y.Y.Y.Y.Y.Y.Y.Y.D.F.v 3.Z.Z.Z.Z.2 h.<.- ' { { { { { d Y.Y.Y.Y.Y.Y.",
"Y.Y.Y.Y.Y.Y.Y.Y.Y.Y.F.l.[ { { { o Y.F.4 u.Z.Z.Z.Z.n.. Y.Y.Y.Y.Y.Y.Y.Y.Y.Y.Y.Y.F.F.7 y.Z.Z.Z.N.+ S.S...u { { { { { / X Y.Y.Y.Y.Y.",
"Y.Y.Y.Y.Y.Y.Y.Y.Y.F.D.t ( { { / X F.S.+ V.Z.Z.Z.Z.5.# Y.Y.Y.Y.Y.Y.Y.Y.Y.Y.Y.Y.D.x.# V.Z.Z.Z.1.4 D.D.S.2 ^ { { { { {   Y.Y.Y.Y.Y.",
"Y.Y.Y.Y.Y.Y.Y.Y.Y.D.D.< _ { { S . F.v.# Z.Z.Z.Z.Z.#.. Y.Y.Y.Y.Y.+ + Y.Y.Y.Y.Y.F.N  .Z.Z.Z.Z.y Y.Y.D.F.:.e { { { { { - Y.Y.Y.Y.Y.",
"Y.Y.Y.Y.Y.Y.Y.Y.Y.D.F.# ' { { , Y.S.x.$ Z.Z.Z.Z.Z. .Y.Y.Y.Y.Y.@.4 7 Y.Y.Y.Y.Y.+.2 N.Z.Z.Z.t.. Y.Y.D.F.S.# _ { { { { r Y.Y.Y.Y.Y.",
"Y.Y.Y.Y.Y.Y.Y.Y.Y.F.S.. [ { ] . Y.F.x.@ Z.Z.Z.Z.Z. .Y.Y.Y.Y.D.8.y a.# @ Y.Y.4 7 n.Z.Z.Z.Z.2 Y.Y.Y.Y.D.D.B T { { { { i Y.Y.Y.Y.Y.",
"Y.Y.Y.Y.Y.Y.Y.Y.Y.D.z.* { { ^ o Y.D.D.# n.Z.Z.Z.Z.=.@ Y.Y.Y.D.x.@ B.N.o.z B 5.Z.Z.Z.Z.Z.Q # Y.Y.Y.Y.D.D.;.f { { { { i Y.Y.Y.Y.Y.",
"Y.Y.Y.Y.Y.Y.Y.Y.Y.D.8.e { { S . Y.D.D.l 6.Z.Z.Z.Z.r.# Y.Y.Y.D.D.N E Z.Z.Z.Z.Z.Z.Z.Z.Z.o.$ Y.Y.Y.Y.Y.F.D.e.e { { { { q Y.Y.Y.Y.Y.",
"Y.Y.Y.Y.Y.Y.Y.Y.Y.D.M Y { { O Y.Y.D.D.*.B Z.Z.Z.Z.N.@ Y.Y.Y.D.D.x.2 C B.Z.Z.Z.Z.Z.d.z 5 Y.Y.Y.Y.Y.Y.Y.D.h.> { { { { X Y.Y.Y.Y.Y.",
"Y.Y.Y.Y.Y.Y.Y.Y.Y.9.# [ { ( X Y.Y.D.D.x.@ N.Z.Z.Z.Z.k Y.Y.Y.D.D.F.x.N @ C =.5.%.x # } Y.Y.Y.Y.Y.Y.Y.Y.D.f.> { { { _ . Y.Y.Y.Y.Y.",
"Y.Y.Y.Y.Y.Y.Y.Y.n # / { { w Y.Y.Y.Y.D.D.N o.Z.Z.Z.Z.6.# Y.Y.Y.F.F.D.S.z.@.V v L >.x.Y.Y.Y.Y.Y.Y.Y.Y.Y.D.:.f { { { Y . Y.Y.Y.Y.Y.",
"Y.Y.Y.Y.Y.Y.X @ A ' { [ d X Y.Y.Y.Y.F.D.z.# n.Z.Z.Z.Z.6 Y.Y.Y.Y.D.D.D.S.D.D.F.F.Y.Y.Y.Y.Y.Y.Y.Y.Y.Y.Y.S.x R { { { O Y.Y.Y.Y.Y.Y.",
"Y.Y.Y.Y.Y.Y.@ e D Y A * 6 Y.Y.Y.Y.Y.D.D.D.| j Z.Z.Z.Z.s.@ Y.Y.Y.Y.Y.Y.D.D.g.Y.Y.Y.Y.Y.Y.Y.Y.Y.Y.Y.Y.Y.g.# [ { { R X Y.Y.Y.Y.Y.Y.",
"Y.Y.Y.Y.F.F.S.,.} V X.q.Y.Y.Y.Y.Y.Y.Y.F.S.S.a  .Z.Z.Z.Z.t.@ Y.Y.Y.Y.Y.Y.Y.+ @ Y.Y.Y.Y.Y.Y.Y.Y.Y.Y.Y.x.: R { { ' o Y.Y.Y.Y.Y.Y.Y.",
"Y.Y.Y.Y.D.D.D.D.D.D.D.Y.Y.Y.Y.Y.Y.Y.Y.F.F.D.x.5 Q Z.Z.Z.Z.s.j + $ Y.  # 2 u.  Y.Y.Y.Y.Y.Y.Y.Y.Y.Y.Y.< S { { [ e . Y.Y.Y.Y.Y.Y.Y.",
"Y.Y.Y.Y.Y.Y.D.F.Y.Y.Y.Y.Y.Y.Y.Y.Y.Y.Y.Y.D.D.F.x.p x m.Z.Z.Z.Z.s.=.Q o.r.Z.1.@ Y.Y.Y.Y.Y.Y.X X X @ * ~ { { [ r ; Y.Y.Y.Y.Y.Y.Y.Y.",
"Y.Y.Y.Y.Y.Y.Y.Y.Y.Y.Y.Y.Y.Y.Y.Y.Y.Y.Y.Y.Y.D.D.F.S.| # $.B.Z.Z.Z.Z.Z.Z.Z.2.@ Y.Y.Y.Y.Y.Y.Y.w ^ ~ / { { { ( > y Y.Y.Y.Y.Y.Y.Y.Y.Y.",
"Y.Y.Y.Y.Y.Y.Y.Y.Y.Y.Y.Y.Y.Y.Y.Y.Y.Y.Y.Y.Y.Y.S.F.S.S.j.N $ b =.w.u.6.$.7 2 Y.Y.Y.Y.Y.Y.D.x.; h ( [ ' ^ r # O.Y.Y.Y.Y.Y.Y.Y.Y.Y.Y.",
"Y.Y.Y.Y.Y.Y.Y.Y.Y.Y.Y.Y.Y.Y.Y.Y.Y.Y.Y.Y.Y.Y.Y.S.S.D.D.D.x.:.K l p c L 9.Y.Y.Y.Y.Y.Y.Y.D.D.x.} : . ; y ;.v.Y.Y.Y.Y.Y.Y.Y.Y.Y.Y.Y.",
"Y.Y.Y.Y.Y.Y.Y.Y.Y.Y.Y.Y.Y.Y.Y.Y.Y.Y.Y.Y.Y.Y.Y.Y.Y.F.D.D.D.D.D.D.S.D.F.Y.Y.Y.Y.Y.Y.Y.Y.D.D.D.D.D.S.D.D.Y.Y.Y.Y.Y.Y.Y.Y.Y.Y.Y.Y.Y.",
"Y.Y.Y.Y.Y.Y.Y.Y.Y.Y.Y.Y.Y.Y.Y.Y.Y.Y.Y.Y.Y.Y.Y.Y.Y.Y.Y.Y.F.D.D.D.S.Y.Y.Y.Y.Y.Y.Y.Y.Y.Y.Y.D.D.D.D.D.Y.Y.Y.Y.Y.Y.Y.Y.Y.Y.Y.Y.Y.Y.Y.",
"Y.Y.Y.Y.Y.Y.Y.Y.Y.Y.Y.Y.Y.Y.Y.Y.Y.Y.Y.Y.Y.Y.Y.Y.Y.Y.Y.Y.Y.Y.Y.Y.Y.Y.Y.Y.Y.Y.Y.Y.Y.Y.Y.Y.Y.Y.Y.Y.Y.Y.Y.Y.Y.Y.Y.Y.Y.Y.Y.Y.Y.Y.Y.Y."
};
