/* XPM */
static char *c738c5a878d14222d12b25902e480d5bHDn4GOTvRqyQ9EUO[] = {
/* columns rows colors chars-per-pixel */
"64 64 68 1 ",
"  c None",
". c #000000",
"X c #050B05",
"o c #090D04",
"O c #0C1206",
"+ c #06140A",
"@ c #081C0D",
"# c #111708",
"$ c #131B09",
"% c #0A200F",
"& c #17200B",
"* c #1B260D",
"= c #1E2B0F",
"- c #0B2311",
"; c #0D2C15",
": c #103519",
"> c #123D1D",
", c #212F10",
"< c #243311",
"1 c #293A14",
"2 c #13401F",
"3 c #314417",
"4 c #324618",
"5 c #374E1B",
"6 c #384E1B",
"7 c #3B541D",
"8 c #154621",
"9 c #164B24",
"0 c #184F26",
"q c #195127",
"w c #195428",
"e c #1C5D2C",
"r c #1D612E",
"t c #1F6530",
"y c #1F6832",
"u c #216D34",
"i c #227136",
"p c #237538",
"a c #257C3B",
"s c #415B1F",
"d c #425E20",
"f c #466222",
"g c #4C6B25",
"h c #537528",
"j c #597D2B",
"k c #27813E",
"l c #28843F",
"z c #5C812C",
"x c #60872E",
"c c #62892F",
"v c #648D30",
"b c #679132",
"n c #6A9633",
"m c #6D9934",
"M c #73A137",
"N c #76A539",
"B c #77A839",
"V c #7CAE3C",
"C c #7EB13D",
"Z c #288640",
"A c #2A8B42",
"S c #2D9547",
"D c #81B53E",
"F c #84B93F",
"G c #85BB40",
"H c #3F908E",
"J c #40918F",
"K c #419493",
/* pixels */
"                                                                ",
"                                                                ",
"              ....                                              ",
"             ......                                      ....   ",
"             ..KH..             ..              ..      ......  ",
"             ..HK..             ..              ..      ..KH..  ",
"             ......                                     ..HK..  ",
"              ....                     ....             ......  ",
"                                      ......             ....   ",
"                                      ..KK..                    ",
"     ..                ..     ....    ..HK..                    ",
"     ..                ..    ......   ......                    ",
"                            ..4Vvo.    ....                     ",
"              ...           ..MGGd..           ...      ..      ",
"             ......         ..zGGCo.         ......     ..      ",
"            ..wSu...         .1GGGf..       ...uSw..            ",
"            ..SSSpX..        .$GGGN..      ..XpSSSX.            ",
"            ..iSSSaX.        ..GGGG..      .XaSSSi..            ",
"            ..+kSSSt..       .OGGGN..     ..tSSSkX..            ",
"     ....    ..;SSSSX.       .1GGGf..     .XSSSS;..             ",
"    ......    ..aSSS-.      ..vGGVo.      .-SSSa..    ....      ",
"    ..KK..    ..wSSS+.     ..<GGGd..      .+SSSq..   ......     ",
"    ..HK..     .>SSS..     ..vGGG*.       ..SSS>.    ..KK..     ",
"    ......     .9SSl..     ..DGGG..       ..ZSS9.    ..HK..     ",
"     ....     ..eSSA..     ..DGGGX.       ..ASSe..   ......     ",
"              ..iSSS@.     ..vGGG$.       .@SSSi..    ....      ",
"              ..tSSSw..    ..<GGGd..     ..qSSSt..              ",
"               .:SSSA@..    ..vGGCo.    ..@SSSS:.               ",
"               ..pSSSZ@..    .1GGGf..  ..@lSSSi..               ",
"   .....       ..XuSSSA-..   .OGGGN.. ..-ASSSuX..       .....   ",
"   ..1$..       ...tSSSAX.   ..GGGG.. .XASSSt...       ..$<..   ",
"  ..zGF<..       ..XZSSS>.   .OGGGN....>SSSlX..       ..<GGz..  ",
"  ..DGFNo..       ..9SSSr..  .1GGGf....rSSS8..       ..oNFGD..  ",
"  ..mGGGco...      .@SSSe.. ..vGGVo. ..eSSS+.      ...XcGFGm..  ",
"  ..sGGGFM4....    ..SSS8. ..<GGGd..  .8SSS..    ....4MGGGGd..  ",
"   ..bGGGGFBfX..   ..SSS:. ..vGGG&.   .:SSS..   ..XfVGGGGGb..   ",
"   ..XgVGFGGGv..   .+SSS:. ..DGGGX.   .:SSS@.   ..bFGGGGCgo..   ",
"    ...o7NGGGGf..  .;SSSq....DGGG..  ..wSSS;.  ..fGGGGN6X...    ",
"      ...obGGGM..  .;SSSl....vGGG*.  ..ZSSS;.  ..MGGGvo...      ",
"        ..oMGGGO.  ..SSSS2...<GGGs....8SSSA..  .OGGGMo..        ",
"         ..<GGG1.  ..9SSSS;...vGGVo..;SSSS9..  .1GGF<..         ",
"          ..BGGj..  ..wSSSS:..1GGGf.@SSSSw..  ..zGGN..          ",
"          ..jGGG1..  ..8SSSS;.OGGGB.XSSS8..  ..1GGGj..          ",
"           .7GGGC<......eSSSa..GGGD..SSe......<CGGG7.           ",
"    ...    .$DGGGFg$....+SSSk.OGGGN.XSS+....$gFGGGD#.    ...    ",
"   ......  ..7GGGGFFx*...iSSq.1GGGf.;Si...*xFGGGGG5..  ......   ",
"  ..>Au..   ..1mGGGGGD=..wSAX.vGGVo.iSw..=DGGGGFm1..   ..uA>..  ",
"  ..ASSe...  ...=jGGGGN..qS9.<GGGd.;SSw..NGGGGz=...  ...eSSA..  ",
"  ..uSSSyX........7GGGG=.eS@.vGGG*.iSSr.=GGGG6........XySSSu..  ",
"   .+SSSSA0;@+X....fGGG7.0S..DGGG..ASS0.7GGFf....X+@;qASSSS+.   ",
"   ..8SSSSSSSSSp@...MGGj.@SX.DGGG..SSS@.jGGN...%pSSSSSSSSS8..   ",
"    ..iSSSSSSSSSS-..fGGDO.0@.vGGG*.iSq.ODGGf..-SSSSSSSSSSu..    ",
"    ...8ZSSSSSSSSa..1GGGz..+.<GGGd.-8..zGGG1..aSSSSSSSSl8...    ",
"     .....XX;ySSSSq.OGGGGh....vGGVo...hGGGGo.0SSSSy;+X.....     ",
"       .......;ASSS+.cGGGGb1..1GGGf.OnGGGGz.+SSSA;.......       ",
"             ..-SSSq.#BGGGGGm.OGGGB.$GGGGB$.qSSS@..             ",
"              ..qSSS-.OhDGGGD..GGGG..GGDhO.-SSS0..              ",
"               ..aSSA-..o7CGN.OGGGN.OC7o..-ASSk..               ",
"               ..+aSSSe-..$Nf.1GGGf.*$..-eSSSa+..               ",
"                ...;9qqip@.$o.vGGVo...@piq09;...                ",
"       ..................................................       ",
"       ..................................................       ",
"                                                                ",
"                                                                "
};
