/* XPM */
static char *result[] = {
/* columns rows colors chars-per-pixel */
"64 64 97 2 ",
"   c #3E352B",
".  c #443C2D",
"X  c #493F2E",
"o  c #453D33",
"O  c #483D37",
"+  c #47412F",
"@  c #4B432E",
"#  c #514A2F",
"$  c #4B4235",
"%  c #4E443B",
"&  c #504B30",
"*  c #51463D",
"=  c #53493E",
"-  c #575032",
";  c #5F5A33",
":  c #645E35",
">  c #6C6738",
",  c #6F6A38",
"<  c #554B41",
"1  c #594E44",
"2  c #5C5145",
"3  c #5E5348",
"4  c #62564A",
"5  c #655A4E",
"6  c #685C4F",
"7  c #675B50",
"8  c #695E51",
"9  c #6D6154",
"0  c #716457",
"q  c #736659",
"w  c #76695B",
"e  c #796D5E",
"r  c #7B6E60",
"t  c #7E7162",
"y  c #827565",
"u  c #847768",
"i  c #877969",
"p  c #897C6C",
"a  c #83803E",
"s  c #8A863F",
"d  c #8A883F",
"f  c #959343",
"g  c #9E9D44",
"h  c #A8A848",
"j  c #B6B74A",
"k  c #BABC4C",
"l  c #90816F",
"z  c #8F8170",
"x  c #938473",
"c  c #968877",
"v  c #9B8C7A",
"b  c #9F907E",
"n  c #A2937F",
"m  c #C4C74F",
"M  c #C8CB4F",
"N  c #D3D753",
"B  c #D4D853",
"V  c #A39481",
"C  c #A89782",
"Z  c #A79885",
"A  c #AA9A86",
"S  c #AC9D89",
"D  c #B09F89",
"F  c #AFA08A",
"G  c #B3A28D",
"H  c #B6A691",
"J  c #B8A791",
"K  c #BAAA94",
"L  c #BEAD98",
"P  c #C0AF96",
"I  c #C0AF99",
"U  c #C4B39B",
"Y  c #C9B69D",
"T  c #CAB99F",
"R  c #C8B7A1",
"E  c #CDBBA3",
"W  c #D1BEA5",
"Q  c #D4C1A7",
"!  c #D5C4AC",
"~  c #D9C6AC",
"^  c #DECAAD",
"/  c #DECCB2",
"(  c #E0CCAF",
")  c #E2CEB3",
"_  c #E5D1B5",
"`  c #E8D5B7",
"'  c #E6D3B9",
"]  c #EAD6BA",
"[  c #EDD9BD",
"{  c #F0DCBF",
"}  c #EEDBC0",
"|  c #F1DDC2",
" . c #F5E1C5",
".. c #F8E3C7",
"X. c #F7E3C8",
"o. c #FAE6CA",
"O. c None",
/* pixels */
"O.O.O.O.O.O.O.O.O.O.O.O.O.O.O.O.O.O.O.O.O.O.O.O.O.O.O.O.O.O.O.O.O.O.O.O.O.O.O.O.O.O.O.O.O.O.O.O.O.O.O.O.O.O.O.O.O.O.O.O.O.O.O.O.",
"O.O.O.O.O.O.O.O.O.O.O.O.O.O.O.O.O.O.O.O.O.O.O.O.O.O.O.O.O.O.O.O.O.O.O.O.O.O.O.O.O.O.O.O.O.O.O.O.O.O.O.O.O.O.O.O.O.O.O.O.O.O.O.O.",
"O.O.O.O.O.O.O.O.O.O.O.O.O.O.O.O.O.O.O.O.O.O.O.O.O.O.O.O.O.O.O.O.O.O.O.O.O.O.O.O.O.O.O.O.O.O.O.O.O.O.O.O.O.O.O.O.O.O.O.O.O.O.O.O.",
"O.O.O.O.O.O.O.O.O.O.O.O.O.O.O.O.O.O.O.O.O.O.O.O.O.O.O.O.O.O.O.O.O.O.O.O.O.O.O.O.O.O.O.O.O.O.O.O.O.O.O.O.O.O.O.O.O.O.O.O.O.O.O.O.",
"O.O.O.O.O.O.O.O.O.O.O.O.O.O.O.O.O.O.O.O.O.O.O.O.O.O.O.O.O.O.O.O.O.O.O.O.O.O.O.O.O.O.O.O.O.O.O.O.O.O.O.O.O.O.O.O.O.O.O.O.O.O.O.O.",
"O.O.O.O.O.O.O.O.O.O.O.O.O.O.O.O.O.O.O.O.O.O.O.O.O.O.O.O.O.O.O.O.O.O.O.O.O.O.O.O.O.O.O.O.O.O.O.O.O.O.O.O.O.O.O.O.O.O.O.O.O.O.O.O.",
"O.O.O.O.O.O.O.O.O.O.O.O.O.O.O.O.O.O.O.O.O.O.O.O.O.O.O.O.O.O.O.O.O.O.O.O.O.O.O.O.O.O.O.O.O.O.O.O.O.O.O.O.O.O.O.O.O.. O.O.O.O.O.O.",
"O.O.O.O.O.O.O.O.O.O.O.O.O.O.O.O.O.O.O.O.O.O.O.O.O.O.O.O.O.O.O.O.O.O.O.O.O.O.O.O.O.O.O.O.O.O.O.O.O.O.O.O.O.O.O.O.X . O.O.O.O.O.O.",
"O.O.O.O.O.O.O.O.O.O.O.O.O.O.O.O.O.O.O.O.O.O.O.O.O.O.O.O.O.O.O.O.O.O.O.O.O.O.O.O.O.O.O.O.O.O.O.O.O.O.O.O.O.O.O.@ > M - + O.O.O.O.",
"O.O.O.O.O.O.O.O.O.O.O.O.O.O.O.O.O.O.O.O.O.O.O.O.O.O.O.O.O.O.O.O.O.O.O.O.O.O.O.O.O.O.O.O.O.O.O.O.O.O.O.+ @ O.O.X - j @ O.O.O.O.O.",
"O.O.O.O.O.O.O.O.O.O.O.O.O.O.O.O.O.O.O.O.O.O.O.O.O.O.O.O.O.O.O.O.O.O.O.O.O.O.O.O.O.O.O.O.O.O.O.O.O.O.O.: # O.O.O.O.  O.O.O.O.O.O.",
"O.O.O.O.O.O.O.O.O.O.O.O.O.O.O.O.O.O.O.O.O.O.O.O.O.O.O.O.O.O.O.O.O.O.O.O.O.O.O.O.O.O.O.O.O.O.O.O.O.O.# m k & O.O.O.  O.O.O.O.O.O.",
"O.O.O.O.O.O.O.O.O.O.O.O.O.O.O.O.O.O.O.O.O.O.O.O.O.O.O.O.* i U Q Q S 4 * O.O.O.O.O.O.O.O.O.O.O.O.O.. h N B d . O.O.O.O.O.O.O.O.O.",
"O.O.O.O.O.O.O.O.O.O.O.O.O.O.O.O.O.O.O.O.O.O.O.O.O.O.O.9 ^ ^ ^ ` o.o.o.! < O.O.O.O.O.O.O.O.O.O.O.O.O.+ f g + O.O.O.. O.O.O.O.O.O.",
"O.O.O.O.O.O.O.O.O.O.O.O.O.O.O.O.O.O.O.O.O.O.O.O.O.O.w ( ^ ^ ] o.o.o.o.o.| < O.O.O.O.O.O.O.O.O.O.O.O.O.+ @ O.O.O.+ , + O.O.O.O.O.",
"O.O.O.O.O.O.O.O.O.O.O.O.O.O.O.O.O.O.* 0 l x 9 * O.2 ^ ^ ^ _ o.o.o.o.o.o.o.' * O.* < 8 8 < * O.O.O.O.O.O.@ O.O.  s B :   O.O.O.O.",
"O.O.O.O.O.O.O.O.O.O.O.O.O.O.O.O.% v ^ ^ ( [ .._ 5 P ^ ^ ^  .o.o.o.o.o.o.o.o.v 7 ' o.o.o.o./ q < O.O.O.O.O.O.O.O.$ a + O.O.O.O.O.",
"O.O.O.O.O.O.O.O.O.O.O.O.O.O.O.% U ( ^ ( | o.o.o.0 ( ^ ^ _ o.o.o.o.o.o.o.o.o.| 8 o.o.o.o.o.o.o.V % O.O.O.O.O.O.O.O.  O.O.O.O.O.O.",
"O.O.O.O.O.O.O.O.O.O.O.O.O.O.O.v ^ ^ ^ [ o.o.o.! n ( ^ ^ { o.o.o.o.o.o.o.o.o.o.t ! o.o.o.o.o.o.o.w O.O.O.O.O.O.O.O.O.O.O.O.O.O.O.",
"O.O.O.O.O.O.O.O.O.O.O.O.O.O.* ^ ^ ^ ) o.o.o.o.A W ^ ^ ^ ..o.o.o.o.o.o.o.o.o.o.K S o.o.o.o.o.o.o.) * O.O.O.O.O.O.O.O.O.O.O.O.O.O.",
"O.O.O.O.O.O.O.O.O.O.O.O.O.O.q ^ ^ ^ [ o.o.o.o.y ( ^ ^ ( o.o.o.o.o.o.o.o.o.o.o./ u o.o.o.o.o.o.o.o.< O.O.O.O.O.O.O.O.O.O.O.O.O.O.",
"O.O.O.O.O.O.O.O.O.O.O.O.O.O.c ^ ^ ^ { o.o.o.o.9 ^ ^ ^ _ o.o.o.o.o.o.o.o.o.o.o.X.9 o.o.o.o.o.o.o.o.w O.O.O.O.O.O.O.O.O.O.O.O.O.O.",
"O.O.O.O.O.O.O.O.O.O.O.% $ O.G ^ ^ ^ | o.o.o.o.r ^ ^ ^ ` o.o.o.o.o.o.o.o.o.o.o.o.9 o.o.o.o.o.o.o.o.p O.% % O.O.O.O.O.O.O.O.O.O.O.",
"O.O.O.O.O.O.O.O.< v Q ~ Q x G ^ ^ ^ | o.o.o.o.y ^ ^ ^ [ o.o.o.o.o.o.o.o.o.o.o.o.9 o.o.o.o.o.o.o.o.z u R W K q % O.O.O.O.O.O.O.O.",
"O.O.O.O.O.O.O.9 ^ ^ ^ ` X./ A ^ ^ ^ { o.o.o.o.u ^ ^ ^ [ o.o.o.o.o.o.o.o.o.o.o.o.9 o.o.o.o.o.o.o.o.i / o.o.o.o.) < O.O.O.O.O.O.O.",
"O.O.O.O.O.O.1 ^ ^ ^ _ o.o.} c ^ ^ ^ [ o.o.o.o.t ^ ^ ^ ] o.o.o.o.o.o.o.o.o.o.o.o.8 o.o.o.o.o.o.o.o.w [ o.o.o.o.o.' % O.O.O.O.O.O.",
"O.O.O.O.O.O.G ^ ^ ^ | o.o.o.q ^ ^ ^ ` o.o.o.o.e ^ ^ ^ ` o.o.o.o.o.o.o.o.o.o.o.o.8 o.o.o.o.o.o.o.o.7 o.o.o.o.o.o.o.p O.O.O.O.O.O.",
"O.O.O.O.O.O.Q ^ ^ ^ X.o.o.o.t ^ ^ ^ ( o.o.o.o.w ^ ^ ^ ` o.o.o.o.o.o.o.o.o.o.o.o.8 o.o.o.o.o.o.o.' t o.o.o.o.o.o.o.U O O.O.O.O.O.",
"O.O.O.O.O.% ~ ^ ^ ^ o.o.o.o.S E ^ ^ ^ ....o.o.0 ^ ^ ^ _ o.o.o.o.o.o.o.o.o.o.o.o.8 o.o.o.o.o.o.o.H S o.o.o.o.o.o.o.E % O.O.O.O.O.",
"O.O.O.O.O.O.E ^ ^ ^ ..o.o.o.' x ^ ^ ( [ o.o.o.e ^ ^ ^ ) o.o.o.o.o.o.o.o.o.o.o.} r o.o.o.o.o.o.o.q ' o.o.o.o.o.o.o.H O.O.O.O.O.O.",
"O.O.O.O.O.O.A ^ ^ ^ { o.o.o.o.q ^ ^ ^ ) o.o.o.p ^ ^ ^ ( o.o.o.o.o.o.o.o.o.o.o.! p o.o.o.o.o.o.} 0 o.o.o.o.o.o.o.o.i O.O.O.O.O.O.",
"O.O.O.O.O.O.6 ^ ^ ^ ` o.o.o.o.G Y ^ ^ ^ ..o.o.v Q ^ ^ ^ o.o.o.o.o.o.o.o.o.o.o.R v o.o.o.o.o.o.S S o.o.o.o.o.o.o.X.< O.O.O.O.O.O.",
"O.O.O.O.O.O.% Q ^ ^ ^ ..o.o.o.| y ^ ^ ^ ] o...G T ( ( ~ ..o.o.o.o.o.o.o.o.o.o.S H X.o.o.o.o.o.8 } o.o.o.o.o.o.o.L < O.O.O.O.O.O.",
"O.O.O.O.O.O.O.r ^ ^ ^ ] o.o.o.o.p ~ ^ ^ ( o.o.T K ~ ( ( | o.o.o.o.o.o.o.o.o.o.z E o.o.o.o.o.W p o.o.o.o.o.o.o.X.3 O.O.O.O.O.O.O.",
"O.O.O.O.O.O.O.% T ^ ^ ^ ..o.o.o.~ n ^ ^ ( { o.` n ( ~ ( { o.o.o.o.o.o.o.o.o.o.q ' o.o.o.o.X.t / o.o.o.o.o.o.o.S < O.O.O.O.O.O.O.",
"O.O.O.O.O.O.O.O.2 ^ ^ ^ _ o.o.o.o.0 ( ( ( ( o...y ^ ( ( ] o.o.o.o.o.o.o.o.o.o.3 X.o.o.o.o.} 9 o.o.o.o.o.o.X.} < O.O.O.O.O.O.O.O.",
"O.O.O.O.O.O.O.O.O.l ^ ^ ^ [ o.o.o.K L ^ ^ ^ { o.9 ( ^ ^ ` o.o.o.o.o.o.o.o.o.X.3 o.o.o.o.X.V H o.o.o.o.o.o.o.7 O.O.O.O.O.O.O.O.O.",
"O.O.O.O.O.O.9 G U c J ^ ^ ^ { o.o...0 ( ^ ^ _ o.w ( ^ ^ ( o.o.o.o.o.o.o.o.o./ r o.o.o.o.| 7 X.o.o.o.o.o.o.x 9 V p < % O.O.O.O.O.",
"O.O.O.O.$ K ^ ^ ( { r Q ^ ^ ^ ..o.o.S Y ^ ^ (  .x ^ ^ ^ ( ..o.o.o.o.o.o.o.o.R v o.o.o.o.S A o.o.o.o.o.o.U r o.o.o.X.c % O.O.O.O.",
"O.O.O.O.i ^ ^ ^ [ o.| 0 ~ ^ ^ _ .... .w ( ( ( ` J P ^ ^ (  .o.o.o.o.o.o.o.o.Z H o.o.o.X.7 X.o.o.o.o.o.! 8 | o.o.o.o.o.7 O.O.O.O.",
"O.O.O.O.Y ^ ^ ^  .o.o.` 9 ^ ^ ^ ` ..o.n Q ^ ^ ^ ( n ( ( ( [ o.o.o.o.o.o.o.o.! } o.o.o.L V X.X.o.o.o.' 7 ] o.o.o.o.o.o.Z O.O.O.O.",
"O.O.O.O.U ^ ^ ^  .o.o.o.! y ^ ^ ^ ] o.[ e ^ ^ ^ _ y ( ~ ( ` o.o.o.o.o.o.o.o.o.o.o.o.X.7 } o.o.o.o.} 8 ! o.o.o.o.o.o.o.V O.O.O.O.",
"O.O.O.O.e ^ ^ ^ ] o.o.o.o.U x ^ ^ ^ ] o.v W ^ ^ ( y ( ^ ( _ ..o.o.o.o.o.o.o.o.o.o.o.K V o.o.o.o. .q U o.o.o.o.o.o.o.o.2 O.O.O.O.",
"O.O.O.O.* T ^ ^ ^  .o.o.o.o.J v ^ ^ ^ { } e ^ ^ ( n ^ ( ~ ( o.o.o.o.o.o.o./ R o.o.| 5 } o.o.o.X.r H o.o.o.o.o.o.o.o.G * O.O.O.O.",
"O.O.O.O.O.< ~ ^ ^ _ ..o.o.o.o.C C ( ^ ( | V E ^ ( T T ( ^ ^ ..o.o.o.o.o.o.Z H o.o.H V o.o.o.X.u S o.o.o.o.o.o.o.o.Q * O.O.O.O.O.",
"O.O.O.O.O.O.< ~ ^ ^ ) ..o.o.o.o.v G ^ ^ ^ [ w ^ ~ ( n ~ ^ ( { o.o.o.o.o.o.r } o.| 5 | o.o.o.x V o.o.o.o.o.o.o.o.E % O.O.O.O.O.O.",
"O.O.O.O.O.O.l l P ^ ^ (  .o.o.o.o.x J ( ^ ^ J U ( ( y ^ ^ ^ ` o.o.o.o.o.X.7 o.o.Z A o.o.o.c x o.o.o.o.o.o.o.X.V 0 7 O.O.O.O.O.O.",
"O.O.O.O.O.2 ^ ^ L l ^ ^ ^ ` ..o.o.o.x J ^ ^ ^ y ( ( n ^ ^ ^ ( o.o.o.o.o.! p o.' 7 X.o.o.V p o.o.o.o.o.o.o.! 9 V X.} * O.O.O.O.O.",
"O.O.O.O.O.e ^ ^ ^ ^ e A ^ ^ ( [ ..o.o.p P ( ^ ~ b ^ W U ( ( ^  .o.o.o.o.Z H o.t E o.o.z c o.o.o.o.o.o.] i r / o.o.o.2 O.O.O.O.O.",
"O.O.O.O.O.1 ^ ^ ^ _ o.U 9 U ( ^ ) { o.o.p J ^ ( b ^ ( c ~ ( ^ ` o.o.o.X.q } E t o.o.c x o.o.o.o.o. .v 7 E o.o.o.o.' < O.O.O.O.O.",
"O.O.O.O.O.O.p ^ ^ ^ [ o.o.S w W ( ( ) | o.c A ( ( y ( y ( ( ( ( o.o.o.} 7 X.8 ' X.u V o.o.o.o.o.o.i Z X.o.o.o.o. .8 O.O.O.O.O.O.",
"O.O.O.O.O.O.O.t ^ ^ ^ ` ..o.[ x w W ( ( ` | D c ( Y J P T ~ ( (  .o.o.A V v V  .r F o.o.o.X.} o.o.o.o.o.o.o.o.) 3 O.O.O.O.O.O.O.",
"O.O.O.O.O.O.O.O.* G ^ ^ ( [ ..o.{ v e E ^ ( _ U i ( l Q i ^ ~ ( } o.o.8 L w ' 9 L o.o.| S 5 J o.o.o.o.o.o.' i % O.O.O.O.O.O.O.O.",
"O.O.O.O.O.O.O.O.O.O.* p Y ^ ^ ] | ..{ v 9 U ( ^ ^ e ~ r p ( ( ( / o./ w 7 R 7 E o.] x 7 S | o.o.o.o./ S 4 * O.O.O.O.O.O.O.O.O.O.",
"O.O.O.O.O.O.O.O.O.O.O.O.O.% 9 S Q ( _ [ | G 0 D ^ ( i D 0 n ( ~ ^ } t 8 z 0 ' / p 7 H X.o.o.| Y p < < O.O.O.O.O.O.O.O.O.O.O.O.O.",
"O.O.O.O.O.O.O.O.O.O.O.O.O.O.O.O.= = 0 C T ( _ ! c y Y A 5 1 ~ ( ^ ! 1 7 p V 7 t W X./ G t 1 % % O.O.O.O.O.O.O.O.O.O.O.O.O.O.O.O.",
"O.O.O.O.O.O.O.O.O.O.O.O.O.O.O.O.O.O.O.O.O.= 2 i S U S r 8 < 3 ~ ~ 3 * 7 8 x V u 4 < < O.O.O.O.O.O.O.O.O.O.O.O.O.O.O.O.O.O.O.O.O.",
"O.O.O.O.O.O.O.O.O.O.O.O.O.O.O.O.O.O.O.O.O.O.O.O.O.O.% * % O o * % $ % % < % O.O.O.O.O.O.O.O.O.O.O.O.O.O.O.O.O.O.O.O.O.O.O.O.O.O.",
"O.O.O.O.O.O.O.O.O.O.O.O.O.O.O.O.O.O.O.O.O.O.O.O.O.O.O.O.O.O.O.O.O.O.O.O.O.O.O.O.O.O.O.O.O.O.O.O.O.O.O.O.O.O.O.O.O.O.O.O.O.O.O.O.",
"O.O.O.O.O.O.O.O.O.O.O.O.O.O.O.O.O.O.O.O.O.O.O.O.O.O.O.O.O.O.O.O.O.O.O.O.O.O.O.O.O.O.O.O.O.O.O.O.O.O.O.O.O.O.O.O.O.O.O.O.O.O.O.O.",
"O.O.O.O.O.O.O.O.O.O.O.O.O.O.O.O.O.O.O.O.O.O.O.O.O.O.O.O.O.O.O.O.O.O.O.O.O.O.O.O.O.O.O.O.O.O.O.O.O.O.O.O.O.O.O.O.O.O.O.O.O.O.O.O.",
"O.O.O.O.O.O.O.O.O.O.O.O.O.O.O.O.O.O.O.O.O.O.O.O.O.O.O.O.O.O.O.O.O.O.O.O.O.O.O.O.O.O.O.O.O.O.O.O.O.O.O.O.O.O.O.O.O.O.O.O.O.O.O.O.",
"O.O.O.O.O.O.O.O.O.O.O.O.O.O.O.O.O.O.O.O.O.O.O.O.O.O.O.O.O.O.O.O.O.O.O.O.O.O.O.O.O.O.O.O.O.O.O.O.O.O.O.O.O.O.O.O.O.O.O.O.O.O.O.O.",
"O.O.O.O.O.O.O.O.O.O.O.O.O.O.O.O.O.O.O.O.O.O.O.O.O.O.O.O.O.O.O.O.O.O.O.O.O.O.O.O.O.O.O.O.O.O.O.O.O.O.O.O.O.O.O.O.O.O.O.O.O.O.O.O."
};
