/* XPM */
static char *result[] = {
/* columns rows colors chars-per-pixel */
"64 64 203 2 ",
"   c #483D37",
".  c #4A413A",
"X  c #53473C",
"o  c #5D503D",
"O  c #614F39",
"+  c #66543C",
"@  c #6A593F",
"#  c #504740",
"$  c #594E4A",
"%  c #5F5647",
"&  c #5B544E",
"*  c #645644",
"=  c #665946",
"-  c #6C5B44",
";  c #655A4E",
":  c #6C5C4A",
">  c #615348",
",  c #715E46",
"<  c #725F4A",
"1  c #675D53",
"2  c #6A5F53",
"3  c #695E5A",
"4  c #6B604C",
"5  c #74624B",
"6  c #78644D",
"7  c #7C694F",
"8  c #736246",
"9  c #656157",
"0  c #6B6354",
"q  c #6D645C",
"w  c #6E685C",
"e  c #796752",
"r  c #756952",
"t  c #7C6A53",
"y  c #716659",
"u  c #736A5D",
"i  c #7C6D5D",
"p  c #736451",
"a  c #736D63",
"s  c #796E63",
"d  c #7B7165",
"f  c #757168",
"g  c #7D756B",
"h  c #7F7969",
"j  c #7D7572",
"k  c #816E56",
"l  c #816F5A",
"z  c #817157",
"x  c #84735B",
"c  c #89775E",
"v  c #8C785D",
"b  c #817463",
"n  c #867967",
"m  c #8C7A63",
"M  c #82766A",
"N  c #837969",
"B  c #8B7C69",
"V  c #8B7661",
"C  c #927E65",
"Z  c #837C73",
"A  c #897F73",
"S  c #807573",
"D  c #8E826A",
"F  c #95846C",
"G  c #99866D",
"H  c #9A896D",
"J  c #878076",
"K  c #8D8375",
"L  c #8E857C",
"P  c #958673",
"I  c #988370",
"U  c #9D8B73",
"Y  c #928679",
"T  c #928A7B",
"R  c #9B8D7A",
"E  c #9E9076",
"W  c #A18F76",
"Q  c #A18E7B",
"!  c #A29177",
"~  c #A4947B",
"^  c #A9977F",
"/  c #A8987F",
"(  c #938C83",
")  c #978F8C",
"_  c #988F88",
"`  c #988E85",
"'  c #9A9284",
"]  c #9B938B",
"[  c #9B998C",
"{  c #9E9693",
"}  c #A49582",
"|  c #AC9B83",
" . c #A59A8C",
".. c #AC9E8C",
"X. c #A99783",
"o. c #B19C84",
"O. c #B19F89",
"+. c #A09790",
"@. c #A69D93",
"#. c #A89C97",
"$. c #ABA18D",
"%. c #B4A28B",
"&. c #B9A68E",
"*. c #BAA98E",
"=. c #B3A286",
"-. c #ABA295",
";. c #A7A09A",
":. c #ACA39C",
">. c #B2A595",
",. c #B9A693",
"<. c #B5A897",
"1. c #BCAB92",
"2. c #BBAE9B",
"3. c #B2A89E",
"4. c #AFABA2",
"5. c #B5ADA2",
"6. c #BBAFA4",
"7. c #B4ADA9",
"8. c #BCB2A5",
"9. c #BCB4AB",
"0. c #BBB6B3",
"q. c #C1AE96",
"w. c #C0AF9B",
"e. c #C5B39A",
"r. c #C8B79B",
"t. c #CAB99E",
"y. c #C3B6A3",
"u. c #C8B7A3",
"i. c #CBBAA2",
"p. c #C6B9A9",
"a. c #CBBEAD",
"s. c #D1BEA5",
"d. c #C3BDB4",
"f. c #CBC3AF",
"g. c #D6C4AB",
"h. c #DAC6AD",
"j. c #DCCAAE",
"k. c #D3C2A6",
"l. c #CDC1B2",
"z. c #CCC8BF",
"x. c #C8C4BA",
"c. c #D3C5B3",
"v. c #D6CAB5",
"b. c #DDCBB2",
"n. c #D3C7BB",
"m. c #D5CBBB",
"M. c #DBCCBB",
"N. c #DDD1B7",
"B. c #DED0BD",
"V. c #E0CCAE",
"C. c #E0D0AE",
"Z. c #E1CDB2",
"A. c #E0CEBA",
"S. c #E4D1B5",
"D. c #E8D5B7",
"F. c #E4D3BB",
"G. c #EAD6BB",
"H. c #ECDABD",
"J. c #F2DFBF",
"K. c #D4CDC6",
"L. c #DBCFC1",
"P. c #DAD0C5",
"I. c #D7D2CA",
"U. c #DCD5CD",
"Y. c #DDD9D1",
"T. c #DED6D3",
"R. c #E4D4C2",
"E. c #E8D6C0",
"W. c #E7D8C1",
"Q. c #ECDBC2",
"!. c #ECDECC",
"~. c #F1DEC3",
"^. c #E2DBD4",
"/. c #E5DFDA",
"(. c #E8DFD8",
"). c #EFE1C7",
"_. c #E8E1CF",
"`. c #F4E3C6",
"'. c #FAE5C6",
"]. c #F6E5CB",
"[. c #F9E6CC",
"{. c #F6E8CD",
"}. c #FBE9CD",
"|. c #EFE6D7",
" X c #EBE4DC",
".X c #E5E1D8",
"XX c #F4E6D2",
"oX c #F9E6D1",
"OX c #F5E8D4",
"+X c #FBE9D1",
"@X c #F1E7DC",
"#X c #F6EADA",
"$X c #EFE9E1",
"%X c #EFEFED",
"&X c #F1EBE3",
"*X c #F3EFEA",
"=X c #F6F0E7",
"-X c #FCF4ED",
";X c #F9F4EA",
":X c #F6F6F5",
">X c #F9F4F1",
",X c #FFFCF6",
"<X c None",
/* pixels */
"<X<X<X<X<X<X<X<X<X<X<X<X<X<X<X<X<X<X<X<X<X<X<X<X<X<X<X<X<X<X<X<X<X<X<X<X<X<X<X<X<X<X<X<X<X<X<X<X<X<X<X<X<X<X<X<X<X<X<X<X<X<X<X<X",
"<X<X<X<X<X<X<X<X<X<X<X<X<X<X<X<X<X<X<X<X<X<X<X<X<X<X<X<X<X<X<X<X<X<X<X<X<X<X<X<X<X<X<X<X<X<X<X<X<X<X<X<X<X<X<X<X<X<X<X<X<X<X<X<X",
"<X<X<X<X<X<X<X<X<X<X<X<X<X<X<X<X<X<X<X<X<X<X<X<X<X<X<X<X<X<X<X,X<X<X<X<X<X<X<X<X<X<X<X<X<X<X<X<X<X<X<X<X<X<X<X<X<X<X<X<X<X<X<X<X",
"<X<X<X<X<X<X<X<X<X<X<X<X<X<X<X<X<X<X<X<X<X<X<X<X<X<X<X<X<X<X<X<X<X<X<X<X<X<X<X<X<X<X<X<X<X<X<X<X<X<X<X<X<X<X<X<X<X<X<X<X<X<X<X<X",
"<X<X<X<X<X<X<X<X<X<X<X<X<X<X<X<X<X<X<X<X<X<X<X:X<X<X<X<X<X<X<X<X,X<X<X<X<X<X<X<X<X<X<X,X<X<X<X<X<X<X<X<X<X<X<X<X<X<X<X<X<X<X<X<X",
"<X<X<X<X<X<X<X<X<X<X<X<X<X<X<X<X<X<X<X<X<X<X<X<X<X<X<X<X<X<X<X<X<X<X<X<X<X<X<X<X<X<X<X<X<X<X<X<X<X<X<X<X<X<X<X<X<X<X<X<X<X<X<X<X",
"<X<X<X<X<X<X<X<X<X<X<X<X<X<X<X<X<X<X<X<X<X<X<X<X<X<X<X<X<X<X<X<X<X<X<X<X<X<X<X<X<X,X<X<X<X<X<X<X<X<X<X<X<X<X<X<X<X<X<X<X<X<X<X<X",
"<X<X<X<X<X<X<X<X<X<X<X<X<X<X<X<X<X<X<X<X<X,X<X<X<X<X<X<X<X<X<X<X<X<X<X<X<X<X<X<X<X<X<X<X<X<X<X<X<X<X<X<X<X<X<X<X<X<X<X<X<X<X<X<X",
"<X<X<X<X<X<X<X<X<X<X<X<X<X<X<X<X<X<X<X<X<X<X<X<X<X<X<X<X<X<X<X<X<X<X<X<X<X<X<X<X<X<X<X<X<X<X<X<X<X<X<X<X<X<X<X<X<X<X<X<X<X<X<X<X",
"<X<X<X<X<X<X<X<X<X<X<X<X<X<X<X<X<X<X<X<X<X<X<X<X<X<X<X<X<X<X<X<X<X,X<X<X<X<X<X<X<X<X<X<X<X<X<X<X<X<X<X<X<X<X<X<X<X<X<X<X<X<X<X<X",
"<X<X<X<X<X<X<X<X<X<X<X<X<X<X<X<X<X<X<X<X<X<X<X<X<X<X<X<X<X,X,X<X,X,X,X<X<X<X<X<X<X<X<X<X:X<X<X<X<X<X<X<X<X<X<X<X<X<X<X<X<X<X<X<X",
"<X<X<X<X<X<X<X<X<X<X<X<X<X<X<X<X<X<X<X,X<X<X<X<X<X<X<X<X<X$X0.#.;.0.=X<X,X<X<X<X<X<X<X<X<X<X<X<X<X<X<X<X<X<X<X<X<X<X<X<X<X<X<X<X",
"<X<X<X<X<X<X<X<X<X<X<X<X<X<X<X<X<X,X<X<X,X<X<X,X<X<X,X XM Y y.c.c.-.w N $X,X<X<X<X<X<X<X<X<X,X<X<X<X<X<X<X<X<X<X<X<X<X<X<X<X<X<X",
"<X<X<X<X<X<X<X<X<X<X<X<X<X<X<X<X,X<X<X<X<X<X<X<X,X,XK.a M.c.M.F.].{.#Xc.1 K.,X,X,X<X<X<X<X,X<X<X<X<X,X<X<X<X<X<X<X<X<X<X<X<X<X<X",
"<X<X<X<X<X<X<X<X<X<X<X<X<X<X<X<X<X<X,X<X*X:X,X<X,XU.g M.A.V.G.[.[.}.].oX!.1 U.,X<X,X:X%X<X<X<X<X<X<X<X<X<X<X<X<X<X<X<X<X<X<X<X<X",
"<X<X<X<X<X<X<X<X<X<X<X<X<X<X<X<X,XK.g a ( ( f g n.y M.b.V.S.'.'.'.'.}.}.XXR.1 n.g 3 f a 9 f K.,X,X<X<X:X,X<X<X<X<X<X<X<X<X<X<X<X",
"<X<X<X<X<X<X<X<X,X<X,X<X<X<X<X,XT ~ b.M.M.W.#XR.5 1.N.b.Z.~.[.[.}.[.[.[.].oXR < P.XXXXXXOXM.n Y ,X<X<X<X<X<X<X<X<X,X<X,X<X<X<X,X",
"<X,X<X<X<X<X<X<X<X<X<X<X<X<X,XT u.g.V.V.`.].XX].8 V.j.j.S.}.}.[.[.[.`.[.[.].~., }.].+X{.].].[. .( :X<X<X:X<X<X<X<X,X<X<X<X<X:X<X",
"<X<X<X<X<X,X<X<X<X<X<X<X<X<XK.' b.Z.j.H.[.oX].g.~ j.j.Z.~.].+X'.}.[.[.[.[.[.].x g.oX+X{.}.oX].oXg K.<X<X<X<X<X<X<X,X<X<X<X<X<X<X",
"<X<X<X<X,X<X<X<X<X<X<X<X<X<Xf v.j.j.Z.[.[.oX].X.k.h.V.j.].'.'.}.}.}.[.[.`.}.oX1.| oX`.[.}.[.[.oXL.f ,X<X<X<X<X<X<X<X<X:X<X<X<X<X",
"<X<X<X<X<X:X<X<X<X<X<X<X<X,Xd b.j.Z.D.[.].].oXc j.j.j.Z.}.}.'.}.`.[.[.}.[.[.+Xb.m ].}.}.[.].].oXXX1 ,X<X<X<X:X<X<X<X:X<X<X<X<X<X",
"<X<X<X<X<X<X<X<X<X<X<X<X,X#XR Z.j.j.H.[.].].oX5 j.h.j.G.].[.[.'.+X[.[.'.'.+X].].8 {.].{.'.}.}.+XoXb @X,X<X<X<X<X<X<X<X<X<X<X<X<X",
"<X<X<X<X<X<X<X,X,X/.4.' -...,.b.b.Z.J.'.+XoXoXt j.j.Z.S.}.[.[.'.[.[.}.}.].'.+X].< [.[.[.}.'.[.[.].R -.@._ 7.T.<X:X<X<X<X<X<X<X<X",
"<X<X<X<X<X<X,X.Xa ' f.m.l.P O.b.b.j.`.[.{.[.oXx j.j.V.G.}.'.}.}.}.'.}.'.+X'.[.}.5 [.[.}.[.[.oX].oXB B y.a.5.M a .X,X<X<X<X<X<X<X",
":X<X<X<X<X<XU.s M.v.v.N.OXb.| v.Z.j.~.].[.[.+Xc b.V.V.D.}.[.[.'.}.[.[.'.[.[.[.}.< [.}.].[.[.[.[.].m b.{.#XXXOXA.1 ^.,X<X<X<X<X<X",
"<X:X<X<X<X,Xa M.j.j.S.}.`.H.U b.j.j.J.'.oXoXoXk j.j.Z.D.[.[.[.[.}.[.[.[.[.}.[.}., oX}.].'.'.}.oXOXr !.{.oX[.[.}.R.3 ,X<X<X<X<X<X",
"<X<X<X<X,XI.$.b.j.j.`.`.'.}.p b.b.V.D.'.+XoXoXk j.j.j.D.}.[.[.[.].[.}.[.[.[.].oX, [.].}.}.'.}.[.oX- {.}.'.}.'.}.oXY K.<X<X<X,X<X",
",X<X<X<X,X;.c.b.V.j.'.'.}.[.l b.Z.V.Z.[.~.[.oXk V.V.j.D.[.[.[.[.'.[.}.'.[.[.oXoX- ].[.}.'.[.+X}.F.z [.}.'.'.'.'.oX6.#.<X<X<X:X<X",
"<X<X<X<X<X( f.j.C.V.'.}.'.'.O.i.b.h.V.~.[.oXoX< j.V.V.Z.}.}.[.[.[.[.}.'.[.[.oX~.< oXoX[.].}.[.[.>.o.oX}.'.'.'.'.].a.) <X<X<X<X<X",
"<X<X<X<X<X5.f.b.V.V.'.].].}.F.P Z.V.V.Q.[.oX~.k j.j.V.V.}.].}.}.[.'.}.[.[.[.+XQ.t [.}.{.}.}.[.oXe F.].'.}.[.'.}.].>.7.<X<X<X<X<X",
"<X<X<X<X<XT.-.j.V.j.J.[.[.`.+Xe h.V.h.Z.[.+X[.C j.V.j.V.[.[.[.'.[.[.}.].[.oXoXh.m ].[.[.].].+XG.6 }.].[.[.[.}.].OXJ Y.<X<X<X<X<X",
"<X<X<X<X<X,Xu N.h.V.D.].{.[.{.%.u.V.Z.V.~.oX[.W g.V.j.V.'.[.}.'.[.}.'.].}.+X~.u.Q [.].}.].}.[.=.=.oX[.[.[.+X'.].XX0 :X<X<X<X<X<X",
"<X<X<X<X<X,X[ l.b.V.Z.~.[.[.[.).z b.b.b.H.].].=.i.b.V.V.~.}.[.[.'.}.'.[.].}.oXX.%.{.}.].oX].].: Q.[.}.[.[.[.[.XX2.] <X<X<X<X<X<X",
":X<X<X<X<X<X&XM h.V.V.G.[.[.'.'.C h.b.j.b.+X+Xr.&.b.V.h.~.[.[.}.'.[.[.[.].}.].F t.}.{.[.}.}.k.m }.[.'.[.}.].+XoX0 %X<X<X<X<X<X<X",
"<X<X<X<X<X<X,X+.y.b.V.V.].}.'.{.g.~ b.b.b.Q.{.D.W j.Z.h.~.[.'.[.}.[.}.}.[.oXoX6 F.}.].oX{.{.V g.[.}.}.}.[.}.].$. .,X<X<X<X<X<X,X",
"<X<X<X<X<X<X<X>Xt b.b.Z.S.'.{.}.[.6 b.j.j.N.}.`.z j.V.Z.G.[.[.[.'.}.}.}.[.].+XO ].].+X].].G.5 oX[.}.[.[.+X{.F.4 ;X,X<X<X<X<X,X<X",
"<X<X<X<X<X<X,XL...F b.b.b.G.}.[.[.q.q.j.b.j.`.{.8 Z.j.V.S.[.[.[.[.[.[.oX[.[.!.+ }.}.oXoX+XW ,.].].'.[.~.+X~.r $.K.,X<X<X<X<X,X,X",
"<X:X<X<X:X4.s >.y.U *.h.b.b.H.'.[.[.8 j.b.b.S.].7 Z.Z.j.Z.[.[.}.[.'.[.oX[.[.A.k {.{.].].].+ [.+X+X[.oXoX+XP y } T 1 #.,X<X<X<X<X",
"<X<X<X,X( 2.n.b.b.Q.l s.A.h.Z.~.[.].o.t.b.b.b.].H k.V.j.Z.'.[.}.'.[.[.[.[.oXe.W [.oX].[.o.^ ].}.'.}.[.+Xw.i oXoXXX|.` ( <X,X,X<X",
"<X<X<X.XJ m.b.j.Q.}.Q.6 h.V.j.V.'.].].7 b.b.h.G.*.e.j.Z.Z.~.[.].}.[.[.[.[.~.o.&.}.{.].].- `.+X].'.}.].h.< !.oXXX{.{.#X9 .X<X<X<X",
"<X<X,X7.y.b.b.j.J.[.}.S.p b.V.V.S.[.].! k.b.N.j.j.~ C.V.Z.J.'.[.'.'.[.}.].}.g.Q.}.[.].1.U {.}.{.].}.A., E.oX}.}.].{.XX .9.<X<X<X",
"<X<X<Xd.8.N.j.h.'.}.'.}.k.x h.V.b.G.}.Q.t b.j.b.G.z j.j.j.D.[.[.[.}.'.}.].[.}.+X].+X`., Q.}.oX[.[.~.< s.oX+X'.'.}.].OX] d.<X<X<X",
"<X<X<X*XN c.j.C.G.[.}.].+Xe.C A.b.h.Q.oXH k.b.b.b.z j.N.Z.Z.}.}.}.'.[.'.+X}.[.[.}.'.*.U ].{.].].].6 w.+X~.~.}.'.[.].XX0 :X:X<X<X",
"<X<X<X<X` f.j.j.Z.~.'.+X].oXw.Q b.b.g.).Q.t b.b.b.| j.j.b.V.].'.[.[.}.[.oXZ.e.}.{.].@ ~.oX].[.oXz %.].+X[.[.'.[.[.OX>._ ,X<X<X<X",
"<X<X<X<X,Xy v.b.Z.Z.'.'.].[.{.| / b.b.b.Q.! i.j.j.i.t.j.j.b.[.}.[.[.'.}.~.o.q.].oX%.! {.}.].oXV | {.}.].}.[.[.].].f.1 ,X<X<X<X<X",
"<X<X<X<X,X=X- g.b.b.Z.].}.}.{.{.U *.j.N.b.Q.7 b.b.b.U V.j.Z.H.[.}.'.].}.+Xe F.].`.- `.oX`.oXI W oX].+X[.].].'.+Xa.% =X,X<X<X,X<X",
"<X:X<X<X,Xx.P D e.b.Z.V.~.'.}.}.{.F *.j.j.b.&.e.b.b.c g.j.Z.S.}.[.}.}.].oX: oX+X} X.{.].OXR F ].[.[.}.].[.+X{.} p 0 x.,X<X<X<X<X",
"<X<X<X<X,Xu n.b.q.C b.V.j.G.'.`.`.].F 1.j.C.N.i b.h.| Z.V.j.Z.[.}.].}.].h.B ].F.- XX].].U F oX[.].}.[.+XoXg.5 E XX_.9 ,X<X<X<X<X",
"<X<X<X:X,Xh N.j.C.j.7 o.Z.b.Z.Q.].].].F *.j.b.h.~ b.i.r.b.h.b.`.[.[.].oXX.,.].c i.OXoXG G ].oX[.[.{.OXG.C k V.+XoXOX3 ,X,X<X<X<X",
"<X<X<X<X,Xu v.b.g.S.oXe.8 e.j.b.A.~.}.`.F *.h.Z.! h.b.U b.b.b.Q.`.{.}.[.5 W.u.l OX].F F [.+X].oX].`.U - i.!.oX~.+XE.y ,X,X<X<X<X",
"<X<X<X<X,XK.K B.j.N.G.{.'.^ 7 s.Z.Z.S.].].G o.Z.Z.V v.V Z.h.h.S.}.}.oXF.5 ].: R.].V Q [.[.[.+X[.}.V X.].oXoX].#X!.u K.<X:X<X<X<X",
"<X<X<X<X,X,Xx.N m.v.N.R.[.].J.G e s.b.h.S.~.o.I Z.e.,.q.u.Z.Z.j.[.].+X..Q R } XXi | oX].[.].~.[.'.'.+X].+XXXXXM.a 9.<X<X<X<X<X<X",
"<X<X<X<X<X<X<XY.u -.n.M.A.W.].].Q.E z i.b.b.F.e.V Z.G s.V Z.j.Z.W.oX].< 1.t F.< 2.OX+X].| - %.[.}.[.oXoXoXL.A q Y.<X<X<X<X<X:X<X",
"<X<X<X<X<X<X<X:X,Xz.g Y p.M.b.S.Q.].W.E 8 e.b.b.h.k g.k C V.j.Z.S.[.b.e * u.= i.+XF.F - | !.].oXoXoXL.@.a s K.,X:X:X<X<X<X<X:X<X",
":X,X<X<X<X<X<X<X<X,X,X$X6.s s ,.c.M.F.W._.%.5 %.v.A.m | < ~ b.b.j.Q.c - F p R.v.n : <.|.XXXX!.p.Y 2 M 9.*X,X,X,X<X<X<X<X<X<X<X<X",
"<X<X<X<X<X<X<X<X<X<X<X<X<X,X,XP. .s d  .p.B.P.c.R b p. .: o v.v.b.v.o * N  .; M f.|.n.-.A 1 a ] K.,X,X,X<X<X<X<X<X<X<X<X<X<X<X<X",
",X<X,X<X<X<X<X<X<X<X<X<X<X<X<X,X,X,X,XI.4.J q L :.6.@.s 3 X % n.x.> X ; 1 L { L q q Z 7. X,X<X,X<X<X<X<X<X<X<X<X<X<X<X<X<X<X<X,X",
"<X<X<X<X<X<X<X<X<X<X<X<X<X<X<X<X<X<X,X,X<X,X,X,X^.7.) S 3 $   . # . & q j { 0.I.>X,X<X<X,X<X<X<X<X<X<X<X<X<X<X<X<X<X,X<X<X<X<X<X",
"<X<X<X<X<X<X<X<X<X<X<X<X<X<X<X<X<X<X<X<X<X<X,X,X,X<X<X<X<X,X,X<X,X<X<X<X<X<X<X<X<X<X<X,X<X<X<X<X<X<X<X<X<X<X<X<X<X<X<X<X<X<X<X<X",
"<X<X<X<X<X<X<X<X<X<X<X<X<X<X<X<X<X<X<X<X,X<X<X<X<X<X<X<X<X<X<X,X<X<X<X<X<X<X<X<X<X<X<X<X<X<X,X<X<X<X<X<X<X<X<X<X<X<X<X<X<X<X<X<X",
"<X<X<X<X<X<X<X<X<X<X<X<X:X<X<X<X<X<X<X:X<X<X,X,X<X<X<X,X<X<X,X,X<X<X<X<X<X<X<X<X<X,X<X<X<X,X,X<X<X<X<X,X<X<X<X<X<X<X<X<X<X<X<X<X",
"<X<X<X<X<X<X<X<X<X<X<X,X<X<X<X<X<X<X<X<X<X<X<X<X<X,X<X<X<X<X<X<X<X<X<X<X<X<X<X<X<X,X<X,X<X<X<X<X<X<X<X<X:X<X<X<X<X<X<X<X<X<X<X<X",
"<X<X<X,X<X<X<X<X<X<X<X<X,X<X<X<X<X<X<X<X<X,X<X<X<X<X<X<X<X<X<X<X<X<X<X<X<X<X,X<X<X<X<X<X<X<X<X<X<X<X<X,X<X<X<X<X<X<X<X,X,X<X<X<X",
"<X<X<X<X,X<X<X<X<X<X<X<X<X<X<X<X<X<X<X<X<X<X<X<X<X<X<X<X<X<X<X<X<X<X<X<X<X<X<X<X<X<X<X<X<X<X<X<X<X<X<X<X<X<X<X<X<X<X<X<X<X,X<X<X"
};
