/* XPM */
static char *result[] = {
/* columns rows colors chars-per-pixel */
"64 64 97 2 ",
"   c #3E352B",
".  c #443C2D",
"X  c #493F2E",
"o  c #453D33",
"O  c #483D37",
"+  c #47412F",
"@  c #4B432E",
"#  c #514A2F",
"$  c #4B4235",
"%  c #4E443B",
"&  c #504B30",
"*  c #51463D",
"=  c #53493E",
"-  c #575032",
";  c #5F5A33",
":  c #645E35",
">  c #6C6738",
",  c #6F6A38",
"<  c #554B41",
"1  c #594E44",
"2  c #5C5145",
"3  c #5E5348",
"4  c #62564A",
"5  c #655A4E",
"6  c #685C4F",
"7  c #675B50",
"8  c #695E51",
"9  c #6D6154",
"0  c #716457",
"q  c #736659",
"w  c #76695B",
"e  c #796D5E",
"r  c #7B6E60",
"t  c #7E7162",
"y  c #827565",
"u  c #847768",
"i  c #877969",
"p  c #897C6C",
"a  c #83803E",
"s  c #8A863F",
"d  c #8A883F",
"f  c #959343",
"g  c #9E9D44",
"h  c #A8A848",
"j  c #B6B74A",
"k  c #BABC4C",
"l  c #90816F",
"z  c #8F8170",
"x  c #938473",
"c  c #968877",
"v  c #9B8C7A",
"b  c #9F907E",
"n  c #A2937F",
"m  c #C4C74F",
"M  c #C8CB4F",
"N  c #D3D753",
"B  c #D4D853",
"V  c #A39481",
"C  c #A89782",
"Z  c #A79885",
"A  c #AA9A86",
"S  c #AC9D89",
"D  c #B09F89",
"F  c #AFA08A",
"G  c #B3A28D",
"H  c #B6A691",
"J  c #B8A791",
"K  c #BAAA94",
"L  c #BEAD98",
"P  c #C0AF96",
"I  c #C0AF99",
"U  c #C4B39B",
"Y  c #C9B69D",
"T  c #CAB99F",
"R  c #C8B7A1",
"E  c #CDBBA3",
"W  c #D1BEA5",
"Q  c #D4C1A7",
"!  c #D5C4AC",
"~  c #D9C6AC",
"^  c #DECAAD",
"/  c #DECCB2",
"(  c #E0CCAF",
")  c #E2CEB3",
"_  c #E5D1B5",
"`  c #E8D5B7",
"'  c #E6D3B9",
"]  c #EAD6BA",
"[  c #EDD9BD",
"{  c #F0DCBF",
"}  c #EEDBC0",
"|  c #F1DDC2",
" . c #F5E1C5",
".. c #F8E3C7",
"X. c #F7E3C8",
"o. c #FAE6CA",
"O. c None",
/* pixels */
"O.O.O.O.O.O.O.O.O.O.O.O.O.O.O.O.O.O.O.O.O.O.O.O.O.O.O.O.O.O.O.O.O.O.O.O.O.O.O.O.O.O.O.O.O.O.O.O.O.O.O.O.O.O.O.O.O.O.O.O.O.O.O.O.",
"O.O.O.O.O.O.O.O.O.O.O.O.O.O.O.O.O.O.O.O.O.O.O.O.O.O.O.O.O.O.O.O.O.O.O.O.O.O.O.O.O.O.O.O.O.O.O.O.O.O.O.O.O.O.O.O.O.O.O.O.O.O.O.O.",
"O.O.O.O.O.O.O.O.O.O.O.O.O.O.O.O.O.O.O.O.O.O.O.O.O.O.O.O.O.O.O.O.O.O.O.O.O.O.O.O.O.O.O.O.O.O.O.O.O.O.O.O.O.O.O.O.O.O.O.O.O.O.O.O.",
"O.O.O.O.O.O.O.O.O.O.O.O.O.O.O.O.O.O.O.O.O.O.O.O.O.O.O.O.O.O.O.O.O.O.O.O.O.O.O.O.O.O.O.O.O.O.O.O.O.O.O.O.O.O.O.O.O.O.O.O.O.O.O.O.",
"O.O.O.O.O.O.O.O.O.O.O.O.O.O.O.O.O.O.O.O.O.O.O.O.O.O.O.O.O.O.O.O.O.O.O.O.O.O.O.O.O.O.O.O.O.O.O.O.O.O.O.O.O.O.O.O.O.O.O.O.O.O.O.O.",
"O.O.O.O.O.O.O.O.O.O.O.O.O.O.O.O.O.O.O.O.O.O.O.O.O.O.O.O.O.O.O.O.O.O.O.O.O.O.O.O.O.O.O.O.O.O.O.O.O.O.O.O.O.O.O.O.O.O.O.O.O.O.O.O.",
"O.O.O.O.O.O.. O.O.O.O.O.O.O.O.O.O.O.O.O.O.O.O.O.O.O.O.O.O.O.O.O.O.O.O.O.O.O.O.O.O.O.O.O.O.O.O.O.O.O.O.O.O.O.O.O.O.O.O.O.O.O.O.O.",
"O.O.O.O.O.O.. X O.O.O.O.O.O.O.O.O.O.O.O.O.O.O.O.O.O.O.O.O.O.O.O.O.O.O.O.O.O.O.O.O.O.O.O.O.O.O.O.O.O.O.O.O.O.O.O.O.O.O.O.O.O.O.O.",
"O.O.O.O.@ - M , @ O.O.O.O.O.O.O.O.O.O.O.O.O.O.O.O.O.O.O.O.O.O.O.O.O.O.O.O.O.O.O.O.O.O.O.O.O.O.O.O.O.O.O.O.O.O.O.O.O.O.O.O.O.O.O.",
"O.O.O.O.O.$ j & X O.O.@ $ O.O.O.O.O.O.O.O.O.O.O.O.O.O.O.O.O.O.O.O.O.O.O.O.O.O.O.O.O.O.O.O.O.O.O.O.O.O.O.O.O.O.O.O.O.O.O.O.O.O.O.",
"O.O.O.O.O.O.  O.O.O.O.# ; O.O.O.O.O.O.O.O.O.O.O.O.O.O.O.O.O.O.O.O.O.O.O.O.O.O.O.O.O.O.O.O.O.O.O.O.O.O.O.O.O.O.O.O.O.O.O.O.O.O.O.",
"O.O.O.O.O.O.. O.O.O.& k m # O.O.O.O.O.O.O.O.O.O.O.O.O.O.O.O.O.O.O.O.O.O.O.O.O.O.O.O.O.O.O.O.O.O.O.O.O.O.O.O.O.O.O.O.O.O.O.O.O.O.",
"O.O.O.O.O.O.O.O.O.. d B B h . O.O.O.O.O.O.O.O.O.O.O.O.O.< 4 F ! Q U i = O.O.O.O.O.O.O.O.O.O.O.O.O.O.O.O.O.O.O.O.O.O.O.O.O.O.O.O.",
"O.O.O.O.O.O.  O.O.O.@ g f + O.O.O.O.O.O.O.O.O.O.O.O.O.< ! o.o.X.` ^ ^ ^ 9 O.O.O.O.O.O.O.O.O.O.O.O.O.O.O.O.O.O.O.O.O.O.O.O.O.O.O.",
"O.O.O.O.O.@ , @ O.O.O.@ @ O.O.O.O.O.O.O.O.O.O.O.O.O.1 | o.o.o.o.o.] ^ ^ ^ w O.O.O.O.O.O.O.O.O.O.O.O.O.O.O.O.O.O.O.O.O.O.O.O.O.O.",
"O.O.O.O.  : N s   O.O.@ O.O.O.O.O.O.* < 8 8 < * O.% ' o.o.o.o.o.o.o._ ^ ^ ^ 2 O.* 9 x l 0 * O.O.O.O.O.O.O.O.O.O.O.O.O.O.O.O.O.O.",
"O.O.O.O.O.@ a @ O.O.O.O.O.O.O.O.% w _ o.o.o.o._ 7 v X.o.o.o.o.o.o.o. .^ ^ ^ L 6 ' ..] ( ^ ^ b % O.O.O.O.O.O.O.O.O.O.O.O.O.O.O.O.",
"O.O.O.O.O.O.  O.O.O.O.O.O.O.O.% V o.o.o.o.o.o.o.8  .X.o.o.o.o.o.o.o.o._ ^ ^ ^ 0 o.o.o. .( ^ ^ U % O.O.O.O.O.O.O.O.O.O.O.O.O.O.O.",
"O.O.O.O.O.O.O.O.O.O.O.O.O.O.O.w o.o.o.o.o.o.o.! t o.o.o.o.o.o.o.o.o.o.{ ^ ^ ^ n Q o.o.o.[ ^ ^ ^ v O.O.O.O.O.O.O.O.O.O.O.O.O.O.O.",
"O.O.O.O.O.O.O.O.O.O.O.O.O.O.* ) o.o.o.o.o.o.o.S L o.o.o.o.o.o.o.o.o.o.X.^ ^ ^ Q S o.o.o.o.( ^ ^ ^ * O.O.O.O.O.O.O.O.O.O.O.O.O.O.",
"O.O.O.O.O.O.O.O.O.O.O.O.O.O.< o.o.o.o.o.o.o.o.u / o.o.o.o.o.o.o.o.o.o.o.( ^ ^ ( y o.o.o.o.] ^ ^ ^ q O.O.O.O.O.O.O.O.O.O.O.O.O.O.",
"O.O.O.O.O.O.O.O.O.O.O.O.O.O.w o.o.o.o.o.o.o.o.8 o.o.o.o.o.o.o.o.o.o.o.o.' ^ ^ ^ 9 o.o.o.o.{ ^ ^ ^ v O.O.O.O.O.O.O.O.O.O.O.O.O.O.",
"O.O.O.O.O.O.O.O.O.O.O.% % O.z o.o.o.o.o.o.o.o.0 o.o.o.o.o.o.o.o.o.o.o.o.` ^ ^ ^ r o.o.o.o.{ ^ ^ ^ G O.$ % O.O.O.O.O.O.O.O.O.O.O.",
"O.O.O.O.O.O.O.O.% w K E R u z o.o.o.o.o.o.o.o.8 o.o.o.o.o.o.o.o.o.o.o.o.` ^ ^ ^ y o.o.o.o.{ ^ ^ ^ G z Q ^ W v < O.O.O.O.O.O.O.O.",
"O.O.O.O.O.O.O.< / o.o.o.o./ i o.o.o.o.o.o.o.o.8 X.o.o.o.o.o.o.o.o.o.o.o.[ ^ ^ ^ u o.o.o.o.{ ^ ^ ^ A / o._ ^ ^ ^ 9 O.O.O.O.O.O.O.",
"O.O.O.O.O.O.% ' o.o.o.o.o.[ w o.o.o.o.o.o.o.o.9 o.o.o.o.o.o.o.o.o.o.o.o.` ( ^ ^ t o.o.o.o.[ ^ ^ ^ c [ o..._ ^ ^ ^ 1 O.O.O.O.O.O.",
"O.O.O.O.O.O.p o.o.o.o.o.o.o.7 o.o.o.o.o.o.o.o.8 o.o.o.o.o.o.o.o.o.o.o.o.` ^ ^ ^ r o.o.o.o.' ^ ^ ^ q o.o.o.| ^ ^ ^ G O.O.O.O.O.O.",
"O.O.O.O.O.O U o.o.o.o.o.o.o.t ) o.o.o.o.o.o.o.8 o.o.o.o.o.o.o.o.o.o.o.o.` ^ ^ ^ q o.o.o.o._ ^ ^ ^ t o.o.o...^ ^ ^ Q O.O.O.O.O.O.",
"O.O.O.O.O.% E o.o.o.o.o.o.o.S H o.o.o.o.o.o.X.8 X.o.o.o.o.o.o.o.o.o.o.o._ ^ ^ ^ 9 o.o.o.X.^ ^ ^ E S o.o.o.o.^ ^ ^ ~ % O.O.O.O.O.",
"O.O.O.O.O.O.H o.o.o.o.o.o.o.' w o.o.o.o.o.o.X.r } o.o.o.o.o.o.o.o.o.o.o.( ( ^ ( e o.o.o.[ ^ ^ ^ c ' o.o.o...^ ^ ^ E O.O.O.O.O.O.",
"O.O.O.O.O.O.i o.o.o.o.o.o.o.o.q } o.o.o.o.o.o.i ! o.o.o.o.o.o.o.o.o.o.o.( ^ ^ ^ p o.o.o._ ^ ^ ^ q o.o.o.o.{ ^ ^ ^ A O.O.O.O.O.O.",
"O.O.O.O.O.O.< X.o.o.o.o.o.o.o.G S o.o.o.o.o.o.V R o.o.o.o.o.o.o.o.o.o...^ ^ ^ Q b o.o. .^ ^ ^ T F o.o.o.o.` ^ ^ ^ 6 O.O.O.O.O.O.",
"O.O.O.O.O.O.* L o.o.o.o.o.o.o.} 9 X.o.o.o.o.o.H S o.o.o.o.o.o.o.o.o.o...^ ^ ^ T G o.o.] ^ ^ ^ y | o.o.o...( ( ^ W * O.O.O.O.O.O.",
"O.O.O.O.O.O.O.3 o.o.o.o.o.o.o.o.i ! o.o.o.o.o.E z o.o.o.o.o.o.o.o.o.o.{ ^ ^ ( K R o.o.) ^ ^ ~ p o.o.o.o.` ( ^ ^ e O.O.O.O.O.O.O.",
"O.O.O.O.O.O.O.% S o.o.o.o.o.o.o./ t X.X.o.o.o.' w o.o.o.o.o.o.o.o.o.o.{ ^ ^ ^ b _ o.{ ^ ^ ^ n ~ o.o.o. .( ~ ( T % O.O.O.O.O.O.O.",
"O.O.O.O.O.O.O.O.< } o.o.o.o.o.o.X.9 } o.o.o.o.o.3 o.o.o.o.o.o.o.o.o.o.[ ^ ^ ^ y o.o._ ^ ^ ^ 0 o.o.o.o._ ^ ^ ( 2 O.O.O.O.O.O.O.O.",
"O.O.O.O.O.O.O.O.O.7 X.X.o.o.o.o.o.K V X.o.o.o.o.3 X.X.o.o.o.o.o.o.o.o.' ^ ^ ^ 0 o.| ( ^ ^ P K o.o.o.[ ^ ^ ^ p O.O.O.O.O.O.O.O.O.",
"O.O.O.O.O.% < p V 9 x o.o.o.o.o.o.X.7  .o.o.o.o.r / o.o.o.o.o.o.o.o.o.( ^ ^ ^ w o._ ^ ^ ( 0 X.o.o.| ^ ^ ^ J v U G 8 O.O.O.O.O.O.",
"O.O.O.O.% c X.o.o.o.r U X.o.o.o.o.o.Z S o.o.o.o.v R o.o.o.o.o.o.o.o...( ^ ^ ~ c  .^ ^ ^ Y S o.o. .( ^ ( Q e { ( ^ ^ K % O.O.O.O.",
"O.O.O.O.7 o.o.o.o.o.} 7 / o.o.o.o.X. .7 X.o.o.X.H Z o.o.o.o.o.o.o.o. .^ ^ ^ Y J ] ^ ^ ^ w | o.X.) ( ^ ~ 0 { o.[ ^ ^ ^ p O.O.O.O.",
"O.O.O.O.A o.o.o.o.o.o.} 4 ' o.o.o.o.o.V K X.X.o.} ! X.o.o.o.o.o.o.o.{ ( ^ ^ n ^ ( ^ ^ W b o.o._ ^ ^ ^ 0 ' o.o. .^ ^ ^ Y O.O.O.O.",
"O.O.O.O.V o.o.o.o.o.o.o.! 8 | X.o.o.X.} 8 X.o.o.o.o.X.o.o.o.o.o.o.o.` ^ ^ ^ y ` ^ ^ ( e { ..] ^ ^ ^ y ! o.o.o. .^ ^ ( P O.O.O.O.",
"O.O.O.O.3 X.o.o.o.o.o.o.X.U w  .o.o.o.o.v K o.o.o.o.o.o.o.o.o.o.o.o._ ( ^ ( e ( ^ ^ W v ..[ ^ ( ^ x U o.o.o...] ^ ^ ^ e O.O.O.O.",
"O.O.O.O.% G o.o.o.o.o.o.o.o.H r X.o.o.o.} 8 X.o.o.R _ o.o.o.o.o.o.o.( ^ ( ^ S ^ ^ ^ e { { ^ ^ ( v H o.o.o.o. .^ ^ ^ T * O.O.O.O.",
"O.O.O.O.O.% ! o.o.o.o.o.o.o.X.S p X.o.o.o.V G X.o.H Z o.o.o.o.o.o. .^ ^ ^ Y T ( ^ T n { ( ( ( C C o.o.o.o.X._ ^ ^ ^ < O.O.O.O.O.",
"O.O.O.O.O.O.% E X.X.o.o.o.o.o.o.v c o.o.o. .7  .o.] r o.o.o.o.o.o.{ ^ ^ ^ b ^ ^ ( w [ ( ^ ^ J v o.o.o.o. ._ ^ ^ ~ < O.O.O.O.O.O.",
"O.O.O.O.O.O.5 0 V X.o.o.o.o.o.o.X.x v X.o.o.A Z o.o.7 o.o.o.o.o.o.` ^ ^ ^ y ^ ^ U J ( ~ ^ J x o.o.o.o. .^ ^ ^ P z p O.O.O.O.O.O.",
"O.O.O.O.O.< } X.V 9 / o.o.o.o.o.o.o.z v o.X.X.7 ' o.p ! o.o.o.o.o.( ^ ^ ^ A ^ ( y ( ~ ( J l o.o.o.X.' ^ ^ ^ l U ^ ^ 2 O.O.O.O.O.",
"O.O.O.O.O.2 o.o.o./ r i ] X.o.o.o.o.o.c x o.o.W t o.L Z o.o.o.o. .^ ^ ^ Y Q ^ n Q ^ ( K x o.o.o.[ ( ^ ^ S e ^ ^ ^ ^ w O.O.O.O.O.",
"O.O.O.O.O.< ' o.o.o.X.E 7 v X.o.o.o.o.o.x c X.X.t E } q o.o.o.o.] ^ ^ ^ c ( Q n ( ^ J x o.o.| ) ^ ( U 9 U o._ ^ ^ ^ 1 O.O.O.O.O.",
"O.O.O.O.O.O.7  .o.o.o.o.X.Z i o.o.o.o.o.o.V t X.' 7  .7 [ o.o.o._ ( ^ ( y ^ y ( ^ A x ..| _ ( ^ Q w S X.o.[ ^ ^ ^ z O.O.O.O.O.O.",
"O.O.O.O.O.O.O.4 ) o.o.o.o.o.o.o.o.} o.o.o.o.F r  .V v V A o.o.X.^ ^ ( Y U J Y ( c S  ._ ^ ^ W w x [ o...` ^ ^ ^ r O.O.O.O.O.O.O.",
"O.O.O.O.O.O.O.O.% i ) o.o.o.o.o.o.H 7 S | o.o.I 9 ' r K 8 X.o.[ ^ ^ ^ i W l ( i U ) ( ( E e v [ ..o.[ ( ^ ^ G * O.O.O.O.O.O.O.O.",
"O.O.O.O.O.O.O.O.O.O.< 5 A ) o.o.o.o.} S 7 c ' o.E 7 R 7 r / o./ ^ ^ ( p e ^ y Q ( ( U 9 v [ o.{ ` ^ ( U p = O.O.O.O.O.O.O.O.O.O.",
"O.O.O.O.O.O.O.O.O.O.O.O.O.< < p U | o.o.X.H 5 p ! ' 0 z 7 t } ^ ( ( n 9 D i ( ~ D 0 G { [ _ ^ ~ G 8 % O.O.O.O.O.O.O.O.O.O.O.O.O.",
"O.O.O.O.O.O.O.O.O.O.O.O.O.O.O.O.% < < t D / o.W u 8 V i 4 1 / ^ ^ ( = 6 C Y u v ~ ( ( E C 0 < % O.O.O.O.O.O.O.O.O.O.O.O.O.O.O.O.",
"O.O.O.O.O.O.O.O.O.O.O.O.O.O.O.O.O.O.O.O.O.< * 4 i C x 8 8 * 2 ~ Q 4 < 8 r A U S p 2 = O.O.O.O.O.O.O.O.O.O.O.O.O.O.O.O.O.O.O.O.O.",
"O.O.O.O.O.O.O.O.O.O.O.O.O.O.O.O.O.O.O.O.O.O.O.O.O.O.* * % % O * * . O % = * O.O.O.O.O.O.O.O.O.O.O.O.O.O.O.O.O.O.O.O.O.O.O.O.O.O.",
"O.O.O.O.O.O.O.O.O.O.O.O.O.O.O.O.O.O.O.O.O.O.O.O.O.O.O.O.O.O.O.O.O.O.O.O.O.O.O.O.O.O.O.O.O.O.O.O.O.O.O.O.O.O.O.O.O.O.O.O.O.O.O.O.",
"O.O.O.O.O.O.O.O.O.O.O.O.O.O.O.O.O.O.O.O.O.O.O.O.O.O.O.O.O.O.O.O.O.O.O.O.O.O.O.O.O.O.O.O.O.O.O.O.O.O.O.O.O.O.O.O.O.O.O.O.O.O.O.O.",
"O.O.O.O.O.O.O.O.O.O.O.O.O.O.O.O.O.O.O.O.O.O.O.O.O.O.O.O.O.O.O.O.O.O.O.O.O.O.O.O.O.O.O.O.O.O.O.O.O.O.O.O.O.O.O.O.O.O.O.O.O.O.O.O.",
"O.O.O.O.O.O.O.O.O.O.O.O.O.O.O.O.O.O.O.O.O.O.O.O.O.O.O.O.O.O.O.O.O.O.O.O.O.O.O.O.O.O.O.O.O.O.O.O.O.O.O.O.O.O.O.O.O.O.O.O.O.O.O.O.",
"O.O.O.O.O.O.O.O.O.O.O.O.O.O.O.O.O.O.O.O.O.O.O.O.O.O.O.O.O.O.O.O.O.O.O.O.O.O.O.O.O.O.O.O.O.O.O.O.O.O.O.O.O.O.O.O.O.O.O.O.O.O.O.O.",
"O.O.O.O.O.O.O.O.O.O.O.O.O.O.O.O.O.O.O.O.O.O.O.O.O.O.O.O.O.O.O.O.O.O.O.O.O.O.O.O.O.O.O.O.O.O.O.O.O.O.O.O.O.O.O.O.O.O.O.O.O.O.O.O."
};
