/* XPM */
static char *ddd3090dcd9d4f3ffbad3807021960eaUDvTashJI25rb5FW[] = {
/* columns rows colors chars-per-pixel */
"64 64 88 1 ",
"  c None",
". c #00BCE3",
"X c #00BDE3",
"o c #00BEE2",
"O c #00BFE2",
"+ c #00BEE3",
"@ c #00BFE3",
"# c #00B8E4",
"$ c #00B8E5",
"% c #00B9E5",
"& c #00BBE4",
"* c #00BAE5",
"= c #00BBE5",
"- c #00B8E6",
"; c #00BBE6",
": c #00BCE4",
"> c #00BDE4",
", c #00BEE4",
"< c #00BEE5",
"1 c #00BCE6",
"2 c #00C8DF",
"3 c #00C9DF",
"4 c #00CADF",
"5 c #00CBDF",
"6 c #00CFDC",
"7 c #00CFDD",
"8 c #00CCDE",
"9 c #00CDDE",
"0 c #00CCDF",
"q c #00CFDE",
"w c #00DCD7",
"e c #00DDD7",
"r c #00DFD6",
"t c #00DED7",
"y c #00DFD7",
"u c #00D3DB",
"i c #00D7D9",
"p c #00D5DA",
"a c #00D4DB",
"s c #00D5DB",
"d c #00D6DA",
"f c #00D7DA",
"g c #00D6DB",
"h c #00D0DC",
"j c #00D1DC",
"k c #00D2DC",
"l c #00D3DC",
"z c #00D2DD",
"x c #00D0DE",
"c c #00D4DC",
"v c #00D5DC",
"b c #00D8D8",
"n c #00D9D9",
"m c #00DBD8",
"M c #00DAD9",
"N c #00DBD9",
"B c #00D8DA",
"V c #00DCD8",
"C c #00DDD8",
"Z c #00DCD9",
"A c #00DED8",
"S c #00DCDA",
"D c #00E0D5",
"F c #00E2D5",
"G c #00E3D5",
"H c #00E0D6",
"J c #00E1D6",
"K c #00E0D7",
"L c #00E2D6",
"P c #00E3D6",
"I c #00E4D6",
"U c #00C0E1",
"Y c #00C2E1",
"T c #00C3E1",
"R c #00C0E2",
"E c #00C1E2",
"W c #00C0E3",
"Q c #00C3E2",
"! c #00C4E0",
"~ c #00C5E0",
"^ c #00C4E1",
"/ c #00C5E1",
"( c #00C6E0",
") c #00C7E0",
"_ c #00C6E1",
"` c #00C4E2",
"' c #00C8E0",
"] c #00CBE0",
/* pixels */
"                                                                ",
"                                                                ",
"                                                                ",
"                                                                ",
"                                                                ",
"                                                                ",
"                                                                ",
"                                                                ",
"                                                                ",
"                                                                ",
"                                                                ",
"                                                                ",
"                                                                ",
"      PI               PPPPPPP                PPPPPPP           ",
"     PPPP             PPPPPPPPPP            PPPPPPPPPP          ",
"      rrPr           PPrr   rPrPr          rPrrr   rrrP         ",
"       rrrK         rrr       KSrP        rrSr       PSr        ",
"        rrSr       rrS         rrrS      SrrP         rrS       ",
"         SSrSr   wSSS           wBSS    SrrS           SrB      ",
"          wSrBSrSrww             rrBrSBrrSB             SrS     ",
"            SSBSSSB               BSBSSSBS                      ",
"                                                                ",
"                         wBB                    Bfb             ",
"      fB               BffBffff              ffffffff           ",
"      fff             ffffffffff            ffffffffff          ",
"      fluf           ccf     cflf          clfc     ucf         ",
"       llfc        cccc       clcf        lluf       fuuf       ",
"         lll      lcll         llll      llll         llll      ",
"          lll6  lllll           xllll  ullll           lll      ",
"           l666l666l             66ll66l6l6             6l      ",
"            666666l                666666                       ",
"                                                                ",
"                                                                ",
"      6                ]6'6]]6                '66]'66           ",
"     ]']]             6'']]6'6'              ']']']]']          ",
"      6262           ]226'  '''6            26'6  62'62         ",
"       2`22         '22       '22          2''       '22        ",
"        ''`'       '''         ``'        `2`         22'       ",
"         `222     `2`           22`2    2`2`           ``'      ",
"          `````2`2``             `'`````2``             ```     ",
"           ````````               `````Y`Y               `      ",
"              ```                    Y2                         ",
"                                                                ",
"      ,Y               YY.YYY,                WY,YY.Y           ",
"     ,,YY             Y,,Y,,Y.,,            Y,YWW,Y,YW          ",
"      .,..           ..,,   ,,,,,          ,.,..   ,..,         ",
"       ,,&,         ,,,       ,,,&        .,,.       ,,,        ",
"        &,&.       &&,         ,&,&      &,&,         &,,       ",
"         ,&&--   -&-,           -&&&    -,-&           &&&      ",
"          &&&--&&--&             -&-&-&---&             -&-     ",
"            -&&--&&               &----&&-                      ",
"                                                                ",
"                                                                ",
"                                                                ",
"                                                                ",
"                                                                ",
"                                                                ",
"                                                                ",
"                                                                ",
"                                                                ",
"                                                                ",
"                                                                ",
"                                                                ",
"                                                                "
};
